SplineFontDB: 3.2
FontName: WeatherIcons-Regular
FullName: Weather Icons Regular
FamilyName: Weather Icons
Weight: Book
Copyright: Weather Icons licensed under SIL OFL 1.1 - Code licensed under MIT License - Documentation licensed under CC BY 3.0
Version: 1.100;PS 001.100;hotconv 1.0.70;makeotf.lib2.5.58329
ItalicAngle: 0
UnderlinePosition: -166
UnderlineWidth: 57
Ascent: 1755
Descent: 293
InvalidEm: 0
sfntRevision: 0x00011999
woffMajor: 1
woffMinor: 0
LayerCount: 2
Layer: 0 1 "Warstwa t+AUIA-a" 1
Layer: 1 1 "Plan pierwszy" 0
XUID: [1021 871 -1854093100 11848]
StyleMap: 0x0040
FSType: 4
OS2Version: 3
OS2_WeightWidthSlopeOnly: 0
OS2_UseTypoMetrics: 0
CreationTime: 1439907910
ModificationTime: 1684327599
PfmFamily: 81
TTFWeight: 400
TTFWidth: 5
LineGap: 0
VLineGap: 0
Panose: 0 0 5 0 0 0 0 0 0 0
OS2TypoAscent: 1755
OS2TypoAOffset: 0
OS2TypoDescent: -293
OS2TypoDOffset: 0
OS2TypoLinegap: 0
OS2WinAscent: 2245
OS2WinAOffset: 0
OS2WinDescent: 718
OS2WinDOffset: 0
HheadAscent: 2245
HheadAOffset: 0
HheadDescent: -718
HheadDOffset: 0
OS2SubXSize: 1330
OS2SubYSize: 1229
OS2SubXOff: 0
OS2SubYOff: 153
OS2SupXSize: 1330
OS2SupYSize: 1229
OS2SupXOff: 0
OS2SupYOff: 717
OS2StrikeYSize: 57
OS2StrikeYPos: 1229
OS2Vendor: 'UKWN'
OS2CodePages: 00000001.00000000
OS2UnicodeRanges: 00000000.00000000.00000000.00000000
DEI: 91125
TtTable: prep
PUSHW_1
 511
SCANCTRL
PUSHB_1
 1
SCANTYPE
SVTCA[y-axis]
MPPEM
PUSHB_1
 8
LT
IF
PUSHB_2
 1
 1
INSTCTRL
EIF
PUSHB_2
 70
 6
CALL
IF
POP
PUSHB_1
 16
EIF
MPPEM
PUSHB_1
 20
GT
IF
POP
PUSHB_1
 128
EIF
SCVTCI
PUSHB_1
 6
CALL
NOT
IF
EIF
PUSHB_1
 20
CALL
EndTTInstrs
TtTable: fpgm
PUSHB_1
 0
FDEF
PUSHB_1
 0
SZP0
MPPEM
PUSHB_1
 76
LT
IF
PUSHB_1
 74
SROUND
EIF
PUSHB_1
 0
SWAP
MIAP[rnd]
RTG
PUSHB_1
 6
CALL
IF
RTDG
EIF
MPPEM
PUSHB_1
 76
LT
IF
RDTG
EIF
DUP
MDRP[rp0,rnd,grey]
PUSHB_1
 1
SZP0
MDAP[no-rnd]
RTG
ENDF
PUSHB_1
 1
FDEF
DUP
MDRP[rp0,min,white]
PUSHB_1
 12
CALL
ENDF
PUSHB_1
 2
FDEF
MPPEM
GT
IF
RCVT
SWAP
EIF
POP
ENDF
PUSHB_1
 3
FDEF
ROUND[Black]
RTG
DUP
PUSHB_1

StartChar: .notdef
Encoding: 65536 -1 0
Width: 748
GlyphClass: 1
Flags: W
LayerCount: 2
Fore
SplineSet
68 0 m 1,0,-1
 68 1365 l 1,1,-1
 612 1365 l 1,2,-1
 612 0 l 1,3,-1
 68 0 l 1,0,-1
136 68 m 1,4,-1
 544 68 l 1,5,-1
 544 1297 l 1,6,-1
 136 1297 l 1,7,-1
 136 68 l 1,4,-1
EndSplineSet
Validated: 1
EndChar

StartChar: uni25FC
Encoding: 9724 9724 18
Width: 571
GlyphClass: 1
Flags: W
LayerCount: 2
Fore
SplineSet
0 0 m 1024,0,-1
EndSplineSet
Validated: 1
EndChar

StartChar: uniF000
Encoding: 61440 61440 19
Width: 1664
GlyphClass: 1
Flags: W
LayerCount: 2
Fore
SplineSet
1408 544 m 2,0,-1
 1408 64 l 2,1,2
 1408 38 1408 38 1389 19 c 128,-1,3
 1370 0 1370 0 1344 0 c 2,4,-1
 960 0 l 1,5,-1
 960 384 l 1,6,-1
 704 384 l 1,7,-1
 704 0 l 1,8,-1
 320 0 l 2,9,10
 294 0 294 0 275 19 c 128,-1,11
 256 38 256 38 256 64 c 2,12,-1
 256 544 l 2,13,14
 256 545 256 545 256.5 547 c 128,-1,15
 257 549 257 549 257 550 c 2,16,-1
 832 1024 l 1,17,-1
 1407 550 l 2,18,19
 1408 548 1408 548 1408 544 c 2,0,-1
1631 613 m 2,20,-1
 1569 539 l 2,21,22
 1561 530 1561 530 1548 528 c 2,23,-1
 1545 528 l 2,24,25
 1532 528 1532 528 1524 535 c 2,26,-1
 832 1112 l 1,27,-1
 140 535 l 2,28,29
 128 527 128 527 116 528 c 0,30,31
 103 530 103 530 95 539 c 2,32,-1
 33 613 l 2,33,34
 25 623 25 623 26 636.5 c 128,-1,35
 27 650 27 650 37 658 c 2,36,-1
 756 1257 l 2,37,38
 788 1283 788 1283 832 1283 c 128,-1,39
 876 1283 876 1283 908 1257 c 2,40,-1
 1152 1053 l 1,41,-1
 1152 1248 l 2,42,43
 1152 1262 1152 1262 1161 1271 c 128,-1,44
 1170 1280 1170 1280 1184 1280 c 2,45,-1
 1376 1280 l 2,46,47
 1390 1280 1390 1280 1399 1271 c 128,-1,48
 1408 1262 1408 1262 1408 1248 c 2,49,-1
 1408 840 l 1,50,-1
 1627 658 l 2,51,52
 1637 650 1637 650 1638 636.5 c 128,-1,53
 1639 623 1639 623 1631 613 c 2,20,-1
EndSplineSet
Validated: 1
EndChar

StartChar: uniF001
Encoding: 61441 61441 20
Width: 1536
GlyphClass: 1
Flags: W
LayerCount: 2
Fore
SplineSet
1024 640 m 128,-1,1
 1024 746 1024 746 949 821 c 128,-1,2
 874 896 874 896 768 896 c 128,-1,3
 662 896 662 896 587 821 c 128,-1,4
 512 746 512 746 512 640 c 128,-1,5
 512 534 512 534 587 459 c 128,-1,6
 662 384 662 384 768 384 c 128,-1,7
 874 384 874 384 949 459 c 128,-1,0
 1024 534 1024 534 1024 640 c 128,-1,1
1536 749 m 2,8,-1
 1536 527 l 2,9,10
 1536 515 1536 515 1528 504 c 128,-1,11
 1520 493 1520 493 1508 491 c 2,12,-1
 1323 463 l 1,13,14
 1304 409 1304 409 1284 372 c 1,15,16
 1319 322 1319 322 1391 234 c 0,17,18
 1401 222 1401 222 1401 209 c 128,-1,19
 1401 196 1401 196 1392 186 c 0,20,21
 1365 149 1365 149 1293 78 c 128,-1,22
 1221 7 1221 7 1199 7 c 0,23,24
 1187 7 1187 7 1173 16 c 2,25,-1
 1035 124 l 1,26,27
 991 101 991 101 944 86 c 1,28,29
 928 -50 928 -50 915 -100 c 0,30,31
 908 -128 908 -128 879 -128 c 2,32,-1
 657 -128 l 2,33,34
 643 -128 643 -128 632.5 -119.5 c 128,-1,35
 622 -111 622 -111 621 -98 c 2,36,-1
 593 86 l 1,37,38
 544 102 544 102 503 123 c 1,39,-1
 362 16 l 2,40,41
 352 7 352 7 337 7 c 0,42,43
 323 7 323 7 312 18 c 0,44,45
 186 132 186 132 147 186 c 0,46,47
 140 196 140 196 140 209 c 0,48,49
 140 221 140 221 148 232 c 0,50,51
 163 253 163 253 199 298.5 c 128,-1,52
 235 344 235 344 253 369 c 1,53,54
 226 419 226 419 212 468 c 1,55,-1
 29 495 l 2,56,57
 16 497 16 497 8 507.5 c 128,-1,58
 0 518 0 518 0 531 c 2,59,-1
 0 753 l 2,60,61
 0 765 0 765 8 776 c 128,-1,62
 16 787 16 787 27 789 c 2,63,-1
 213 817 l 1,64,65
 227 863 227 863 252 909 c 1,66,67
 212 966 212 966 145 1047 c 0,68,69
 135 1059 135 1059 135 1071 c 0,70,71
 135 1081 135 1081 144 1094 c 0,72,73
 170 1130 170 1130 242.5 1201.5 c 128,-1,74
 315 1273 315 1273 337 1273 c 0,75,76
 350 1273 350 1273 363 1263 c 2,77,-1
 501 1156 l 1,78,79
 545 1179 545 1179 592 1194 c 1,80,81
 608 1330 608 1330 621 1380 c 0,82,83
 628 1408 628 1408 657 1408 c 2,84,-1
 879 1408 l 2,85,86
 893 1408 893 1408 903.5 1399.5 c 128,-1,87
 914 1391 914 1391 915 1378 c 2,88,-1
 943 1194 l 1,89,90
 992 1178 992 1178 1033 1157 c 1,91,-1
 1175 1264 l 2,92,93
 1184 1273 1184 1273 1199 1273 c 0,94,95
 1212 1273 1212 1273 1224 1263 c 0,96,97
 1353 1144 1353 1144 1389 1093 c 0,98,99
 1396 1085 1396 1085 1396 1071 c 0,100,101
 1396 1059 1396 1059 1388 1048 c 0,102,103
 1373 1027 1373 1027 1337 981.5 c 128,-1,104
 1301 936 1301 936 1283 911 c 1,105,106
 1309 861 1309 861 1324 813 c 1,107,-1
 1507 785 l 2,108,109
 1520 783 1520 783 1528 772.5 c 128,-1,110
 1536 762 1536 762 1536 749 c 2,8,-1
EndSplineSet
Validated: 1
EndChar

StartChar: uniF002
Encoding: 61442 61442 21
Width: 1792
GlyphClass: 1
Flags: W
LayerCount: 2
Fore
SplineSet
1024 161 m 2,0,-1
 1024 351 l 2,1,2
 1024 365 1024 365 1014.5 374.5 c 128,-1,3
 1005 384 1005 384 992 384 c 2,4,-1
 800 384 l 2,5,6
 787 384 787 384 777.5 374.5 c 128,-1,7
 768 365 768 365 768 351 c 2,8,-1
 768 161 l 2,9,10
 768 147 768 147 777.5 137.5 c 128,-1,11
 787 128 787 128 800 128 c 2,12,-1
 992 128 l 2,13,14
 1005 128 1005 128 1014.5 137.5 c 128,-1,15
 1024 147 1024 147 1024 161 c 2,0,-1
1022 535 m 2,16,-1
 1040 994 l 2,17,18
 1040 1006 1040 1006 1030 1013 c 0,19,20
 1017 1024 1017 1024 1006 1024 c 2,21,-1
 786 1024 l 2,22,23
 775 1024 775 1024 762 1013 c 0,24,25
 752 1006 752 1006 752 992 c 2,26,-1
 769 535 l 2,27,28
 769 525 769 525 779 518.5 c 128,-1,29
 789 512 789 512 803 512 c 2,30,-1
 988 512 l 2,31,32
 1002 512 1002 512 1011.5 518.5 c 128,-1,33
 1021 525 1021 525 1022 535 c 2,16,-1
1008 1469 m 2,34,-1
 1776 61 l 2,35,36
 1811 -2 1811 -2 1774 -65 c 0,37,38
 1757 -94 1757 -94 1727.5 -111 c 128,-1,39
 1698 -128 1698 -128 1664 -128 c 2,40,-1
 128 -128 l 2,41,42
 94 -128 94 -128 64.5 -111 c 128,-1,43
 35 -94 35 -94 18 -65 c 0,44,45
 -19 -2 -19 -2 16 61 c 2,46,-1
 784 1469 l 2,47,48
 801 1500 801 1500 831 1518 c 128,-1,49
 861 1536 861 1536 896 1536 c 128,-1,50
 931 1536 931 1536 961 1518 c 128,-1,51
 991 1500 991 1500 1008 1469 c 2,34,-1
EndSplineSet
Validated: 33
EndChar

StartChar: uniF003
Encoding: 61443 61443 22
Width: 1792
GlyphClass: 1
Flags: W
LayerCount: 2
Fore
SplineSet
1024 128 m 1,0,-1
 1664 128 l 1,1,-1
 1664 256 l 1,2,-1
 1024 256 l 1,3,-1
 1024 128 l 1,0,-1
640 640 m 1,4,-1
 1664 640 l 1,5,-1
 1664 768 l 1,6,-1
 640 768 l 1,7,-1
 640 640 l 1,4,-1
1280 1152 m 1,8,-1
 1664 1152 l 1,9,-1
 1664 1280 l 1,10,-1
 1280 1280 l 1,11,-1
 1280 1152 l 1,8,-1
1792 320 m 2,12,-1
 1792 64 l 2,13,14
 1792 38 1792 38 1773 19 c 128,-1,15
 1754 0 1754 0 1728 0 c 2,16,-1
 64 0 l 2,17,18
 38 0 38 0 19 19 c 128,-1,19
 0 38 0 38 0 64 c 2,20,-1
 0 320 l 2,21,22
 0 346 0 346 19 365 c 128,-1,23
 38 384 38 384 64 384 c 2,24,-1
 1728 384 l 2,25,26
 1754 384 1754 384 1773 365 c 128,-1,27
 1792 346 1792 346 1792 320 c 2,12,-1
1792 832 m 2,28,-1
 1792 576 l 2,29,30
 1792 550 1792 550 1773 531 c 128,-1,31
 1754 512 1754 512 1728 512 c 2,32,-1
 64 512 l 2,33,34
 38 512 38 512 19 531 c 128,-1,35
 0 550 0 550 0 576 c 2,36,-1
 0 832 l 2,37,38
 0 858 0 858 19 877 c 128,-1,39
 38 896 38 896 64 896 c 2,40,-1
 1728 896 l 2,41,42
 1754 896 1754 896 1773 877 c 128,-1,43
 1792 858 1792 858 1792 832 c 2,28,-1
1792 1344 m 2,44,-1
 1792 1088 l 2,45,46
 1792 1062 1792 1062 1773 1043 c 128,-1,47
 1754 1024 1754 1024 1728 1024 c 2,48,-1
 64 1024 l 2,49,50
 38 1024 38 1024 19 1043 c 128,-1,51
 0 1062 0 1062 0 1088 c 2,52,-1
 0 1344 l 2,53,54
 0 1370 0 1370 19 1389 c 128,-1,55
 38 1408 38 1408 64 1408 c 2,56,-1
 1728 1408 l 2,57,58
 1754 1408 1754 1408 1773 1389 c 128,-1,59
 1792 1370 1792 1370 1792 1344 c 2,44,-1
EndSplineSet
Validated: 1
EndChar

StartChar: uniF004
Encoding: 61444 61444 23
Width: 1792
GlyphClass: 1
Flags: W
LayerCount: 2
Fore
SplineSet
896 1536 m 128,-1,1
 1078 1536 1078 1536 1244 1465 c 128,-1,2
 1410 1394 1410 1394 1530 1274 c 128,-1,3
 1650 1154 1650 1154 1721 988 c 128,-1,4
 1792 822 1792 822 1792 640 c 128,-1,5
 1792 458 1792 458 1721 292 c 128,-1,6
 1650 126 1650 126 1530 6 c 128,-1,7
 1410 -114 1410 -114 1244 -185 c 128,-1,8
 1078 -256 1078 -256 896 -256 c 128,-1,9
 714 -256 714 -256 548 -185 c 128,-1,10
 382 -114 382 -114 262 6 c 128,-1,11
 142 126 142 126 71 292 c 128,-1,12
 0 458 0 458 0 640 c 128,-1,13
 0 822 0 822 71 988 c 128,-1,14
 142 1154 142 1154 262 1274 c 128,-1,15
 382 1394 382 1394 548 1465 c 128,-1,0
 714 1536 714 1536 896 1536 c 128,-1,1
896 1408 m 128,-1,17
 706 1408 706 1408 535 1318 c 1,18,-1
 729 1124 l 1,19,20
 811 1152 811 1152 896 1152 c 128,-1,21
 981 1152 981 1152 1063 1124 c 1,22,-1
 1257 1318 l 1,23,16
 1086 1408 1086 1408 896 1408 c 128,-1,17
218 279 m 1,24,-1
 412 473 l 1,25,26
 384 555 384 555 384 640 c 128,-1,27
 384 725 384 725 412 807 c 1,28,-1
 218 1001 l 1,29,30
 128 830 128 830 128 640 c 128,-1,31
 128 450 128 450 218 279 c 1,24,-1
896 -128 m 128,-1,33
 1086 -128 1086 -128 1257 -38 c 1,34,-1
 1063 156 l 1,35,36
 981 128 981 128 896 128 c 128,-1,37
 811 128 811 128 729 156 c 1,38,-1
 535 -38 l 1,39,32
 706 -128 706 -128 896 -128 c 128,-1,33
896 256 m 128,-1,41
 1055 256 1055 256 1167.5 368.5 c 128,-1,42
 1280 481 1280 481 1280 640 c 128,-1,43
 1280 799 1280 799 1167.5 911.5 c 128,-1,44
 1055 1024 1055 1024 896 1024 c 128,-1,45
 737 1024 737 1024 624.5 911.5 c 128,-1,46
 512 799 512 799 512 640 c 128,-1,47
 512 481 512 481 624.5 368.5 c 128,-1,40
 737 256 737 256 896 256 c 128,-1,41
1380 473 m 1,48,-1
 1574 279 l 1,49,50
 1664 450 1664 450 1664 640 c 128,-1,51
 1664 830 1664 830 1574 1001 c 1,52,-1
 1380 807 l 1,53,54
 1408 725 1408 725 1408 640 c 128,-1,55
 1408 555 1408 555 1380 473 c 1,48,-1
EndSplineSet
Validated: 1
EndChar

StartChar: uniF005
Encoding: 61445 61445 24
Width: 1502
GlyphClass: 1
Flags: W
LayerCount: 2
Fore
SplineSet
0 -283 m 1,0,-1
 42 -283 l 1,1,-1
 776 803 l 2,2,3
 791 832 791 832 760 832 c 2,4,-1
 457 832 l 1,5,-1
 776 1413 l 2,6,7
 790 1442 790 1442 755 1442 c 2,8,-1
 349 1442 l 2,9,10
 332 1442 332 1442 318 1423 c 1,11,-1
 22 634 l 1,12,13
 18 605 18 605 42 605 c 2,14,-1
 335 605 l 1,15,-1
 0 -283 l 1,0,-1
907 392 m 1,16,-1
 936 392 l 1,17,-1
 1493 1210 l 2,18,19
 1501 1223 1501 1223 1497 1231 c 128,-1,20
 1493 1239 1493 1239 1479 1239 c 2,21,-1
 1255 1239 l 1,22,-1
 1488 1669 l 2,23,24
 1507 1701 1507 1701 1469 1701 c 2,25,-1
 1177 1701 l 2,26,27
 1156 1701 1156 1701 1145 1681 c 2,28,-1
 923 1096 l 2,29,30
 918 1082 918 1082 924 1074 c 128,-1,31
 930 1066 930 1066 944 1066 c 2,32,-1
 1162 1066 l 1,33,-1
 907 392 l 1,16,-1
EndSplineSet
Validated: 9
EndChar

StartChar: uniF009
Encoding: 61449 61449 25
Width: 1408
GlyphClass: 1
Flags: W
LayerCount: 2
Fore
SplineSet
512 840 m 2,0,-1
 512 264 l 2,1,2
 512 250 512 250 503 241 c 128,-1,3
 494 232 494 232 480 232 c 2,4,-1
 416 232 l 2,5,6
 402 232 402 232 393 241 c 128,-1,7
 384 250 384 250 384 264 c 2,8,-1
 384 840 l 2,9,10
 384 854 384 854 393 863 c 128,-1,11
 402 872 402 872 416 872 c 2,12,-1
 480 872 l 2,13,14
 494 872 494 872 503 863 c 128,-1,15
 512 854 512 854 512 840 c 2,0,-1
768 840 m 2,16,-1
 768 264 l 2,17,18
 768 250 768 250 759 241 c 128,-1,19
 750 232 750 232 736 232 c 2,20,-1
 672 232 l 2,21,22
 658 232 658 232 649 241 c 128,-1,23
 640 250 640 250 640 264 c 2,24,-1
 640 840 l 2,25,26
 640 854 640 854 649 863 c 128,-1,27
 658 872 658 872 672 872 c 2,28,-1
 736 872 l 2,29,30
 750 872 750 872 759 863 c 128,-1,31
 768 854 768 854 768 840 c 2,16,-1
1024 840 m 2,32,-1
 1024 264 l 2,33,34
 1024 250 1024 250 1015 241 c 128,-1,35
 1006 232 1006 232 992 232 c 2,36,-1
 928 232 l 2,37,38
 914 232 914 232 905 241 c 128,-1,39
 896 250 896 250 896 264 c 2,40,-1
 896 840 l 2,41,42
 896 854 896 854 905 863 c 128,-1,43
 914 872 914 872 928 872 c 2,44,-1
 992 872 l 2,45,46
 1006 872 1006 872 1015 863 c 128,-1,47
 1024 854 1024 854 1024 840 c 2,32,-1
1152 116 m 2,48,-1
 1152 1064 l 1,49,-1
 256 1064 l 1,50,-1
 256 116 l 2,51,52
 256 94 256 94 263 75.5 c 128,-1,53
 270 57 270 57 277.5 48.5 c 128,-1,54
 285 40 285 40 288 40 c 2,55,-1
 1120 40 l 2,56,57
 1123 40 1123 40 1130.5 48.5 c 128,-1,58
 1138 57 1138 57 1145 75.5 c 128,-1,59
 1152 94 1152 94 1152 116 c 2,48,-1
480 1192 m 1,60,-1
 928 1192 l 1,61,-1
 880 1309 l 2,62,63
 873 1318 873 1318 863 1320 c 2,64,-1
 546 1320 l 2,65,66
 536 1318 536 1318 529 1309 c 2,67,-1
 480 1192 l 1,60,-1
1408 1160 m 2,68,-1
 1408 1096 l 2,69,70
 1408 1082 1408 1082 1399 1073 c 128,-1,71
 1390 1064 1390 1064 1376 1064 c 2,72,-1
 1280 1064 l 1,73,-1
 1280 116 l 2,74,75
 1280 33 1280 33 1233 -27.5 c 128,-1,76
 1186 -88 1186 -88 1120 -88 c 2,77,-1
 288 -88 l 2,78,79
 222 -88 222 -88 175 -29.5 c 128,-1,80
 128 29 128 29 128 112 c 2,81,-1
 128 1064 l 1,82,-1
 32 1064 l 2,83,84
 18 1064 18 1064 9 1073 c 128,-1,85
 0 1082 0 1082 0 1096 c 2,86,-1
 0 1160 l 2,87,88
 0 1174 0 1174 9 1183 c 128,-1,89
 18 1192 18 1192 32 1192 c 2,90,-1
 341 1192 l 1,91,-1
 411 1359 l 2,92,93
 426 1396 426 1396 465 1422 c 128,-1,94
 504 1448 504 1448 544 1448 c 2,95,-1
 864 1448 l 2,96,97
 904 1448 904 1448 943 1422 c 128,-1,98
 982 1396 982 1396 997 1359 c 2,99,-1
 1067 1192 l 1,100,-1
 1376 1192 l 2,101,102
 1390 1192 1390 1192 1399 1183 c 128,-1,103
 1408 1174 1408 1174 1408 1160 c 2,68,-1
EndSplineSet
Validated: 1
EndChar

StartChar: uniF00A
Encoding: 61450 61450 26
Width: 2048
GlyphClass: 1
Flags: W
LayerCount: 2
Fore
SplineSet
1024 1441 m 128,-1,1
 929 1441 929 1441 838.5 1415.5 c 128,-1,2
 748 1390 748 1390 671 1343.5 c 128,-1,3
 594 1297 594 1297 529.5 1230.5 c 128,-1,4
 465 1164 465 1164 420 1085 c 128,-1,5
 375 1006 375 1006 349.5 913 c 128,-1,6
 324 820 324 820 324 722.5 c 128,-1,7
 324 625 324 625 349.5 531.5 c 128,-1,8
 375 438 375 438 420 359.5 c 128,-1,9
 465 281 465 281 529.5 214.5 c 128,-1,10
 594 148 594 148 671 101.5 c 128,-1,11
 748 55 748 55 838.5 29 c 128,-1,12
 929 3 929 3 1024 3 c 128,-1,13
 1119 3 1119 3 1209.5 29 c 128,-1,14
 1300 55 1300 55 1377 101.5 c 128,-1,15
 1454 148 1454 148 1518.5 214.5 c 128,-1,16
 1583 281 1583 281 1628 359.5 c 128,-1,17
 1673 438 1673 438 1698.5 531.5 c 128,-1,18
 1724 625 1724 625 1724 722.5 c 128,-1,19
 1724 820 1724 820 1698.5 913 c 128,-1,20
 1673 1006 1673 1006 1628 1085 c 128,-1,21
 1583 1164 1583 1164 1518.5 1230.5 c 128,-1,22
 1454 1297 1454 1297 1377 1343.5 c 128,-1,23
 1300 1390 1300 1390 1209.5 1415.5 c 128,-1,0
 1119 1441 1119 1441 1024 1441 c 128,-1,1
1024 1585 m 128,-1,25
 1138 1585 1138 1585 1247 1554 c 128,-1,26
 1356 1523 1356 1523 1448 1467.5 c 128,-1,27
 1540 1412 1540 1412 1617.5 1332 c 128,-1,28
 1695 1252 1695 1252 1749 1158 c 128,-1,29
 1803 1064 1803 1064 1833.5 951.5 c 128,-1,30
 1864 839 1864 839 1864 722 c 128,-1,31
 1864 605 1864 605 1833.5 493 c 128,-1,32
 1803 381 1803 381 1749 286.5 c 128,-1,33
 1695 192 1695 192 1617.5 112.5 c 128,-1,34
 1540 33 1540 33 1448 -22.5 c 128,-1,35
 1356 -78 1356 -78 1247 -109 c 128,-1,36
 1138 -140 1138 -140 1024 -140 c 128,-1,37
 910 -140 910 -140 801 -109 c 128,-1,38
 692 -78 692 -78 600 -22.5 c 128,-1,39
 508 33 508 33 430.5 112.5 c 128,-1,40
 353 192 353 192 299 286.5 c 128,-1,41
 245 381 245 381 214.5 493 c 128,-1,42
 184 605 184 605 184 722 c 128,-1,43
 184 839 184 839 214.5 951.5 c 128,-1,44
 245 1064 245 1064 299 1158 c 128,-1,45
 353 1252 353 1252 430.5 1332 c 128,-1,46
 508 1412 508 1412 600 1467.5 c 128,-1,47
 692 1523 692 1523 801 1554 c 128,-1,24
 910 1585 910 1585 1024 1585 c 128,-1,25
1374 468 m 1,48,-1
 1276 366 l 1,49,-1
 1024 621 l 1,50,-1
 776 363 l 1,51,-1
 677 464 l 1,52,-1
 926 722 l 1,53,-1
 674 977 l 1,54,-1
 772 1079 l 1,55,-1
 1024 824 l 1,56,-1
 1272 1082 l 1,57,-1
 1371 981 l 1,58,-1
 1123 723 l 1,59,-1
 1374 468 l 1,48,-1
EndSplineSet
Validated: 1
EndChar

StartChar: uniF00B
Encoding: 61451 61451 27
Width: 2048
GlyphClass: 1
Flags: W
LayerCount: 2
Fore
SplineSet
647 112 m 1,0,-1
 1930 112 l 1,1,-1
 1930 1319 l 1,2,-1
 647 1319 l 1,3,-1
 118 718 l 1,4,-1
 647 112 l 1,0,-1
1175 609 m 1,5,-1
 980 414 l 1,6,-1
 873 520 l 1,7,-1
 1068 716 l 1,8,-1
 873 911 l 1,9,-1
 980 1017 l 1,10,-1
 1175 822 l 1,11,-1
 1370 1017 l 1,12,-1
 1477 911 l 1,13,-1
 1282 716 l 1,14,-1
 1477 520 l 1,15,-1
 1370 414 l 1,16,-1
 1175 609 l 1,5,-1
EndSplineSet
Validated: 9
EndChar

StartChar: uniF00C
Encoding: 61452 61452 28
Width: 2048
GlyphClass: 1
Flags: W
LayerCount: 2
Fore
SplineSet
1554 261.5 m 128,-1,1
 1554 194 1554 194 1509.5 146.5 c 128,-1,2
 1465 99 1465 99 1402.5 99 c 128,-1,3
 1340 99 1340 99 1295.5 146.5 c 128,-1,4
 1251 194 1251 194 1251 261.5 c 128,-1,5
 1251 329 1251 329 1295.5 377 c 128,-1,6
 1340 425 1340 425 1402.5 425 c 128,-1,7
 1465 425 1465 425 1509.5 377 c 128,-1,0
 1554 329 1554 329 1554 261.5 c 128,-1,1
494 506 m 2,8,9
 400 506 400 506 333.5 434.5 c 128,-1,10
 267 363 267 363 267 262 c 128,-1,11
 267 161 267 161 333.5 89 c 128,-1,12
 400 17 400 17 494 17 c 2,13,-1
 1554 17 l 2,14,15
 1648 17 1648 17 1714.5 89 c 128,-1,16
 1781 161 1781 161 1781 262 c 128,-1,17
 1781 363 1781 363 1714.5 434.5 c 128,-1,18
 1648 506 1648 506 1554 506 c 2,19,-1
 494 506 l 2,8,9
1933 261.5 m 128,-1,21
 1933 151 1933 151 1882 57 c 128,-1,22
 1831 -37 1831 -37 1744 -91.5 c 128,-1,23
 1657 -146 1657 -146 1554 -146 c 2,24,-1
 494 -146 l 2,25,26
 391 -146 391 -146 304 -91.5 c 128,-1,27
 217 -37 217 -37 166 57 c 128,-1,28
 115 151 115 151 115 261.5 c 128,-1,29
 115 372 115 372 166 466 c 128,-1,30
 217 560 217 560 304 614.5 c 128,-1,31
 391 669 391 669 494 669 c 2,32,-1
 1554 669 l 2,33,34
 1657 669 1657 669 1744 614.5 c 128,-1,35
 1831 560 1831 560 1882 466 c 128,-1,20
 1933 372 1933 372 1933 261.5 c 128,-1,21
645.5 1403 m 128,-1,37
 708 1403 708 1403 752.5 1355 c 128,-1,38
 797 1307 797 1307 797 1239.5 c 128,-1,39
 797 1172 797 1172 752.5 1124.5 c 128,-1,40
 708 1077 708 1077 645.5 1077 c 128,-1,41
 583 1077 583 1077 538.5 1124.5 c 128,-1,42
 494 1172 494 1172 494 1239.5 c 128,-1,43
 494 1307 494 1307 538.5 1355 c 128,-1,36
 583 1403 583 1403 645.5 1403 c 128,-1,37
494 1484 m 2,44,45
 400 1484 400 1484 333.5 1412.5 c 128,-1,46
 267 1341 267 1341 267 1240 c 128,-1,47
 267 1139 267 1139 333.5 1067 c 128,-1,48
 400 995 400 995 494 995 c 2,49,-1
 1554 995 l 2,50,51
 1648 995 1648 995 1714.5 1067 c 128,-1,52
 1781 1139 1781 1139 1781 1240 c 128,-1,53
 1781 1341 1781 1341 1714.5 1412.5 c 128,-1,54
 1648 1484 1648 1484 1554 1484 c 2,55,-1
 494 1484 l 2,44,45
1933 1239.5 m 128,-1,57
 1933 1129 1933 1129 1882 1035 c 128,-1,58
 1831 941 1831 941 1744 886.5 c 128,-1,59
 1657 832 1657 832 1554 832 c 2,60,-1
 494 832 l 2,61,62
 391 832 391 832 304 886.5 c 128,-1,63
 217 941 217 941 166 1035 c 128,-1,64
 115 1129 115 1129 115 1239.5 c 128,-1,65
 115 1350 115 1350 166 1444 c 128,-1,66
 217 1538 217 1538 304 1592.5 c 128,-1,67
 391 1647 391 1647 494 1647 c 2,68,-1
 1554 1647 l 2,69,70
 1657 1647 1657 1647 1744 1592.5 c 128,-1,71
 1831 1538 1831 1538 1882 1444 c 128,-1,56
 1933 1350 1933 1350 1933 1239.5 c 128,-1,57
EndSplineSet
Validated: 1
EndChar

StartChar: uniF00D
Encoding: 61453 61453 29
Width: 2048
GlyphClass: 1
Flags: W
LayerCount: 2
Fore
SplineSet
640 640 m 1,0,-1
 640 128 l 1,1,-1
 384 128 l 1,2,-1
 384 640 l 1,3,-1
 640 640 l 1,0,-1
1024 1152 m 1,4,-1
 1024 128 l 1,5,-1
 768 128 l 1,6,-1
 768 1152 l 1,7,-1
 1024 1152 l 1,4,-1
2048 0 m 1,8,-1
 2048 -128 l 1,9,-1
 0 -128 l 1,10,-1
 0 1408 l 1,11,-1
 128 1408 l 1,12,-1
 128 0 l 1,13,-1
 2048 0 l 1,8,-1
1408 896 m 1,14,-1
 1408 128 l 1,15,-1
 1152 128 l 1,16,-1
 1152 896 l 1,17,-1
 1408 896 l 1,14,-1
1792 1280 m 1,18,-1
 1792 128 l 1,19,-1
 1536 128 l 1,20,-1
 1536 1280 l 1,21,-1
 1792 1280 l 1,18,-1
EndSplineSet
Validated: 1
EndChar

StartChar: uniF010
Encoding: 61456 61456 30
Width: 1792
GlyphClass: 1
Flags: W
LayerCount: 2
Fore
SplineSet
1671 970 m 128,-1,1
 1671 930 1671 930 1643 902 c 2,2,-1
 919 178 l 1,3,-1
 783 42 l 2,4,5
 755 14 755 14 715 14 c 128,-1,6
 675 14 675 14 647 42 c 2,7,-1
 511 178 l 1,8,-1
 149 540 l 2,9,10
 121 568 121 568 121 608 c 128,-1,11
 121 648 121 648 149 676 c 2,12,-1
 285 812 l 2,13,14
 313 840 313 840 353 840 c 128,-1,15
 393 840 393 840 421 812 c 2,16,-1
 715 517 l 1,17,-1
 1371 1174 l 2,18,19
 1399 1202 1399 1202 1439 1202 c 128,-1,20
 1479 1202 1479 1202 1507 1174 c 2,21,-1
 1643 1038 l 2,22,0
 1671 1010 1671 1010 1671 970 c 128,-1,1
EndSplineSet
Validated: 1
EndChar

StartChar: uniF011
Encoding: 61457 61457 31
Width: 1408
GlyphClass: 1
Flags: W
LayerCount: 2
Fore
SplineSet
1298 214 m 128,-1,1
 1298 174 1298 174 1270 146 c 2,2,-1
 1134 10 l 2,3,4
 1106 -18 1106 -18 1066 -18 c 128,-1,5
 1026 -18 1026 -18 998 10 c 2,6,-1
 704 304 l 1,7,-1
 410 10 l 2,8,9
 382 -18 382 -18 342 -18 c 128,-1,10
 302 -18 302 -18 274 10 c 2,11,-1
 138 146 l 2,12,13
 110 174 110 174 110 214 c 128,-1,14
 110 254 110 254 138 282 c 2,15,-1
 432 576 l 1,16,-1
 138 870 l 2,17,18
 110 898 110 898 110 938 c 128,-1,19
 110 978 110 978 138 1006 c 2,20,-1
 274 1142 l 2,21,22
 302 1170 302 1170 342 1170 c 128,-1,23
 382 1170 382 1170 410 1142 c 2,24,-1
 704 848 l 1,25,-1
 998 1142 l 2,26,27
 1026 1170 1026 1170 1066 1170 c 128,-1,28
 1106 1170 1106 1170 1134 1142 c 2,29,-1
 1270 1006 l 2,30,31
 1298 978 1298 978 1298 938 c 128,-1,32
 1298 898 1298 898 1270 870 c 2,33,-1
 976 576 l 1,34,-1
 1270 282 l 2,35,0
 1298 254 1298 254 1298 214 c 128,-1,1
EndSplineSet
Validated: 1
EndChar

StartChar: uniF012
Encoding: 61458 61458 32
Width: 1408
GlyphClass: 1
Flags: W
LayerCount: 2
Fore
SplineSet
1366 688 m 2,0,-1
 1366 513 l 2,1,2
 1366 477 1366 477 1339.5 451.5 c 128,-1,3
 1313 426 1313 426 1276 426 c 2,4,-1
 884 426 l 1,5,-1
 884 47 l 2,6,7
 884 11 884 11 858 -14.5 c 128,-1,8
 832 -40 832 -40 794 -40 c 2,9,-1
 614 -40 l 2,10,11
 576 -40 576 -40 550 -14.5 c 128,-1,12
 524 11 524 11 524 47 c 2,13,-1
 524 426 l 1,14,-1
 132 426 l 2,15,16
 95 426 95 426 68.5 451.5 c 128,-1,17
 42 477 42 477 42 513 c 2,18,-1
 42 688 l 2,19,20
 42 724 42 724 68.5 749.5 c 128,-1,21
 95 775 95 775 132 775 c 2,22,-1
 524 775 l 1,23,-1
 524 1154 l 2,24,25
 524 1190 524 1190 550 1215.5 c 128,-1,26
 576 1241 576 1241 614 1241 c 2,27,-1
 794 1241 l 2,28,29
 832 1241 832 1241 858 1215.5 c 128,-1,30
 884 1190 884 1190 884 1154 c 2,31,-1
 884 775 l 1,32,-1
 1276 775 l 2,33,34
 1313 775 1313 775 1339.5 749.5 c 128,-1,35
 1366 724 1366 724 1366 688 c 2,0,-1
EndSplineSet
Validated: 1
EndChar

StartChar: uniF013
Encoding: 61459 61459 33
Width: 1408
GlyphClass: 1
Flags: W
LayerCount: 2
Fore
SplineSet
1408 800 m 2,0,-1
 1408 608 l 2,1,2
 1408 568 1408 568 1380 540 c 128,-1,3
 1352 512 1352 512 1312 512 c 2,4,-1
 96 512 l 2,5,6
 56 512 56 512 28 540 c 128,-1,7
 0 568 0 568 0 608 c 2,8,-1
 0 800 l 2,9,10
 0 840 0 840 28 868 c 128,-1,11
 56 896 56 896 96 896 c 2,12,-1
 1312 896 l 2,13,14
 1352 896 1352 896 1380 868 c 128,-1,15
 1408 840 1408 840 1408 800 c 2,0,-1
EndSplineSet
Validated: 1
EndChar

StartChar: uniF014
Encoding: 61460 61460 34
Width: 1664
GlyphClass: 1
Flags: W
LayerCount: 2
Fore
SplineSet
120 1305 m 1,0,-1
 1546 1305 l 1,1,-1
 1546 1205 l 1,2,-1
 120 1205 l 1,3,-1
 120 1305 l 1,0,-1
1520 497 m 0,4,5
 1520 452 1520 452 1487 417 c 2,6,-1
 1420 350 l 2,7,8
 1386 316 1386 316 1338 316 c 0,9,10
 1289 316 1289 316 1257 350 c 2,11,-1
 992 611 l 1,12,-1
 992 -16 l 2,13,14
 992 -62 992 -62 958.5 -91 c 128,-1,15
 925 -120 925 -120 877 -120 c 2,16,-1
 762 -120 l 2,17,18
 714 -120 714 -120 680.5 -91 c 128,-1,19
 647 -62 647 -62 647 -16 c 2,20,-1
 647 611 l 1,21,-1
 382 350 l 2,22,23
 350 316 350 316 301 316 c 128,-1,24
 252 316 252 316 220 350 c 2,25,-1
 152 417 l 2,26,27
 118 451 118 451 118 497 c 0,28,29
 118 544 118 544 152 578 c 2,30,-1
 738 1157 l 2,31,32
 770 1190 770 1190 819 1190 c 256,33,34
 868 1190 868 1190 901 1157 c 2,35,-1
 1487 578 l 2,36,37
 1520 543 1520 543 1520 497 c 0,4,5
EndSplineSet
Validated: 1
EndChar

StartChar: uniF015
Encoding: 61461 61461 35
Width: 1664
GlyphClass: 1
Flags: W
LayerCount: 2
Fore
SplineSet
1545 -156 m 1,0,-1
 119 -161 l 1,1,-1
 119 -62 l 1,2,-1
 1545 -56 l 1,3,-1
 1545 -156 l 1,0,-1
141 647 m 0,4,5
 141 692 141 692 174 727 c 2,6,-1
 242 794 l 2,7,8
 276 828 276 828 323 828 c 0,9,10
 372 828 372 828 405 795 c 2,11,-1
 670 535 l 1,12,-1
 668 1161 l 2,13,14
 668 1208 668 1208 701.5 1237 c 128,-1,15
 735 1266 735 1266 783 1266 c 2,16,-1
 898 1267 l 2,17,18
 945 1267 945 1267 979 1238 c 128,-1,19
 1013 1209 1013 1209 1013 1163 c 2,20,-1
 1016 536 l 1,21,-1
 1279 798 l 2,22,23
 1312 832 1312 832 1360.5 832 c 128,-1,24
 1409 832 1409 832 1441 799 c 2,25,-1
 1509 732 l 2,26,27
 1543 699 1543 699 1544 652 c 0,28,29
 1544 605 1544 605 1510 571 c 2,30,-1
 926 -11 l 2,31,32
 895 -44 895 -44 845 -44 c 0,33,34
 797 -44 797 -44 763 -11 c 2,35,-1
 175 566 l 2,36,37
 142 601 142 601 141 647 c 0,4,5
EndSplineSet
Validated: 1
EndChar

StartChar: uniF016
Encoding: 61462 61462 36
Width: 1154
GlyphClass: 1
Flags: W
LayerCount: 2
Fore
SplineSet
577 1105 m 256,0,1
 468 1105 468 1105 372 1063 c 128,-1,2
 276 1021 276 1021 204 948.5 c 128,-1,3
 132 876 132 876 90.5 779 c 128,-1,4
 49 682 49 682 49 572 c 256,5,6
 49 462 49 462 90.5 365 c 128,-1,7
 132 268 132 268 204 195 c 128,-1,8
 276 122 276 122 372 80.5 c 128,-1,9
 468 39 468 39 577 39 c 256,10,11
 686 39 686 39 782 80.5 c 128,-1,12
 878 122 878 122 950 195 c 128,-1,13
 1022 268 1022 268 1063.5 365 c 128,-1,14
 1105 462 1105 462 1105 572 c 256,15,16
 1105 682 1105 682 1063.5 779 c 128,-1,17
 1022 876 1022 876 950 948.5 c 128,-1,18
 878 1021 878 1021 782 1063 c 128,-1,19
 686 1105 686 1105 577 1105 c 256,0,1
577 1211 m 256,20,21
 708 1211 708 1211 823.5 1160.5 c 128,-1,22
 939 1110 939 1110 1024.5 1023.5 c 128,-1,23
 1110 937 1110 937 1160.5 820.5 c 128,-1,24
 1211 704 1211 704 1211 572 c 256,25,26
 1211 440 1211 440 1160.5 323.5 c 128,-1,27
 1110 207 1110 207 1024.5 120 c 128,-1,28
 939 33 939 33 823.5 -17.5 c 128,-1,29
 708 -68 708 -68 577 -68 c 256,30,31
 446 -68 446 -68 330.5 -17.5 c 128,-1,32
 215 33 215 33 129.5 120 c 128,-1,33
 44 207 44 207 -6.5 323.5 c 128,-1,34
 -57 440 -57 440 -57 572 c 256,35,36
 -57 704 -57 704 -6.5 820.5 c 128,-1,37
 44 937 44 937 129.5 1023.5 c 128,-1,38
 215 1110 215 1110 330.5 1160.5 c 128,-1,39
 446 1211 446 1211 577 1211 c 256,20,21
511 331 m 1,40,-1
 273 561 l 1,41,-1
 347 637 l 1,42,-1
 510 481 l 1,43,-1
 832 813 l 1,44,-1
 907 737 l 1,45,-1
 511 331 l 1,40,-1
EndSplineSet
Validated: 1
EndChar

StartChar: uniF017
Encoding: 61463 61463 37
Width: 1152
GlyphClass: 1
Flags: W
LayerCount: 2
Fore
SplineSet
576 1091 m 256,0,1
 466 1091 466 1091 369 1050.5 c 128,-1,2
 272 1010 272 1010 199 938.5 c 128,-1,3
 126 867 126 867 84.5 771.5 c 128,-1,4
 43 676 43 676 43 568 c 256,5,6
 43 460 43 460 84.5 364.5 c 128,-1,7
 126 269 126 269 199 198 c 128,-1,8
 272 127 272 127 369 86 c 128,-1,9
 466 45 466 45 576 45 c 256,10,11
 686 45 686 45 783 86 c 128,-1,12
 880 127 880 127 953 198 c 128,-1,13
 1026 269 1026 269 1067.5 364.5 c 128,-1,14
 1109 460 1109 460 1109 568 c 256,15,16
 1109 676 1109 676 1067.5 771.5 c 128,-1,17
 1026 867 1026 867 953 938.5 c 128,-1,18
 880 1010 880 1010 783 1050.5 c 128,-1,19
 686 1091 686 1091 576 1091 c 256,0,1
576 1196 m 256,20,21
 708 1196 708 1196 824.5 1146.5 c 128,-1,22
 941 1097 941 1097 1027.5 1012 c 128,-1,23
 1114 927 1114 927 1164.5 812.5 c 128,-1,24
 1215 698 1215 698 1215 568 c 256,25,26
 1215 438 1215 438 1164.5 324 c 128,-1,27
 1114 210 1114 210 1027.5 124.5 c 128,-1,28
 941 39 941 39 824.5 -10.5 c 128,-1,29
 708 -60 708 -60 576 -60 c 256,30,31
 444 -60 444 -60 327.5 -10.5 c 128,-1,32
 211 39 211 39 124.5 124.5 c 128,-1,33
 38 210 38 210 -12.5 324 c 128,-1,34
 -63 438 -63 438 -63 568 c 256,35,36
 -63 698 -63 698 -12.5 812.5 c 128,-1,37
 38 927 38 927 124.5 1012 c 128,-1,38
 211 1097 211 1097 327.5 1146.5 c 128,-1,39
 444 1196 444 1196 576 1196 c 256,20,21
768 309 m 1,40,-1
 576 495 l 1,41,-1
 387 307 l 1,42,-1
 312 380 l 1,43,-1
 501 568 l 1,44,-1
 310 753 l 1,45,-1
 384 828 l 1,46,-1
 576 642 l 1,47,-1
 765 830 l 1,48,-1
 840 757 l 1,49,-1
 651 568 l 1,50,-1
 842 383 l 1,51,-1
 768 309 l 1,40,-1
EndSplineSet
Validated: 1
EndChar

StartChar: uniF030
Encoding: 61488 61488 38
Width: 1920
GlyphClass: 1
Flags: W
LayerCount: 2
Fore
SplineSet
1280 32 m 0,0,1
 1280 19 1280 19 1270.5 9.5 c 128,-1,2
 1261 0 1261 0 1248 0 c 2,3,-1
 288 0 l 2,4,5
 280 0 280 0 274.5 2 c 128,-1,6
 269 4 269 4 265.5 9 c 128,-1,7
 262 14 262 14 260 17 c 128,-1,8
 258 20 258 20 257 28.5 c 128,-1,9
 256 37 256 37 256 40 c 128,-1,10
 256 43 256 43 256 53 c 128,-1,11
 256 63 256 63 256 64 c 2,12,-1
 256 224 l 1,13,-1
 256 640 l 1,14,-1
 64 640 l 2,15,16
 38 640 38 640 19 659 c 128,-1,17
 0 678 0 678 0 704 c 0,18,19
 0 728 0 728 15 745 c 2,20,-1
 335 1129 l 2,21,22
 354 1151 354 1151 384 1151 c 128,-1,23
 414 1151 414 1151 433 1129 c 2,24,-1
 753 745 l 2,25,26
 768 728 768 728 768 704 c 0,27,28
 768 678 768 678 749 659 c 128,-1,29
 730 640 730 640 704 640 c 2,30,-1
 512 640 l 1,31,-1
 512 256 l 1,32,-1
 1088 256 l 2,33,34
 1104 256 1104 256 1113 245 c 2,35,-1
 1273 53 l 2,36,37
 1280 43 1280 43 1280 32 c 0,0,1
1920 448 m 0,38,39
 1920 424 1920 424 1905 407 c 2,40,-1
 1585 23 l 2,41,42
 1565 0 1565 0 1536 0 c 128,-1,43
 1507 0 1507 0 1487 23 c 2,44,-1
 1167 407 l 2,45,46
 1152 424 1152 424 1152 448 c 0,47,48
 1152 474 1152 474 1171 493 c 128,-1,49
 1190 512 1190 512 1216 512 c 2,50,-1
 1408 512 l 1,51,-1
 1408 896 l 1,52,-1
 832 896 l 2,53,54
 816 896 816 896 807 908 c 2,55,-1
 647 1100 l 2,56,57
 640 1109 640 1109 640 1120 c 0,58,59
 640 1133 640 1133 649.5 1142.5 c 128,-1,60
 659 1152 659 1152 672 1152 c 2,61,-1
 1632 1152 l 2,62,63
 1640 1152 1640 1152 1645.5 1150 c 128,-1,64
 1651 1148 1651 1148 1654.5 1143 c 128,-1,65
 1658 1138 1658 1138 1660 1135 c 128,-1,66
 1662 1132 1662 1132 1663 1123.5 c 128,-1,67
 1664 1115 1664 1115 1664 1112 c 128,-1,68
 1664 1109 1664 1109 1664 1099 c 128,-1,69
 1664 1089 1664 1089 1664 1088 c 2,70,-1
 1664 928 l 1,71,-1
 1664 512 l 1,72,-1
 1856 512 l 2,73,74
 1882 512 1882 512 1901 493 c 128,-1,75
 1920 474 1920 474 1920 448 c 0,38,39
EndSplineSet
Validated: 1
EndChar

StartChar: uniF031
Encoding: 61489 61489 39
Width: 1920
GlyphClass: 1
Flags: W
LayerCount: 2
Fore
SplineSet
896 640 m 128,-1,1
 896 746 896 746 821 821 c 128,-1,2
 746 896 746 896 640 896 c 128,-1,3
 534 896 534 896 459 821 c 128,-1,4
 384 746 384 746 384 640 c 128,-1,5
 384 534 384 534 459 459 c 128,-1,6
 534 384 534 384 640 384 c 128,-1,7
 746 384 746 384 821 459 c 128,-1,0
 896 534 896 534 896 640 c 128,-1,1
1664 128 m 0,8,9
 1664 180 1664 180 1626 218 c 128,-1,10
 1588 256 1588 256 1536 256 c 128,-1,11
 1484 256 1484 256 1446 218 c 128,-1,12
 1408 180 1408 180 1408 128 c 0,13,14
 1408 75 1408 75 1445.5 37.5 c 128,-1,15
 1483 0 1483 0 1536 0 c 128,-1,16
 1589 0 1589 0 1626.5 37.5 c 128,-1,17
 1664 75 1664 75 1664 128 c 0,8,9
1664 1152 m 0,18,19
 1664 1204 1664 1204 1626 1242 c 128,-1,20
 1588 1280 1588 1280 1536 1280 c 128,-1,21
 1484 1280 1484 1280 1446 1242 c 128,-1,22
 1408 1204 1408 1204 1408 1152 c 0,23,24
 1408 1099 1408 1099 1445.5 1061.5 c 128,-1,25
 1483 1024 1483 1024 1536 1024 c 128,-1,26
 1589 1024 1589 1024 1626.5 1061.5 c 128,-1,27
 1664 1099 1664 1099 1664 1152 c 0,18,19
1280 731 m 2,28,-1
 1280 546 l 2,29,30
 1280 536 1280 536 1273 526.5 c 128,-1,31
 1266 517 1266 517 1257 516 c 2,32,-1
 1102 492 l 1,33,34
 1091 457 1091 457 1070 416 c 1,35,36
 1104 368 1104 368 1160 301 c 0,37,38
 1167 290 1167 290 1167 281 c 0,39,40
 1167 269 1167 269 1160 262 c 0,41,42
 1137 232 1137 232 1077.5 172.5 c 128,-1,43
 1018 113 1018 113 999 113 c 0,44,45
 988 113 988 113 978 120 c 2,46,-1
 863 210 l 1,47,48
 826 191 826 191 786 179 c 1,49,50
 775 71 775 71 763 24 c 0,51,52
 756 0 756 0 733 0 c 2,53,-1
 547 0 l 2,54,55
 536 0 536 0 527 7.5 c 128,-1,56
 518 15 518 15 517 25 c 2,57,-1
 494 178 l 1,58,59
 460 188 460 188 419 209 c 1,60,-1
 301 120 l 2,61,62
 294 113 294 113 281 113 c 0,63,64
 270 113 270 113 260 121 c 0,65,66
 116 254 116 254 116 281 c 0,67,68
 116 290 116 290 123 300 c 0,69,70
 133 314 133 314 164 353 c 128,-1,71
 195 392 195 392 211 414 c 1,72,73
 188 458 188 458 176 496 c 1,74,-1
 24 520 l 2,75,76
 14 521 14 521 7 529.5 c 128,-1,77
 0 538 0 538 0 549 c 2,78,-1
 0 734 l 2,79,80
 0 744 0 744 7 753.5 c 128,-1,81
 14 763 14 763 23 764 c 2,82,-1
 178 788 l 1,83,84
 189 823 189 823 210 864 c 1,85,86
 176 912 176 912 120 979 c 0,87,88
 113 990 113 990 113 999 c 0,89,90
 113 1011 113 1011 120 1019 c 0,91,92
 142 1049 142 1049 202 1108 c 128,-1,93
 262 1167 262 1167 281 1167 c 0,94,95
 292 1167 292 1167 302 1160 c 2,96,-1
 417 1070 l 1,97,98
 451 1088 451 1088 494 1102 c 1,99,100
 505 1210 505 1210 517 1256 c 0,101,102
 524 1280 524 1280 547 1280 c 2,103,-1
 733 1280 l 2,104,105
 744 1280 744 1280 753 1272.5 c 128,-1,106
 762 1265 762 1265 763 1255 c 2,107,-1
 786 1102 l 1,108,109
 820 1092 820 1092 861 1071 c 1,110,-1
 979 1160 l 2,111,112
 987 1167 987 1167 999 1167 c 0,113,114
 1010 1167 1010 1167 1020 1159 c 0,115,116
 1164 1026 1164 1026 1164 999 c 0,117,118
 1164 991 1164 991 1157 980 c 0,119,120
 1145 964 1145 964 1115 926 c 128,-1,121
 1085 888 1085 888 1070 866 c 1,122,123
 1093 818 1093 818 1104 784 c 1,124,-1
 1256 761 l 2,125,126
 1266 759 1266 759 1273 750.5 c 128,-1,127
 1280 742 1280 742 1280 731 c 2,28,-1
1920 198 m 2,128,-1
 1920 58 l 2,129,130
 1920 42 1920 42 1771 27 c 1,131,132
 1759 0 1759 0 1741 -25 c 1,133,134
 1792 -138 1792 -138 1792 -163 c 0,135,136
 1792 -167 1792 -167 1788 -170 c 0,137,138
 1666 -241 1666 -241 1664 -241 c 0,139,140
 1656 -241 1656 -241 1618 -194 c 128,-1,141
 1580 -147 1580 -147 1566 -126 c 1,142,143
 1546 -128 1546 -128 1536 -128 c 128,-1,144
 1526 -128 1526 -128 1506 -126 c 1,145,146
 1492 -147 1492 -147 1454 -194 c 128,-1,147
 1416 -241 1416 -241 1408 -241 c 0,148,149
 1406 -241 1406 -241 1284 -170 c 0,150,151
 1280 -167 1280 -167 1280 -163 c 0,152,153
 1280 -138 1280 -138 1331 -25 c 1,154,155
 1313 0 1313 0 1301 27 c 1,156,157
 1152 42 1152 42 1152 58 c 2,158,-1
 1152 198 l 2,159,160
 1152 214 1152 214 1301 229 c 1,161,162
 1314 258 1314 258 1331 281 c 1,163,164
 1280 394 1280 394 1280 419 c 0,165,166
 1280 423 1280 423 1284 426 c 0,167,168
 1288 428 1288 428 1319 446 c 128,-1,169
 1350 464 1350 464 1378 480 c 128,-1,170
 1406 496 1406 496 1408 496 c 0,171,172
 1416 496 1416 496 1454 449.5 c 128,-1,173
 1492 403 1492 403 1506 382 c 1,174,175
 1526 384 1526 384 1536 384 c 128,-1,176
 1546 384 1546 384 1566 382 c 1,177,178
 1617 453 1617 453 1658 494 c 1,179,-1
 1664 496 l 2,180,181
 1668 496 1668 496 1788 426 c 0,182,183
 1792 423 1792 423 1792 419 c 0,184,185
 1792 394 1792 394 1741 281 c 1,186,187
 1758 258 1758 258 1771 229 c 1,188,189
 1920 214 1920 214 1920 198 c 2,128,-1
1920 1222 m 2,190,-1
 1920 1082 l 2,191,192
 1920 1066 1920 1066 1771 1051 c 1,193,194
 1759 1024 1759 1024 1741 999 c 1,195,196
 1792 886 1792 886 1792 861 c 0,197,198
 1792 857 1792 857 1788 854 c 0,199,200
 1666 783 1666 783 1664 783 c 0,201,202
 1656 783 1656 783 1618 830 c 128,-1,203
 1580 877 1580 877 1566 898 c 1,204,205
 1546 896 1546 896 1536 896 c 128,-1,206
 1526 896 1526 896 1506 898 c 1,207,208
 1492 877 1492 877 1454 830 c 128,-1,209
 1416 783 1416 783 1408 783 c 0,210,211
 1406 783 1406 783 1284 854 c 0,212,213
 1280 857 1280 857 1280 861 c 0,214,215
 1280 886 1280 886 1331 999 c 1,216,217
 1313 1024 1313 1024 1301 1051 c 1,218,219
 1152 1066 1152 1066 1152 1082 c 2,220,-1
 1152 1222 l 2,221,222
 1152 1238 1152 1238 1301 1253 c 1,223,224
 1314 1282 1314 1282 1331 1305 c 1,225,226
 1280 1418 1280 1418 1280 1443 c 0,227,228
 1280 1447 1280 1447 1284 1450 c 0,229,230
 1288 1452 1288 1452 1319 1470 c 128,-1,231
 1350 1488 1350 1488 1378 1504 c 128,-1,232
 1406 1520 1406 1520 1408 1520 c 0,233,234
 1416 1520 1416 1520 1454 1473.5 c 128,-1,235
 1492 1427 1492 1427 1506 1406 c 1,236,237
 1526 1408 1526 1408 1536 1408 c 128,-1,238
 1546 1408 1546 1408 1566 1406 c 1,239,240
 1617 1477 1617 1477 1658 1518 c 1,241,-1
 1664 1520 l 2,242,243
 1668 1520 1668 1520 1788 1450 c 0,244,245
 1792 1447 1792 1447 1792 1443 c 0,246,247
 1792 1418 1792 1418 1741 1305 c 1,248,249
 1758 1282 1758 1282 1771 1253 c 1,250,251
 1920 1238 1920 1238 1920 1222 c 2,190,-1
EndSplineSet
Validated: 1
EndChar

StartChar: uniF032
Encoding: 61490 61490 40
Width: 1280
GlyphClass: 1
Flags: W
LayerCount: 2
Fore
SplineSet
1107 659 m 2,0,-1
 365 -83 l 2,1,2
 346 -102 346 -102 320 -102 c 128,-1,3
 294 -102 294 -102 275 -83 c 2,4,-1
 109 83 l 2,5,6
 90 102 90 102 90 128 c 128,-1,7
 90 154 90 154 109 173 c 2,8,-1
 640 704 l 1,9,-1
 109 1235 l 2,10,11
 90 1254 90 1254 90 1280 c 128,-1,12
 90 1306 90 1306 109 1325 c 2,13,-1
 275 1491 l 2,14,15
 294 1510 294 1510 320 1510 c 128,-1,16
 346 1510 346 1510 365 1491 c 2,17,-1
 1107 749 l 2,18,19
 1126 730 1126 730 1126 704 c 128,-1,20
 1126 678 1126 678 1107 659 c 2,0,-1
EndSplineSet
Validated: 1
EndChar

StartChar: uniF033
Encoding: 61491 61491 41
Width: 1792
GlyphClass: 1
Flags: W
LayerCount: 2
Fore
SplineSet
896 545 m 128,-1,1
 958 545 958 545 1002 500.5 c 128,-1,2
 1046 456 1046 456 1046 394 c 0,3,4
 1046 353 1046 353 1025.5 318.5 c 128,-1,5
 1005 284 1005 284 971 264 c 1,6,-1
 971 130 l 2,7,8
 971 113 971 113 960.5 102.5 c 128,-1,9
 950 92 950 92 933 92 c 2,10,-1
 859 92 l 2,11,12
 842 92 842 92 831.5 102.5 c 128,-1,13
 821 113 821 113 821 130 c 2,14,-1
 821 264 l 1,15,16
 787 284 787 284 766.5 318.5 c 128,-1,17
 746 353 746 353 746 394 c 0,18,19
 746 456 746 456 790 500.5 c 128,-1,0
 834 545 834 545 896 545 c 128,-1,1
484 885 m 2,20,-1
 484 772 l 2,21,22
 484 755 484 755 494.5 744.5 c 128,-1,23
 505 734 505 734 522 734 c 2,24,-1
 596 734 l 2,25,26
 613 734 613 734 623.5 744.5 c 128,-1,27
 634 755 634 755 634 772 c 2,28,-1
 634 885 l 2,29,30
 634 995 634 995 710.5 1072 c 128,-1,31
 787 1149 787 1149 896 1149 c 128,-1,32
 1005 1149 1005 1149 1081.5 1072 c 128,-1,33
 1158 995 1158 995 1158 885 c 2,34,-1
 1158 772 l 2,35,36
 1158 755 1158 755 1168.5 744.5 c 128,-1,37
 1179 734 1179 734 1196 734 c 2,38,-1
 1270 734 l 2,39,40
 1287 734 1287 734 1297.5 744.5 c 128,-1,41
 1308 755 1308 755 1308 772 c 2,42,-1
 1308 885 l 2,43,44
 1308 1057 1308 1057 1187.5 1178.5 c 128,-1,45
 1067 1300 1067 1300 896 1300 c 128,-1,46
 725 1300 725 1300 604.5 1178.5 c 128,-1,47
 484 1057 484 1057 484 885 c 2,20,-1
1495 16 m 2,48,-1
 1495 620 l 2,49,50
 1495 651 1495 651 1473 673.5 c 128,-1,51
 1451 696 1451 696 1420 696 c 2,52,-1
 372 696 l 2,53,54
 341 696 341 696 319 673.5 c 128,-1,55
 297 651 297 651 297 620 c 2,56,-1
 297 16 l 2,57,58
 297 -14 297 -14 319 -36.5 c 128,-1,59
 341 -59 341 -59 372 -59 c 2,60,-1
 1420 -59 l 2,61,62
 1451 -59 1451 -59 1473 -36.5 c 128,-1,63
 1495 -14 1495 -14 1495 16 c 2,48,-1
EndSplineSet
Validated: 9
EndChar

StartChar: uniF034
Encoding: 61492 61492 42
Width: 1152
GlyphClass: 1
Flags: W
LayerCount: 2
Fore
SplineSet
576 1119 m 256,0,1
 461 1119 461 1119 359.5 1076 c 128,-1,2
 258 1033 258 1033 182 958.5 c 128,-1,3
 106 884 106 884 62.5 784.5 c 128,-1,4
 19 685 19 685 19 572 c 256,5,6
 19 459 19 459 62.5 359 c 128,-1,7
 106 259 106 259 182 184.5 c 128,-1,8
 258 110 258 110 359.5 67.5 c 128,-1,9
 461 25 461 25 576 25 c 256,10,11
 691 25 691 25 792.5 67.5 c 128,-1,12
 894 110 894 110 970 184.5 c 128,-1,13
 1046 259 1046 259 1089.5 359 c 128,-1,14
 1133 459 1133 459 1133 572 c 256,15,16
 1133 685 1133 685 1089.5 784.5 c 128,-1,17
 1046 884 1046 884 970 958.5 c 128,-1,18
 894 1033 894 1033 792.5 1076 c 128,-1,19
 691 1119 691 1119 576 1119 c 256,0,1
576 1228 m 256,20,21
 714 1228 714 1228 836 1176.5 c 128,-1,22
 958 1125 958 1125 1048.5 1036 c 128,-1,23
 1139 947 1139 947 1191.5 827 c 128,-1,24
 1244 707 1244 707 1244 572 c 0,25,26
 1244 436 1244 436 1191.5 316.5 c 128,-1,27
 1139 197 1139 197 1048.5 108 c 128,-1,28
 958 19 958 19 836 -33 c 128,-1,29
 714 -85 714 -85 576 -85 c 256,30,31
 438 -85 438 -85 316 -33 c 128,-1,32
 194 19 194 19 103.5 108 c 128,-1,33
 13 197 13 197 -39.5 316.5 c 128,-1,34
 -92 436 -92 436 -92 572 c 0,35,36
 -92 707 -92 707 -39.5 827 c 128,-1,37
 13 947 13 947 103.5 1036 c 128,-1,38
 194 1125 194 1125 316 1176.5 c 128,-1,39
 438 1228 438 1228 576 1228 c 256,20,21
910 572 m 1,40,-1
 910 462 l 1,41,-1
 520 462 l 1,42,-1
 520 900 l 1,43,-1
 632 900 l 1,44,-1
 632 572 l 1,45,-1
 910 572 l 1,40,-1
EndSplineSet
Validated: 1
EndChar

StartChar: uniF035
Encoding: 61493 61493 43
Width: 1536
GlyphClass: 1
Flags: W
LayerCount: 2
Fore
SplineSet
1245 1176 m 1,0,1
 1245 974 1245 974 1165.5 818.5 c 128,-1,2
 1086 663 1086 663 967 581 c 1,3,4
 1086 498 1086 498 1165.5 343 c 128,-1,5
 1245 188 1245 188 1245 -15 c 1,6,-1
 1316 -15 l 2,7,8
 1327 -15 1327 -15 1333.5 -22 c 128,-1,9
 1340 -29 1340 -29 1340 -39 c 2,10,-1
 1340 -89 l 2,11,12
 1340 -100 1340 -100 1333.5 -107 c 128,-1,13
 1327 -114 1327 -114 1316 -114 c 2,14,-1
 220 -114 l 2,15,16
 209 -114 209 -114 202.5 -107 c 128,-1,17
 196 -100 196 -100 196 -89 c 2,18,-1
 196 -39 l 2,19,20
 196 -29 196 -29 202.5 -22 c 128,-1,21
 209 -15 209 -15 220 -15 c 2,22,-1
 291 -15 l 1,23,24
 291 188 291 188 370.5 343 c 128,-1,25
 450 498 450 498 569 581 c 1,26,27
 450 663 450 663 370.5 818.5 c 128,-1,28
 291 974 291 974 291 1176 c 1,29,-1
 220 1176 l 2,30,31
 209 1176 209 1176 202.5 1183 c 128,-1,32
 196 1190 196 1190 196 1201 c 2,33,-1
 196 1250 l 2,34,35
 196 1261 196 1261 202.5 1268 c 128,-1,36
 209 1275 209 1275 220 1275 c 2,37,-1
 1316 1275 l 2,38,39
 1327 1275 1327 1275 1333.5 1268 c 128,-1,40
 1340 1261 1340 1261 1340 1250 c 2,41,-1
 1340 1201 l 2,42,43
 1340 1190 1340 1190 1333.5 1183 c 128,-1,44
 1327 1176 1327 1176 1316 1176 c 2,45,-1
 1245 1176 l 1,0,1
1149 1176 m 1,46,-1
 387 1176 l 1,47,48
 387 1016 387 1016 450 878 c 1,49,-1
 1086 878 l 1,50,51
 1149 1016 1149 1016 1149 1176 c 1,46,-1
1107 233 m 1,52,53
 1067 343 1067 343 998.5 420.5 c 128,-1,54
 930 498 930 498 854 531 c 1,55,-1
 682 531 l 1,56,57
 606 498 606 498 537.5 420.5 c 128,-1,58
 469 343 469 343 429 233 c 1,59,-1
 1107 233 l 1,52,53
EndSplineSet
Validated: 1
EndChar

StartChar: uniF036
Encoding: 61494 61494 44
Width: 1792
GlyphClass: 1
Flags: W
LayerCount: 2
Fore
SplineSet
650 545 m 128,-1,1
 712 545 712 545 756 500.5 c 128,-1,2
 800 456 800 456 800 394 c 0,3,4
 800 353 800 353 779.5 318.5 c 128,-1,5
 759 284 759 284 725 264 c 1,6,-1
 725 130 l 2,7,8
 725 113 725 113 714.5 102.5 c 128,-1,9
 704 92 704 92 688 92 c 2,10,-1
 613 92 l 2,11,12
 596 92 596 92 585.5 102.5 c 128,-1,13
 575 113 575 113 575 130 c 2,14,-1
 575 264 l 1,15,16
 541 284 541 284 520.5 318.5 c 128,-1,17
 500 353 500 353 500 394 c 0,18,19
 500 456 500 456 544 500.5 c 128,-1,0
 588 545 588 545 650 545 c 128,-1,1
917 887 m 2,20,-1
 917 773 l 2,21,22
 917 757 917 757 927.5 746.5 c 128,-1,23
 938 736 938 736 955 736 c 2,24,-1
 1030 736 l 2,25,26
 1046 736 1046 736 1056 746 c 0,27,28
 1067 757 1067 757 1067 773 c 2,29,-1
 1067 887 l 2,30,31
 1067 996 1067 996 1144 1074 c 0,32,33
 1220 1151 1220 1151 1329 1151 c 128,-1,34
 1438 1151 1438 1151 1515 1074 c 0,35,36
 1591 996 1591 996 1591 887 c 2,37,-1
 1591 773 l 2,38,39
 1591 757 1591 757 1601.5 746.5 c 128,-1,40
 1612 736 1612 736 1629 736 c 2,41,-1
 1704 736 l 2,42,43
 1720 736 1720 736 1730 746 c 0,44,45
 1741 757 1741 757 1741 773 c 2,46,-1
 1741 887 l 2,47,48
 1741 1059 1741 1059 1620 1180 c 0,49,50
 1500 1302 1500 1302 1329 1302 c 128,-1,51
 1158 1302 1158 1302 1038 1180 c 0,52,53
 917 1059 917 1059 917 887 c 2,20,-1
1249 16 m 2,54,-1
 1249 620 l 2,55,56
 1249 651 1249 651 1227 673.5 c 128,-1,57
 1205 696 1205 696 1174 696 c 2,58,-1
 126 696 l 2,59,60
 96 696 96 696 73.5 673.5 c 128,-1,61
 51 651 51 651 51 620 c 2,62,-1
 51 16 l 2,63,64
 51 -14 51 -14 73.5 -36.5 c 128,-1,65
 96 -59 96 -59 126 -59 c 2,66,-1
 1174 -59 l 2,67,68
 1205 -59 1205 -59 1227 -36.5 c 128,-1,69
 1249 -14 1249 -14 1249 16 c 2,54,-1
EndSplineSet
Validated: 9
EndChar

StartChar: uniF037
Encoding: 61495 61495 45
Width: 1536
GlyphClass: 1
Flags: W
LayerCount: 2
Fore
SplineSet
1536 640 m 128,-1,1
 1536 484 1536 484 1475 342 c 128,-1,2
 1414 200 1414 200 1311 97 c 128,-1,3
 1208 -6 1208 -6 1066 -67 c 128,-1,4
 924 -128 924 -128 768 -128 c 0,5,6
 596 -128 596 -128 441 -55.5 c 128,-1,7
 286 17 286 17 177 149 c 0,8,9
 170 159 170 159 170.5 171.5 c 128,-1,10
 171 184 171 184 179 192 c 2,11,-1
 316 330 l 2,12,13
 326 339 326 339 341 339 c 0,14,15
 357 337 357 337 364 327 c 0,16,17
 437 232 437 232 543 180 c 128,-1,18
 649 128 649 128 768 128 c 0,19,20
 872 128 872 128 966.5 168.5 c 128,-1,21
 1061 209 1061 209 1130 278 c 128,-1,22
 1199 347 1199 347 1239.5 441.5 c 128,-1,23
 1280 536 1280 536 1280 640 c 128,-1,24
 1280 744 1280 744 1239.5 838.5 c 128,-1,25
 1199 933 1199 933 1130 1002 c 128,-1,26
 1061 1071 1061 1071 966.5 1111.5 c 128,-1,27
 872 1152 872 1152 768 1152 c 0,28,29
 670 1152 670 1152 580 1116.5 c 128,-1,30
 490 1081 490 1081 420 1015 c 1,31,-1
 557 877 l 2,32,33
 588 847 588 847 571 808 c 0,34,35
 554 768 554 768 512 768 c 2,36,-1
 64 768 l 2,37,38
 38 768 38 768 19 787 c 128,-1,39
 0 806 0 806 0 832 c 2,40,-1
 0 1280 l 2,41,42
 0 1322 0 1322 40 1339 c 0,43,44
 79 1356 79 1356 109 1325 c 2,45,-1
 239 1196 l 1,46,47
 346 1297 346 1297 483.5 1352.5 c 128,-1,48
 621 1408 621 1408 768 1408 c 0,49,50
 924 1408 924 1408 1066 1347 c 128,-1,51
 1208 1286 1208 1286 1311 1183 c 128,-1,52
 1414 1080 1414 1080 1475 938 c 128,-1,0
 1536 796 1536 796 1536 640 c 128,-1,1
896 928 m 2,53,-1
 896 480 l 2,54,55
 896 466 896 466 887 457 c 128,-1,56
 878 448 878 448 864 448 c 2,57,-1
 544 448 l 2,58,59
 530 448 530 448 521 457 c 128,-1,60
 512 466 512 466 512 480 c 2,61,-1
 512 544 l 2,62,63
 512 558 512 558 521 567 c 128,-1,64
 530 576 530 576 544 576 c 2,65,-1
 768 576 l 1,66,-1
 768 928 l 2,67,68
 768 942 768 942 777 951 c 128,-1,69
 786 960 786 960 800 960 c 2,70,-1
 864 960 l 2,71,72
 878 960 878 960 887 951 c 128,-1,73
 896 942 896 942 896 928 c 2,53,-1
EndSplineSet
Validated: 33
EndChar

StartChar: uniF040
Encoding: 61504 61504 46
Width: 2613
GlyphClass: 1
Flags: W
LayerCount: 2
Fore
SplineSet
17 426 m 0,0,1
 17 465 17 465 49 498 c 1,2,3
 85 528 85 528 123 528 c 2,4,-1
 368 528 l 2,5,6
 410 528 410 528 438.5 498 c 128,-1,7
 467 468 467 468 467 426 c 0,8,9
 467 381 467 381 438.5 351 c 128,-1,10
 410 321 410 321 368 321 c 2,11,-1
 123 321 l 2,12,13
 81 321 81 321 49 352.5 c 128,-1,14
 17 384 17 384 17 426 c 0,0,1
368 1250 m 0,15,16
 368 1291 368 1291 395 1320 c 1,17,18
 431 1350 431 1350 469 1350 c 0,19,20
 511 1350 511 1350 541 1320 c 2,21,-1
 714 1150 l 2,22,23
 743 1116 743 1116 743 1078 c 0,24,25
 743 1035 743 1035 714.5 1006 c 128,-1,26
 686 977 686 977 646 977 c 0,27,28
 607 977 607 977 572 1007 c 2,29,-1
 395 1174 l 1,30,31
 368 1207 368 1207 368 1250 c 0,15,16
578 -144 m 0,32,33
 578 -101 578 -101 608 -74 c 0,34,35
 636 -46 636 -46 680 -46 c 2,36,-1
 957 -46 l 1,37,-1
 1285 256 l 2,38,39
 1301 268 1301 268 1320 256 c 2,40,-1
 1653 -46 l 1,41,-1
 1944 -46 l 2,42,43
 1986 -46 1986 -46 2016 -75 c 128,-1,44
 2046 -104 2046 -104 2046 -144 c 0,45,46
 2046 -186 2046 -186 2016 -216 c 128,-1,47
 1986 -246 1986 -246 1944 -246 c 2,48,-1
 1588 -246 l 2,49,50
 1572 -246 1572 -246 1557 -238 c 1,51,-1
 1304 -4 l 1,52,-1
 1052 -238 l 2,53,54
 1039 -246 1039 -246 1022 -246 c 2,55,-1
 680 -246 l 2,56,57
 638 -246 638 -246 608 -216 c 128,-1,58
 578 -186 578 -186 578 -144 c 0,32,33
675 426 m 0,59,60
 675 276 675 276 740 153 c 1,61,62
 744 135 744 135 767 135 c 2,63,-1
 965 135 l 2,64,65
 977 135 977 135 981 143.5 c 128,-1,66
 985 152 985 152 979 163 c 0,67,68
 878 282 878 282 878 426 c 0,69,70
 878 600 878 600 1004.5 722 c 128,-1,71
 1131 844 1131 844 1308 844 c 256,72,73
 1485 844 1485 844 1610 722 c 128,-1,74
 1735 600 1735 600 1735 426 c 0,75,76
 1735 281 1735 281 1635 163 c 0,77,78
 1628 152 1628 152 1631.5 143.5 c 128,-1,79
 1635 135 1635 135 1648 135 c 2,80,-1
 1848 135 l 2,81,82
 1869 135 1869 135 1873 153 c 1,83,84
 1938 272 1938 272 1938 426 c 0,85,86
 1938 552 1938 552 1887.5 666 c 128,-1,87
 1837 780 1837 780 1752.5 863 c 128,-1,88
 1668 946 1668 946 1552 995 c 128,-1,89
 1436 1044 1436 1044 1308 1044 c 256,90,91
 1180 1044 1180 1044 1063.5 995 c 128,-1,92
 947 946 947 946 861.5 863 c 128,-1,93
 776 780 776 780 725.5 666 c 128,-1,94
 675 552 675 552 675 426 c 0,59,60
1204 1350 m 2,95,-1
 1204 1588 l 2,96,97
 1204 1632 1204 1632 1233.5 1660.5 c 128,-1,98
 1263 1689 1263 1689 1308 1689 c 256,99,100
 1353 1689 1353 1689 1382 1660 c 128,-1,101
 1411 1631 1411 1631 1411 1588 c 2,102,-1
 1411 1350 l 2,103,104
 1411 1306 1411 1306 1382 1277.5 c 128,-1,105
 1353 1249 1353 1249 1308 1249 c 256,106,107
 1263 1249 1263 1249 1233.5 1277.5 c 128,-1,108
 1204 1306 1204 1306 1204 1350 c 2,95,-1
1872 1078 m 0,109,110
 1872 1117 1872 1117 1900 1150 c 2,111,-1
 2071 1320 l 2,112,113
 2101 1350 2101 1350 2144.5 1350 c 128,-1,114
 2188 1350 2188 1350 2217.5 1320.5 c 128,-1,115
 2247 1291 2247 1291 2247 1250 c 0,116,117
 2247 1205 2247 1205 2220 1174 c 1,118,-1
 2042 1007 l 2,119,120
 2009 977 2009 977 1968 977 c 0,121,122
 1926 977 1926 977 1899 1005.5 c 128,-1,123
 1872 1034 1872 1034 1872 1078 c 0,109,110
2147 426 m 0,124,125
 2147 468 2147 468 2175 498 c 128,-1,126
 2203 528 2203 528 2244 528 c 2,127,-1
 2492 528 l 2,128,129
 2534 528 2534 528 2565 498 c 128,-1,130
 2596 468 2596 468 2596 426 c 0,131,132
 2596 383 2596 383 2565 352 c 128,-1,133
 2534 321 2534 321 2492 321 c 2,134,-1
 2244 321 l 2,135,136
 2202 321 2202 321 2174.5 351 c 128,-1,137
 2147 381 2147 381 2147 426 c 0,124,125
EndSplineSet
Validated: 9
EndChar

StartChar: uniF041
Encoding: 61505 61505 47
Width: 1549
GlyphClass: 1
Flags: W
LayerCount: 2
Fore
SplineSet
20 514 m 0,0,1
 20 664 20 664 80 801 c 128,-1,2
 140 938 140 938 241.5 1038 c 128,-1,3
 343 1138 343 1138 483 1197.5 c 128,-1,4
 623 1257 623 1257 777 1257 c 2,5,-1
 899 1257 l 1,6,7
 925 1250 925 1250 925 1228 c 2,8,-1
 928 1136 l 2,9,10
 934 937 934 937 1075 796 c 128,-1,11
 1216 655 1216 655 1416 648 c 1,12,-1
 1505 641 l 2,13,14
 1529 641 1529 641 1529 617 c 2,15,-1
 1529 514 l 2,16,17
 1530 357 1530 357 1468 217 c 1,18,-1
 1255 217 l 1,19,20
 1334 331 1334 331 1355 475 c 1,21,22
 1094 528 1094 528 936.5 694.5 c 128,-1,23
 779 861 779 861 755 1085 c 1,24,25
 604 1078 604 1078 478.5 994.5 c 128,-1,26
 353 911 353 911 284.5 783 c 128,-1,27
 216 655 216 655 216 514 c 0,28,29
 216 351 216 351 303 217 c 1,30,-1
 82 217 l 1,31,32
 20 358 20 358 20 514 c 0,0,1
49 -98 m 0,33,34
 49 -55 49 -55 79 -29 c 0,35,36
 106 -2 106 -2 151 -2 c 2,37,-1
 425 -2 l 1,38,-1
 747 296 l 2,39,40
 763 309 763 309 783 296 c 2,41,-1
 1112 -2 l 1,42,-1
 1399 -2 l 2,43,44
 1441 -2 1441 -2 1471 -30 c 128,-1,45
 1501 -58 1501 -58 1501 -98 c 0,46,47
 1501 -140 1501 -140 1471 -169.5 c 128,-1,48
 1441 -199 1441 -199 1399 -199 c 2,49,-1
 1047 -199 l 2,50,51
 1032 -199 1032 -199 1017 -191 c 1,52,-1
 767 40 l 1,53,-1
 518 -191 l 2,54,55
 505 -199 505 -199 489 -199 c 2,56,-1
 151 -199 l 2,57,58
 109 -199 109 -199 79 -169.5 c 128,-1,59
 49 -140 49 -140 49 -98 c 0,33,34
EndSplineSet
Validated: 33
EndChar

StartChar: uniF053
Encoding: 61523 61523 48
Width: 2048
GlyphClass: 2
Flags: W
LayerCount: 2
Fore
SplineSet
1285 1383 m 0,0,1
 1490 1358 1490 1358 1635 1214 c 0,2,3
 1664 1185 1664 1185 1687 1154 c 0,4,5
 1794 1008 1794 1008 1792 823 c 0,6,7
 1792 796 1792 796 1792 795 c 0,8,9
 1792 740 1792 740 1792 686 c 0,10,11
 1792 656 1792 656 1786 643 c 0,12,13
 1776 620 1776 620 1750 608 c 0,14,15
 1734 601 1734 601 1718 604 c 0,16,17
 1672 612 1672 612 1664 658 c 0,18,19
 1656 708 1656 708 1624 765 c 0,20,21
 1580 842 1580 842 1510 896 c 0,22,23
 1410 973 1410 973 1283 993 c 1,24,-1
 1283 993 l 1,25,26
 1280 993 1280 993 1280 991 c 1,27,-1
 1280 991 l 1,28,29
 1280 938 1280 938 1280 884 c 0,30,31
 1280 843 1280 843 1274 825 c 0,32,33
 1259 775 1259 775 1208 753 c 0,34,35
 1188 745 1188 745 1164 749 c 0,36,37
 1130 755 1130 755 1104 779 c 0,38,39
 919 957 919 957 735 1136 c 0,40,41
 714 1156 714 1156 708 1170 c 0,42,43
 698 1194 698 1194 709 1217 c 0,44,45
 715 1229 715 1229 738 1251 c 0,46,47
 911 1418 911 1418 1085 1586 c 0,48,49
 1110 1611 1110 1611 1126 1618 c 0,50,51
 1152 1630 1152 1630 1181 1626 c 0,52,53
 1207 1622 1207 1622 1230 1605 c 0,54,55
 1260 1582 1260 1582 1273 1545 c 0,56,57
 1279 1528 1279 1528 1280 1498 c 0,58,59
 1281 1447 1281 1447 1280 1388 c 0,60,61
 1280 1383 1280 1383 1285 1383 c 0,0,1
761 471 m 1,62,63
 763 535 763 535 763 599 c 0,64,65
 762 670 762 670 824 704 c 0,66,67
 840 712 840 712 857 714 c 0,68,69
 873 716 873 716 891 710 c 0,70,71
 913 703 913 703 931 689 c 0,72,73
 933 687 933 687 963 658 c 0,74,75
 1138 489 1138 489 1312 321 c 0,76,77
 1352 283 1352 283 1332 245 c 0,78,79
 1325 232 1325 232 1285 194 c 0,80,81
 1116 29 1116 29 946 -135 c 1,82,83
 946 -135 946 -135 938 -143 c 0,84,85
 926 -156 926 -156 907 -161 c 0,86,87
 877 -169 877 -169 849 -162 c 0,88,89
 823 -154 823 -154 801 -134 c 0,90,91
 777 -111 777 -111 768 -80 c 0,92,93
 762 -62 762 -62 762 -27 c 0,94,95
 762 23 762 23 762 75 c 0,96,97
 762 78 762 78 758 79 c 0,98,99
 549 105 549 105 405 250 c 0,100,101
 376 279 376 279 353 311 c 0,102,103
 271 422 271 422 254 560 c 0,104,105
 250 589 250 589 250 640 c 128,-1,106
 250 691 250 691 250 742 c 0,107,108
 250 799 250 799 251 806 c 0,109,110
 259 845 259 845 300 856 c 0,111,112
 318 861 318 861 334 857 c 0,113,114
 368 846 368 846 376 809 c 0,115,116
 381 790 381 790 381 790 c 2,117,118
 426 633 426 633 565 543 c 0,119,120
 655 484 655 484 759 470 c 1,121,122
 759 470 759 470 759 470 c 1,123,124
 761 469 761 469 761 471 c 1,125,-1
 761 471 l 1,62,63
EndSplineSet
Validated: 37
EndChar

StartChar: uniF05A
Encoding: 61530 61530 49
Width: 2370
GlyphClass: 1
Flags: W
LayerCount: 2
Fore
SplineSet
142 335 m 0,0,1
 142 476 142 476 229 586 c 128,-1,2
 316 696 316 696 453 727 c 1,3,4
 489 893 489 893 620 999.5 c 128,-1,5
 751 1106 751 1106 922 1106 c 0,6,7
 1088 1106 1088 1106 1219 1002.5 c 128,-1,8
 1350 899 1350 899 1388 737 c 1,9,-1
 1414 737 l 2,10,11
 1579 737 1579 737 1696 619.5 c 128,-1,12
 1813 502 1813 502 1813 335 c 128,-1,13
 1813 168 1813 168 1696 49.5 c 128,-1,14
 1579 -69 1579 -69 1414 -69 c 2,15,-1
 543 -69 l 2,16,17
 462 -69 462 -69 387.5 -37 c 128,-1,18
 313 -5 313 -5 259.5 49.5 c 128,-1,19
 206 104 206 104 174 179 c 128,-1,20
 142 254 142 254 142 335 c 0,0,1
279 335 m 0,21,22
 279 227 279 227 356 149.5 c 128,-1,23
 433 72 433 72 543 72 c 2,24,-1
 1414 72 l 2,25,26
 1523 72 1523 72 1600.5 149.5 c 128,-1,27
 1678 227 1678 227 1678 335.5 c 128,-1,28
 1678 444 1678 444 1600.5 521 c 128,-1,29
 1523 598 1523 598 1414 598 c 2,30,-1
 1284 598 l 2,31,32
 1269 598 1269 598 1269 612 c 2,33,-1
 1263 658 l 2,34,35
 1249 792 1249 792 1152 880.5 c 128,-1,36
 1055 969 1055 969 922 969 c 128,-1,37
 789 969 789 969 691 880 c 128,-1,38
 593 791 593 791 580 658 c 1,39,-1
 574 618 l 2,40,41
 574 604 574 604 559 604 c 2,42,-1
 517 598 l 1,43,44
 416 589 416 589 347.5 513.5 c 128,-1,45
 279 438 279 438 279 335 c 0,21,22
1109 1161 m 0,46,47
 1095 1147 1095 1147 1116 1141 c 0,48,49
 1177 1114 1177 1114 1218 1089 c 0,50,51
 1233 1084 1233 1084 1239 1091 c 0,52,53
 1324 1173 1324 1173 1437.5 1173 c 128,-1,54
 1551 1173 1551 1173 1634 1096 c 128,-1,55
 1717 1019 1717 1019 1727 907 c 1,56,-1
 1736 846 l 1,57,-1
 1869 846 l 2,58,59
 1960 846 1960 846 2026 780 c 128,-1,60
 2092 714 2092 714 2092 623 c 0,61,62
 2092 538 2092 538 2034 475 c 128,-1,63
 1976 412 1976 412 1891 402 c 0,64,65
 1877 402 1877 402 1877 387 c 2,66,-1
 1877 279 l 2,67,68
 1877 264 1877 264 1891 264 c 0,69,70
 2032 273 2032 273 2130 377 c 128,-1,71
 2228 481 2228 481 2228 623 c 0,72,73
 2228 773 2228 773 2122.5 879 c 128,-1,74
 2017 985 2017 985 1869 985 c 2,75,-1
 1855 985 l 1,76,77
 1818 1127 1818 1127 1700.5 1219 c 128,-1,78
 1583 1311 1583 1311 1438 1311 c 0,79,80
 1239 1311 1239 1311 1109 1161 c 0,46,47
EndSplineSet
Validated: 9
EndChar

StartChar: uniF05B
Encoding: 61531 61531 50
Width: 2216
GlyphClass: 1
Flags: W
LayerCount: 2
Fore
SplineSet
199 371 m 0,0,1
 199 526 199 526 293.5 647.5 c 128,-1,2
 388 769 388 769 533 803 c 1,3,4
 574 988 574 988 717.5 1106 c 128,-1,5
 861 1224 861 1224 1046 1224 c 0,6,7
 1228 1224 1228 1224 1369.5 1109 c 128,-1,8
 1511 994 1511 994 1553 813 c 1,9,-1
 1582 813 l 2,10,11
 1700 813 1700 813 1800 754.5 c 128,-1,12
 1900 696 1900 696 1958.5 594 c 128,-1,13
 2017 492 2017 492 2017 371 c 0,14,15
 2017 252 2017 252 1961.5 151 c 128,-1,16
 1906 50 1906 50 1809.5 -11 c 128,-1,17
 1713 -72 1713 -72 1598 -76 c 1,18,-1
 619 -76 l 1,19,20
 444 -67 444 -67 321.5 62 c 128,-1,21
 199 191 199 191 199 371 c 0,0,1
349 371 m 0,22,23
 349 254 349 254 428 167.5 c 128,-1,24
 507 81 507 81 619 75 c 1,25,-1
 1598 75 l 1,26,27
 1711 81 1711 81 1790.5 167.5 c 128,-1,28
 1870 254 1870 254 1870 371 c 0,29,30
 1870 489 1870 489 1784.5 575.5 c 128,-1,31
 1699 662 1699 662 1582 662 c 2,32,-1
 1440 662 l 2,33,34
 1425 662 1425 662 1425 678 c 2,35,-1
 1419 729 l 2,36,37
 1404 875 1404 875 1296.5 973.5 c 128,-1,38
 1189 1072 1189 1072 1046 1072 c 256,39,40
 903 1072 903 1072 797 973.5 c 128,-1,41
 691 875 691 875 677 729 c 1,42,-1
 670 678 l 2,43,44
 670 662 670 662 653 662 c 2,45,-1
 607 662 l 1,46,47
 497 648 497 648 423 565.5 c 128,-1,48
 349 483 349 483 349 371 c 0,22,23
EndSplineSet
Validated: 1
EndChar

StartChar: uniF05C
Encoding: 61532 61532 51
Width: 2867
GlyphClass: 1
Flags: W
LayerCount: 2
Fore
SplineSet
277 304 m 0,0,1
 277 191 277 191 334 95 c 128,-1,2
 391 -1 391 -1 488.5 -56.5 c 128,-1,3
 586 -112 586 -112 701 -112 c 2,4,-1
 1633 -112 l 2,5,6
 1748 -112 1748 -112 1846.5 -56.5 c 128,-1,7
 1945 -1 1945 -1 2002.5 95 c 128,-1,8
 2060 191 2060 191 2060 304 c 0,9,10
 2060 387 2060 387 2024 471 c 1,11,12
 2122 588 2122 588 2122 748 c 0,13,14
 2122 838 2122 838 2086.5 919.5 c 128,-1,15
 2051 1001 2051 1001 1990.5 1059.5 c 128,-1,16
 1930 1118 1930 1118 1846.5 1152.5 c 128,-1,17
 1763 1187 1763 1187 1671 1187 c 0,18,19
 1480 1187 1480 1187 1337 1041 c 1,20,21
 1237 1096 1237 1096 1105 1096 c 0,22,23
 923 1096 923 1096 783.5 986.5 c 128,-1,24
 644 877 644 877 605 706 c 1,25,26
 460 674 460 674 368.5 561.5 c 128,-1,27
 277 449 277 449 277 304 c 0,0,1
424 304 m 0,28,29
 424 409 424 409 496 485 c 128,-1,30
 568 561 568 561 677 574 c 1,31,-1
 720 576 l 2,32,33
 736 576 736 576 736 591 c 2,34,-1
 742 637 l 2,35,36
 760 773 760 773 863 864.5 c 128,-1,37
 966 956 966 956 1105 956 c 0,38,39
 1247 956 1247 956 1352 864 c 128,-1,40
 1457 772 1457 772 1470 637 c 1,41,-1
 1477 588 l 2,42,43
 1480 574 1480 574 1494 574 c 2,44,-1
 1633 574 l 2,45,46
 1747 574 1747 574 1829 494 c 128,-1,47
 1911 414 1911 414 1911 304 c 0,48,49
 1911 190 1911 190 1829.5 109.5 c 128,-1,50
 1748 29 1748 29 1633 29 c 2,51,-1
 701 29 l 2,52,53
 589 29 589 29 506.5 110 c 128,-1,54
 424 191 424 191 424 304 c 0,28,29
1001 1332 m 0,55,56
 1001 1301 1001 1301 1022 1279 c 2,57,-1
 1078 1226 l 1,58,59
 1110 1202 1110 1202 1133 1205 c 0,60,61
 1160 1205 1160 1205 1181 1226.5 c 128,-1,62
 1202 1248 1202 1248 1202 1278.5 c 128,-1,63
 1202 1309 1202 1309 1179 1328 c 2,64,-1
 1128 1383 l 2,65,66
 1105 1404 1105 1404 1076 1404 c 0,67,68
 1044 1404 1044 1404 1022.5 1383 c 128,-1,69
 1001 1362 1001 1362 1001 1332 c 0,55,56
1461 961 m 1,70,71
 1550 1045 1550 1045 1671 1045 c 0,72,73
 1798 1045 1798 1045 1887.5 958.5 c 128,-1,74
 1977 872 1977 872 1977 748 c 0,75,76
 1977 670 1977 670 1933 594 c 1,77,78
 1808 715 1808 715 1633 715 c 2,79,-1
 1606 715 l 1,80,81
 1573 851 1573 851 1461 961 c 1,70,71
1600 1404 m 2,82,83
 1600 1371 1600 1371 1620 1351.5 c 128,-1,84
 1640 1332 1640 1332 1671 1332 c 0,85,86
 1704 1332 1704 1332 1724 1351.5 c 128,-1,87
 1744 1371 1744 1371 1744 1404 c 2,88,-1
 1744 1575 l 2,89,90
 1744 1605 1744 1605 1723.5 1624.5 c 128,-1,91
 1703 1644 1703 1644 1671 1644 c 0,92,93
 1640 1644 1640 1644 1620 1624.5 c 128,-1,94
 1600 1605 1600 1605 1600 1575 c 2,95,-1
 1600 1404 l 2,82,83
2075 1211 m 0,96,97
 2075 1179 2075 1179 2095 1159 c 1,98,99
 2122 1139 2122 1139 2148 1139 c 0,100,101
 2171 1139 2171 1139 2199 1159 c 1,102,-1
 2322 1279 l 2,103,104
 2343 1302 2343 1302 2343 1333 c 0,105,106
 2343 1363 2343 1363 2322 1383.5 c 128,-1,107
 2301 1404 2301 1404 2271 1404 c 256,108,109
 2241 1404 2241 1404 2221 1383 c 2,110,-1
 2095 1263 l 2,111,112
 2075 1240 2075 1240 2075 1211 c 0,96,97
2144 219.5 m 128,-1,114
 2144 190 2144 190 2166 167 c 2,115,-1
 2221 114 l 2,116,117
 2241 94 2241 94 2271.5 94 c 128,-1,118
 2302 94 2302 94 2322.5 115 c 128,-1,119
 2343 136 2343 136 2343 167 c 0,120,121
 2343 195 2343 195 2322 216 c 2,122,-1
 2266 270 l 2,123,124
 2245 290 2245 290 2217 290 c 0,125,126
 2186 290 2186 290 2165 269.5 c 128,-1,113
 2144 249 2144 249 2144 219.5 c 128,-1,114
2270 748 m 128,-1,128
 2270 719 2270 719 2292 700 c 0,129,130
 2313 679 2313 679 2345 679 c 2,131,-1
 2520 679 l 2,132,133
 2550 679 2550 679 2570 698.5 c 128,-1,134
 2590 718 2590 718 2590 748 c 128,-1,135
 2590 778 2590 778 2570 799 c 128,-1,136
 2550 820 2550 820 2520 820 c 2,137,-1
 2345 820 l 2,138,139
 2314 820 2314 820 2292 798.5 c 128,-1,127
 2270 777 2270 777 2270 748 c 128,-1,128
EndSplineSet
Validated: 9
EndChar

StartChar: uniF05D
Encoding: 61533 61533 52
Width: 2541
GlyphClass: 1
Flags: W
LayerCount: 2
Fore
SplineSet
210 770 m 0,0,1
 210 737 210 737 235 715.5 c 128,-1,2
 260 694 260 694 299 694 c 2,3,-1
 449 694 l 2,4,5
 485 694 485 694 510.5 716 c 128,-1,6
 536 738 536 738 536 770 c 0,7,8
 536 805 536 805 511 828 c 128,-1,9
 486 851 486 851 449 851 c 2,10,-1
 299 851 l 2,11,12
 260 851 260 851 235 828.5 c 128,-1,13
 210 806 210 806 210 770 c 0,0,1
367 264 m 0,14,15
 367 145 367 145 461.5 58 c 128,-1,16
 556 -29 556 -29 685 -29 c 2,17,-1
 1296 -29 l 2,18,19
 1426 -29 1426 -29 1518 57 c 128,-1,20
 1610 143 1610 143 1610 264 c 0,21,22
 1610 323 1610 323 1592 364 c 1,23,24
 1703 429 1703 429 1767.5 537.5 c 128,-1,25
 1832 646 1832 646 1832 770 c 0,26,27
 1832 870 1832 870 1789.5 960.5 c 128,-1,28
 1747 1051 1747 1051 1675.5 1116.5 c 128,-1,29
 1604 1182 1604 1182 1505.5 1221.5 c 128,-1,30
 1407 1261 1407 1261 1299 1261 c 0,31,32
 1153 1261 1153 1261 1030 1195 c 128,-1,33
 907 1129 907 1129 836.5 1016 c 128,-1,34
 766 903 766 903 766 770 c 2,35,-1
 766 742 l 1,36,37
 632 672 632 672 589 538 c 1,38,39
 488 509 488 509 427.5 434.5 c 128,-1,40
 367 360 367 360 367 264 c 0,14,15
506 1423 m 0,41,42
 506 1388 506 1388 529 1367 c 2,43,-1
 673 1229 l 1,44,45
 735 1186 735 1186 798 1229 c 1,46,47
 823 1252 823 1252 823 1287 c 0,48,49
 823 1320 823 1320 798 1344 c 2,50,-1
 651 1479 l 2,51,52
 623 1502 623 1502 589 1502 c 0,53,54
 552 1502 552 1502 529 1479 c 128,-1,55
 506 1456 506 1456 506 1423 c 0,41,42
544 264 m 0,56,57
 544 315 544 315 579.5 352 c 128,-1,58
 615 389 615 389 670 393 c 2,59,-1
 725 400 l 2,60,61
 743 400 743 400 743 419 c 2,62,-1
 751 465 l 2,63,64
 761 535 761 535 816.5 582.5 c 128,-1,65
 872 630 872 630 948 630 c 0,66,67
 1026 630 1026 630 1083 582.5 c 128,-1,68
 1140 535 1140 535 1149 465 c 2,69,-1
 1157 412 l 1,70,71
 1165 393 1165 393 1179 393 c 2,72,-1
 1296 393 l 2,73,74
 1354 393 1354 393 1396 355 c 128,-1,75
 1438 317 1438 317 1438 264 c 0,76,77
 1438 208 1438 208 1396 169 c 128,-1,78
 1354 130 1354 130 1296 130 c 2,79,-1
 685 130 l 2,80,81
 625 130 625 130 584.5 169 c 128,-1,82
 544 208 544 208 544 264 c 0,56,57
937 787 m 1,83,84
 947 921 947 921 1050.5 1012 c 128,-1,85
 1154 1103 1154 1103 1299 1103 c 0,86,87
 1447 1103 1447 1103 1551.5 1006 c 128,-1,88
 1656 909 1656 909 1656 770 c 0,89,90
 1656 684 1656 684 1610.5 610.5 c 128,-1,91
 1565 537 1565 537 1488 492 c 1,92,93
 1409 552 1409 552 1306 552 c 1,94,95
 1267 659 1267 659 1169.5 723 c 128,-1,96
 1072 787 1072 787 948 787 c 2,97,-1
 937 787 l 1,83,84
1212 1502 m 2,98,99
 1212 1469 1212 1469 1237.5 1445.5 c 128,-1,100
 1263 1422 1263 1422 1299 1422 c 0,101,102
 1336 1422 1336 1422 1361.5 1445.5 c 128,-1,103
 1387 1469 1387 1469 1387 1502 c 2,104,-1
 1387 1694 l 2,105,106
 1387 1726 1387 1726 1361.5 1748 c 128,-1,107
 1336 1770 1336 1770 1299 1770 c 0,108,109
 1263 1770 1263 1770 1237.5 1748 c 128,-1,110
 1212 1726 1212 1726 1212 1694 c 2,111,-1
 1212 1502 l 2,98,99
1775 257 m 128,-1,113
 1775 224 1775 224 1799 199 c 2,114,-1
 1945 67 l 2,115,116
 2001 14 2001 14 2070 67 c 0,117,118
 2093 87 2093 87 2093 122 c 0,119,120
 2093 155 2093 155 2070 176 c 2,121,-1
 1920 314 l 2,122,123
 1896 334 1896 334 1859 334 c 128,-1,124
 1822 334 1822 334 1798.5 312 c 128,-1,112
 1775 290 1775 290 1775 257 c 128,-1,113
1775 1288 m 256,125,126
 1775 1254 1775 1254 1799 1229 c 0,127,128
 1823 1207 1823 1207 1859 1207 c 0,129,130
 1896 1207 1896 1207 1920 1229 c 2,131,-1
 2070 1367 l 2,132,133
 2093 1388 2093 1388 2093 1423 c 0,134,135
 2093 1456 2093 1456 2068 1479 c 128,-1,136
 2043 1502 2043 1502 2006 1502 c 0,137,138
 1971 1502 1971 1502 1945 1479 c 2,139,-1
 1799 1344 l 2,140,141
 1775 1322 1775 1322 1775 1288 c 256,125,126
2005 770 m 0,142,143
 2005 737 2005 737 2030 715.5 c 128,-1,144
 2055 694 2055 694 2094 694 c 2,145,-1
 2245 694 l 2,146,147
 2280 694 2280 694 2305.5 716 c 128,-1,148
 2331 738 2331 738 2331 770 c 0,149,150
 2331 805 2331 805 2306 828 c 128,-1,151
 2281 851 2281 851 2245 851 c 2,152,-1
 2094 851 l 2,153,154
 2055 851 2055 851 2030 828.5 c 128,-1,155
 2005 806 2005 806 2005 770 c 0,142,143
EndSplineSet
Validated: 41
EndChar

StartChar: uniF05E
Encoding: 61534 61534 53
Width: 2267
GlyphClass: 1
Flags: W
LayerCount: 2
Fore
SplineSet
179 780 m 0,0,1
 179 812 179 812 201 835 c 0,2,3
 225 856 225 856 255 856 c 2,4,-1
 439 856 l 2,5,6
 470 856 470 856 490.5 834 c 128,-1,7
 511 812 511 812 511 780.5 c 128,-1,8
 511 749 511 749 490.5 727.5 c 128,-1,9
 470 706 470 706 439 706 c 2,10,-1
 255 706 l 2,11,12
 224 706 224 706 201.5 728 c 128,-1,13
 179 750 179 750 179 780 c 0,0,1
435 174 m 0,14,15
 435 205 435 205 457 228 c 2,16,-1
 589 352 l 2,17,18
 609 373 609 373 642 373 c 0,19,20
 674 373 674 373 695.5 353.5 c 128,-1,21
 717 334 717 334 717 303 c 0,22,23
 717 271 717 271 695 247 c 2,24,-1
 567 123 l 1,25,26
 512 81 512 81 457 123 c 1,27,28
 435 145 435 145 435 174 c 0,14,15
435 1386 m 0,29,30
 435 1416 435 1416 457 1439 c 1,31,32
 483 1460 483 1460 514 1460 c 0,33,34
 543 1460 543 1460 567 1439 c 2,35,-1
 695 1310 l 2,36,37
 717 1291 717 1291 717 1259 c 256,38,39
 717 1227 717 1227 695.5 1206.5 c 128,-1,40
 674 1186 674 1186 642 1186 c 0,41,42
 609 1186 609 1186 589 1207 c 2,43,-1
 457 1332 l 2,44,45
 435 1354 435 1354 435 1386 c 0,29,30
665 780 m 256,46,47
 665 903 665 903 728 1008 c 128,-1,48
 791 1113 791 1113 899.5 1174.5 c 128,-1,49
 1008 1236 1008 1236 1133 1236 c 0,50,51
 1227 1236 1227 1236 1314 1199.5 c 128,-1,52
 1401 1163 1401 1163 1464 1102 c 128,-1,53
 1527 1041 1527 1041 1564 956.5 c 128,-1,54
 1601 872 1601 872 1601 780 c 0,55,56
 1601 657 1601 657 1538 552.5 c 128,-1,57
 1475 448 1475 448 1367 386.5 c 128,-1,58
 1259 325 1259 325 1133 325 c 128,-1,59
 1007 325 1007 325 899 386.5 c 128,-1,60
 791 448 791 448 728 552.5 c 128,-1,61
 665 657 665 657 665 780 c 256,46,47
817 780 m 256,62,63
 817 653 817 653 909.5 562 c 128,-1,64
 1002 471 1002 471 1133.5 471 c 128,-1,65
 1265 471 1265 471 1358 562 c 128,-1,66
 1451 653 1451 653 1451 780 c 256,67,68
 1451 907 1451 907 1358 996.5 c 128,-1,69
 1265 1086 1265 1086 1133 1086 c 0,70,71
 1002 1086 1002 1086 909.5 996.5 c 128,-1,72
 817 907 817 907 817 780 c 256,62,63
1056 101 m 2,73,74
 1056 132 1056 132 1078.5 153 c 128,-1,75
 1101 174 1101 174 1133 174 c 0,76,77
 1166 174 1166 174 1188 153 c 128,-1,78
 1210 132 1210 132 1210 101 c 2,79,-1
 1210 -73 l 2,80,81
 1210 -105 1210 -105 1187.5 -127 c 128,-1,82
 1165 -149 1165 -149 1133 -149 c 128,-1,83
 1101 -149 1101 -149 1078.5 -127 c 128,-1,84
 1056 -105 1056 -105 1056 -73 c 2,85,-1
 1056 101 l 2,73,74
1056 1456 m 2,86,-1
 1056 1635 l 2,87,88
 1056 1665 1056 1665 1079 1687.5 c 128,-1,89
 1102 1710 1102 1710 1133 1710 c 128,-1,90
 1164 1710 1164 1710 1187 1687.5 c 128,-1,91
 1210 1665 1210 1665 1210 1635 c 2,92,-1
 1210 1456 l 2,93,94
 1210 1426 1210 1426 1187.5 1406 c 128,-1,95
 1165 1386 1165 1386 1133 1386 c 128,-1,96
 1101 1386 1101 1386 1078.5 1406 c 128,-1,97
 1056 1426 1056 1426 1056 1456 c 2,86,-1
1553 303 m 0,98,99
 1553 334 1553 334 1573 352 c 0,100,101
 1593 373 1593 373 1623 373 c 0,102,103
 1656 373 1656 373 1677 352 c 2,104,-1
 1809 228 l 2,105,106
 1831 205 1831 205 1831 174.5 c 128,-1,107
 1831 144 1831 144 1809 123 c 0,108,109
 1755 82 1755 82 1701 123 c 1,110,-1
 1573 247 l 2,111,112
 1553 270 1553 270 1553 303 c 0,98,99
1553 1259 m 256,113,114
 1553 1291 1553 1291 1573 1310 c 2,115,-1
 1701 1439 l 2,116,117
 1725 1460 1725 1460 1754 1460 c 0,118,119
 1786 1460 1786 1460 1808.5 1438 c 128,-1,120
 1831 1416 1831 1416 1831 1386 c 0,121,122
 1831 1353 1831 1353 1809 1332 c 2,123,-1
 1677 1207 l 2,124,125
 1653 1186 1653 1186 1623 1186 c 256,126,127
 1593 1186 1593 1186 1573 1206.5 c 128,-1,128
 1553 1227 1553 1227 1553 1259 c 256,113,114
1756 780.5 m 128,-1,130
 1756 812 1756 812 1778 835 c 0,131,132
 1799 856 1799 856 1829 856 c 2,133,-1
 2011 856 l 2,134,135
 2042 856 2042 856 2065 833.5 c 128,-1,136
 2088 811 2088 811 2088 780.5 c 128,-1,137
 2088 750 2088 750 2065 728 c 128,-1,138
 2042 706 2042 706 2011 706 c 2,139,-1
 1829 706 l 2,140,141
 1798 706 1798 706 1777 727.5 c 128,-1,129
 1756 749 1756 749 1756 780.5 c 128,-1,130
EndSplineSet
Validated: 33
EndChar

StartChar: uniF05F
Encoding: 61535 61535 54
Width: 1537
GlyphClass: 2
Flags: W
LayerCount: 2
Fore
SplineSet
768 0 m 1,0,1
 977 0 977 0 1154 103 c 128,-1,2
 1331 206 1331 206 1434 383 c 128,-1,3
 1537 560 1537 560 1537 769 c 128,-1,4
 1537 978 1537 978 1434 1154.5 c 128,-1,5
 1331 1331 1331 1331 1154 1434 c 128,-1,6
 977 1537 977 1537 768 1537 c 1,7,8
 939 1240 939 1240 939 769 c 0,9,10
 939 530 939 530 903.5 339 c 128,-1,11
 868 148 868 148 768 0 c 1,0,1
EndSplineSet
Validated: 9
EndChar

StartChar: uniF060
Encoding: 61536 61536 55
Width: 2541
GlyphClass: 1
Flags: W
LayerCount: 2
Fore
SplineSet
253 701 m 0,0,1
 253 667 253 667 277 645 c 128,-1,2
 301 623 301 623 338 623 c 2,3,-1
 483 623 l 2,4,5
 517 623 517 623 541.5 645.5 c 128,-1,6
 566 668 566 668 566 701 c 0,7,8
 566 737 566 737 542 760 c 128,-1,9
 518 783 518 783 483 783 c 2,10,-1
 338 783 l 2,11,12
 301 783 301 783 277 760 c 128,-1,13
 253 737 253 737 253 701 c 0,0,1
404 185 m 0,14,15
 404 64 404 64 494.5 -24.5 c 128,-1,16
 585 -113 585 -113 709 -113 c 2,17,-1
 1295 -113 l 2,18,19
 1419 -113 1419 -113 1507.5 -25.5 c 128,-1,20
 1596 62 1596 62 1596 185 c 0,21,22
 1596 245 1596 245 1579 287 c 1,23,24
 1685 354 1685 354 1747 464.5 c 128,-1,25
 1809 575 1809 575 1809 701 c 0,26,27
 1809 802 1809 802 1768.5 894.5 c 128,-1,28
 1728 987 1728 987 1659.5 1054 c 128,-1,29
 1591 1121 1591 1121 1496 1160.5 c 128,-1,30
 1401 1200 1401 1200 1298 1200 c 0,31,32
 1158 1200 1158 1200 1039.5 1133 c 128,-1,33
 921 1066 921 1066 853.5 951.5 c 128,-1,34
 786 837 786 837 786 701 c 2,35,-1
 786 672 l 1,36,37
 658 601 658 601 617 465 c 1,38,39
 520 435 520 435 462 359.5 c 128,-1,40
 404 284 404 284 404 185 c 0,14,15
537 1365 m 256,41,42
 537 1330 537 1330 559 1309 c 2,43,-1
 697 1168 l 1,44,45
 757 1124 757 1124 817 1168 c 1,46,47
 841 1192 841 1192 841 1227 c 0,48,49
 841 1261 841 1261 817 1286 c 2,50,-1
 676 1422 l 2,51,52
 649 1446 649 1446 617 1446 c 0,53,54
 581 1446 581 1446 559 1423 c 128,-1,55
 537 1400 537 1400 537 1365 c 256,41,42
573 185 m 0,56,57
 573 237 573 237 607.5 274.5 c 128,-1,58
 642 312 642 312 695 317 c 2,59,-1
 748 324 l 2,60,61
 764 324 764 324 764 343 c 2,62,-1
 772 390 l 2,63,64
 781 462 781 462 835 510 c 128,-1,65
 889 558 889 558 961 558 c 0,66,67
 1036 558 1036 558 1091 510 c 128,-1,68
 1146 462 1146 462 1154 390 c 2,69,-1
 1162 336 l 1,70,71
 1170 317 1170 317 1182 317 c 2,72,-1
 1295 317 l 2,73,74
 1351 317 1351 317 1391 278 c 128,-1,75
 1431 239 1431 239 1431 185 c 0,76,77
 1431 129 1431 129 1391 89 c 128,-1,78
 1351 49 1351 49 1295 49 c 2,79,-1
 709 49 l 2,80,81
 651 49 651 49 612 89 c 128,-1,82
 573 129 573 129 573 185 c 0,56,57
951 718 m 1,83,84
 960 854 960 854 1059 947 c 128,-1,85
 1158 1040 1158 1040 1298 1040 c 0,86,87
 1440 1040 1440 1040 1540 941 c 128,-1,88
 1640 842 1640 842 1640 701 c 0,89,90
 1640 613 1640 613 1596.5 538.5 c 128,-1,91
 1553 464 1553 464 1479 418 c 1,92,93
 1403 479 1403 479 1305 479 c 1,94,95
 1267 588 1267 588 1173.5 653 c 128,-1,96
 1080 718 1080 718 961 718 c 2,97,-1
 951 718 l 1,83,84
1214 1446 m 2,98,99
 1214 1412 1214 1412 1238.5 1388 c 128,-1,100
 1263 1364 1263 1364 1298 1364 c 256,101,102
 1333 1364 1333 1364 1357.5 1388 c 128,-1,103
 1382 1412 1382 1412 1382 1446 c 2,104,-1
 1382 1642 l 2,105,106
 1382 1675 1382 1675 1357.5 1697 c 128,-1,107
 1333 1719 1333 1719 1298 1719 c 256,108,109
 1263 1719 1263 1719 1238.5 1697 c 128,-1,110
 1214 1675 1214 1675 1214 1642 c 2,111,-1
 1214 1446 l 2,98,99
1754 178.5 m 128,-1,113
 1754 145 1754 145 1777 120 c 2,114,-1
 1918 -16 l 2,115,116
 1971 -69 1971 -69 2038 -16 c 0,117,118
 2060 6 2060 6 2060 41 c 0,119,120
 2060 74 2060 74 2038 96 c 2,121,-1
 1894 236 l 2,122,123
 1870 257 1870 257 1835 257 c 128,-1,124
 1800 257 1800 257 1777 234.5 c 128,-1,112
 1754 212 1754 212 1754 178.5 c 128,-1,113
1754 1229 m 0,125,126
 1754 1193 1754 1193 1777 1168 c 0,127,128
 1801 1146 1801 1146 1835 1146 c 0,129,130
 1870 1146 1870 1146 1894 1168 c 2,131,-1
 2038 1309 l 2,132,133
 2060 1330 2060 1330 2060 1365 c 256,134,135
 2060 1400 2060 1400 2035.5 1423 c 128,-1,136
 2011 1446 2011 1446 1976 1446 c 0,137,138
 1942 1446 1942 1446 1918 1422 c 2,139,-1
 1777 1286 l 2,140,141
 1754 1263 1754 1263 1754 1229 c 0,125,126
1975 701 m 0,142,143
 1975 667 1975 667 1999 645 c 128,-1,144
 2023 623 2023 623 2061 623 c 2,145,-1
 2205 623 l 2,146,147
 2239 623 2239 623 2263.5 645.5 c 128,-1,148
 2288 668 2288 668 2288 701 c 0,149,150
 2288 737 2288 737 2264 760 c 128,-1,151
 2240 783 2240 783 2205 783 c 2,152,-1
 2061 783 l 2,153,154
 2023 783 2023 783 1999 760 c 128,-1,155
 1975 737 1975 737 1975 701 c 0,142,143
EndSplineSet
Validated: 41
EndChar

StartChar: uniF061
Encoding: 61537 61537 56
Width: 2218
GlyphClass: 1
Flags: W
LayerCount: 2
Fore
SplineSet
130 713 m 0,0,1
 130 869 130 869 232 990.5 c 128,-1,2
 334 1112 334 1112 494 1147 c 1,3,4
 536 1333 536 1333 689.5 1452.5 c 128,-1,5
 843 1572 843 1572 1043 1572 c 0,6,7
 1240 1572 1240 1572 1393 1457 c 128,-1,8
 1546 1342 1546 1342 1593 1160 c 1,9,-1
 1625 1160 l 2,10,11
 1752 1160 1752 1160 1859 1100.5 c 128,-1,12
 1966 1041 1966 1041 2027 937.5 c 128,-1,13
 2088 834 2088 834 2088 713 c 0,14,15
 2088 532 2088 532 1959 403 c 128,-1,16
 1830 274 1830 274 1642 268 c 0,17,18
 1625 268 1625 268 1625 283 c 2,19,-1
 1625 404 l 2,20,21
 1625 419 1625 419 1642 419 c 0,22,23
 1761 428 1761 428 1845.5 513 c 128,-1,24
 1930 598 1930 598 1930 713 c 0,25,26
 1930 834 1930 834 1840 921 c 128,-1,27
 1750 1008 1750 1008 1625 1008 c 2,28,-1
 1471 1008 l 2,29,30
 1454 1008 1454 1008 1451 1024 c 2,31,-1
 1444 1075 l 2,32,33
 1434 1172 1434 1172 1378 1250 c 128,-1,34
 1322 1328 1322 1328 1233.5 1372.5 c 128,-1,35
 1145 1417 1145 1417 1043 1417 c 0,36,37
 887 1417 887 1417 773 1318.5 c 128,-1,38
 659 1220 659 1220 644 1073 c 1,39,-1
 637 1024 l 2,40,41
 637 1011 637 1011 622 1011 c 2,42,-1
 573 1004 l 1,43,44
 454 995 454 995 374 911.5 c 128,-1,45
 294 828 294 828 294 713 c 0,46,47
 294 595 294 595 377.5 510.5 c 128,-1,48
 461 426 461 426 582 419 c 0,49,50
 599 419 599 419 599 404 c 2,51,-1
 599 283 l 2,52,53
 599 268 599 268 582 268 c 0,54,55
 489 272 489 272 405 308 c 128,-1,56
 321 344 321 344 260.5 403.5 c 128,-1,57
 200 463 200 463 165 543.5 c 128,-1,58
 130 624 130 624 130 713 c 0,0,1
640 103 m 0,59,60
 640 107 640 107 642 114.5 c 128,-1,61
 644 122 644 122 644 125 c 2,62,-1
 669 218 l 2,63,64
 679 248 679 248 707 263.5 c 128,-1,65
 735 279 735 279 767 270 c 256,66,67
 799 261 799 261 816 234.5 c 128,-1,68
 833 208 833 208 823 176 c 2,69,-1
 800 85 l 2,70,71
 781 26 781 26 728 26 c 0,72,73
 725 26 725 26 720 26.5 c 128,-1,74
 715 27 715 27 709.5 28 c 128,-1,75
 704 29 704 29 700 29 c 0,76,77
 670 37 670 37 655 59.5 c 128,-1,78
 640 82 640 82 640 103 c 0,59,60
765 537 m 0,79,80
 765 540 765 540 766 547 c 128,-1,81
 767 554 767 554 767 556 c 2,82,-1
 795 650 l 2,83,84
 804 676 804 676 825.5 690 c 128,-1,85
 847 704 847 704 870 704 c 0,86,87
 873 704 873 704 877 704 c 128,-1,88
 881 704 881 704 886 703 c 128,-1,89
 891 702 891 702 894 702 c 0,90,91
 925 693 925 693 941.5 666 c 128,-1,92
 958 639 958 639 948 608 c 2,93,-1
 925 518 l 2,94,95
 916 481 916 481 887.5 465 c 128,-1,96
 859 449 859 449 826 463 c 1,97,98
 795 471 795 471 780 493 c 128,-1,99
 765 515 765 515 765 537 c 0,79,80
880 -179 m 0,100,101
 880 -175 880 -175 882 -168 c 128,-1,102
 884 -161 884 -161 884 -157 c 2,103,-1
 911 -68 l 2,104,105
 920 -36 920 -36 948.5 -19.5 c 128,-1,106
 977 -3 977 -3 1010 -12 c 0,107,108
 1042 -21 1042 -21 1058 -48.5 c 128,-1,109
 1074 -76 1074 -76 1064 -107 c 2,110,-1
 1040 -201 l 2,111,112
 1025 -256 1025 -256 965 -256 c 0,113,114
 958 -256 958 -256 942 -253 c 0,115,116
 911 -248 911 -248 895.5 -225.5 c 128,-1,117
 880 -203 880 -203 880 -179 c 0,100,101
1007 251 m 0,118,119
 1007 258 1007 258 1010 274 c 2,120,-1
 1036 366 l 2,121,122
 1045 397 1045 397 1074 412.5 c 128,-1,123
 1103 428 1103 428 1135 419 c 256,124,125
 1167 410 1167 410 1183 383.5 c 128,-1,126
 1199 357 1199 357 1188 325 c 2,127,-1
 1166 236 l 2,128,129
 1148 175 1148 175 1098 175 c 0,130,131
 1091 175 1091 175 1068 180 c 0,132,133
 1037 186 1037 186 1022 206.5 c 128,-1,134
 1007 227 1007 227 1007 251 c 0,118,119
1272 99 m 0,135,136
 1272 109 1272 109 1275 121 c 2,137,-1
 1302 211 l 2,138,139
 1311 243 1311 243 1340 259.5 c 128,-1,140
 1369 276 1369 276 1400 268 c 0,141,142
 1432 258 1432 258 1449.5 230.5 c 128,-1,143
 1467 203 1467 203 1458 174 c 2,144,-1
 1430 78 l 2,145,146
 1416 23 1416 23 1356 23 c 0,147,148
 1343 23 1343 23 1332 26 c 0,149,150
 1303 31 1303 31 1288 53.5 c 128,-1,151
 1273 76 1273 76 1272 99 c 0,135,136
1402 529 m 0,152,153
 1402 533 1402 533 1407 552 c 2,154,-1
 1435 645 l 2,155,156
 1440 674 1440 674 1462 688 c 128,-1,157
 1484 702 1484 702 1508 700 c 0,158,159
 1514 701 1514 701 1531 698 c 0,160,161
 1562 691 1562 691 1580 663 c 0,162,163
 1597 640 1597 640 1587 605 c 2,164,-1
 1564 512 l 1,165,166
 1545 453 1545 453 1492 453 c 0,167,168
 1483 453 1483 453 1461 459 c 0,169,170
 1431 467 1431 467 1416.5 487 c 128,-1,171
 1402 507 1402 507 1402 529 c 0,152,153
EndSplineSet
Validated: 1
EndChar

StartChar: uniF070
Encoding: 61552 61552 57
Width: 1664
GlyphClass: 1
Flags: W
LayerCount: 2
Fore
SplineSet
28 1316 m 1,0,-1
 119 1393 l 1,1,-1
 1302 98 l 1,2,-1
 1211 17 l 1,3,-1
 28 1316 l 1,0,-1
0 1288 m 1,4,-1
 0 0 l 1,5,-1
 1184 0 l 1,6,-1
 0 1288 l 1,4,-1
EndSplineSet
Validated: 9
EndChar

StartChar: uniF071
Encoding: 61553 61553 58
Width: 1664
GlyphClass: 1
Flags: W
LayerCount: 2
Fore
SplineSet
28 1316 m 1,0,-1
 111 1393 l 1,1,-1
 1425 256 l 1,2,-1
 1367 189 l 1,3,-1
 28 1316 l 1,0,-1
0 1288 m 1,4,-1
 0 0 l 1,5,-1
 1184 0 l 1,6,-1
 0 1288 l 1,4,-1
EndSplineSet
Validated: 9
EndChar

StartChar: uniF072
Encoding: 61554 61554 59
Width: 1664
GlyphClass: 1
Flags: W
LayerCount: 2
Fore
SplineSet
28 1316 m 1,0,-1
 113 1397 l 1,1,-1
 1551 498 l 1,2,-1
 1499 417 l 1,3,-1
 28 1316 l 1,0,-1
0 1288 m 1,4,-1
 0 0 l 1,5,-1
 1184 0 l 1,6,-1
 0 1288 l 1,4,-1
EndSplineSet
Validated: 9
EndChar

StartChar: uniF073
Encoding: 61555 61555 60
Width: 1664
GlyphClass: 1
Flags: W
LayerCount: 2
Fore
SplineSet
28 1316 m 1,0,-1
 101 1399 l 1,1,-1
 1594 702 l 1,2,-1
 1564 613 l 1,3,-1
 28 1316 l 1,0,-1
0 1288 m 1,4,-1
 0 0 l 1,5,-1
 1184 0 l 1,6,-1
 0 1288 l 1,4,-1
EndSplineSet
Validated: 9
EndChar

StartChar: uniF074
Encoding: 61556 61556 61
Width: 1664
GlyphClass: 1
Flags: W
LayerCount: 2
Fore
SplineSet
28 1316 m 1,0,-1
 101 1403 l 1,1,-1
 1612 962 l 1,2,-1
 1591 867 l 1,3,-1
 28 1316 l 1,0,-1
0 1288 m 1,4,-1
 0 0 l 1,5,-1
 1184 0 l 1,6,-1
 0 1288 l 1,4,-1
EndSplineSet
Validated: 9
EndChar

StartChar: uniF075
Encoding: 61557 61557 62
Width: 1664
GlyphClass: 1
Flags: W
LayerCount: 2
Fore
SplineSet
28 1316 m 1,0,-1
 89 1405 l 1,1,-1
 1589 1138 l 1,2,-1
 1586 1040 l 1,3,-1
 28 1316 l 1,0,-1
0 1288 m 1,4,-1
 0 0 l 1,5,-1
 1184 0 l 1,6,-1
 0 1288 l 1,4,-1
EndSplineSet
Validated: 9
EndChar

StartChar: uniF076
Encoding: 61558 61558 63
Width: 1664
GlyphClass: 1
Flags: W
LayerCount: 2
Fore
SplineSet
28 1316 m 1,0,-1
 87 1405 l 1,1,-1
 1548 1380 l 1,2,-1
 1541 1282 l 1,3,-1
 28 1316 l 1,0,-1
0 1288 m 1,4,-1
 0 0 l 1,5,-1
 1184 0 l 1,6,-1
 0 1288 l 1,4,-1
EndSplineSet
Validated: 9
EndChar

StartChar: uniF080
Encoding: 61568 61568 64
Width: 1533
GlyphClass: 1
Flags: W
LayerCount: 2
Fore
SplineSet
0 769 m 0,0,1
 0 925 0 925 60.5 1067.5 c 128,-1,2
 121 1210 121 1210 223.5 1312 c 128,-1,3
 326 1414 326 1414 467.5 1475 c 128,-1,4
 609 1536 609 1536 765 1536 c 0,5,6
 922 1536 922 1536 1064 1475 c 128,-1,7
 1206 1414 1206 1414 1309 1311.5 c 128,-1,8
 1412 1209 1412 1209 1473 1067 c 128,-1,9
 1534 925 1534 925 1534 770 c 0,10,11
 1534 614 1534 614 1473 471.5 c 128,-1,12
 1412 329 1412 329 1309 226 c 128,-1,13
 1206 123 1206 123 1064 62.5 c 128,-1,14
 922 2 922 2 766 2 c 0,15,16
 611 2 611 2 469 62.5 c 128,-1,17
 327 123 327 123 224.5 225.5 c 128,-1,18
 122 328 122 328 61 470 c 128,-1,19
 0 612 0 612 0 769 c 0,0,1
168 769 m 0,20,21
 168 607 168 607 248.5 469.5 c 128,-1,22
 329 332 329 332 467 252.5 c 128,-1,23
 605 173 605 173 766 173 c 0,24,25
 887 173 887 173 998 220.5 c 128,-1,26
 1109 268 1109 268 1189.5 348 c 128,-1,27
 1270 428 1270 428 1317.5 538.5 c 128,-1,28
 1365 649 1365 649 1365 770 c 0,29,30
 1365 1014 1365 1014 1187 1192 c 0,31,32
 1009 1368 1009 1368 765 1368 c 0,33,34
 644 1368 644 1368 533.5 1320 c 128,-1,35
 423 1272 423 1272 343 1192 c 128,-1,36
 263 1112 263 1112 215.5 1001 c 128,-1,37
 168 890 168 890 168 769 c 0,20,21
491 521 m 2,38,-1
 581 760 l 2,39,40
 586 770 586 770 581 781 c 2,41,-1
 491 1016 l 2,42,43
 486 1026 486 1026 492 1032 c 128,-1,44
 498 1038 498 1038 509 1033 c 2,45,-1
 1107 781 l 2,46,47
 1118 779 1118 779 1118 770 c 0,48,49
 1118 762 1118 762 1107 760 c 2,50,-1
 509 503 l 2,51,52
 498 499 498 499 492 504.5 c 128,-1,53
 486 510 486 510 491 521 c 2,38,-1
EndSplineSet
Validated: 1
EndChar

StartChar: uniF081
Encoding: 61569 61569 65
Width: 1533
GlyphClass: 1
Flags: W
LayerCount: 2
Fore
SplineSet
0 769 m 0,0,1
 0 925 0 925 60.5 1067.5 c 128,-1,2
 121 1210 121 1210 223.5 1312 c 128,-1,3
 326 1414 326 1414 467.5 1475 c 128,-1,4
 609 1536 609 1536 765 1536 c 0,5,6
 922 1536 922 1536 1064 1475 c 128,-1,7
 1206 1414 1206 1414 1309 1311.5 c 128,-1,8
 1412 1209 1412 1209 1473 1067 c 128,-1,9
 1534 925 1534 925 1534 770 c 0,10,11
 1534 614 1534 614 1473 471.5 c 128,-1,12
 1412 329 1412 329 1309 226 c 128,-1,13
 1206 123 1206 123 1064 62.5 c 128,-1,14
 922 2 922 2 766 2 c 0,15,16
 611 2 611 2 469 62.5 c 128,-1,17
 327 123 327 123 224.5 225.5 c 128,-1,18
 122 328 122 328 61 470 c 128,-1,19
 0 612 0 612 0 769 c 0,0,1
168 769 m 0,20,21
 168 607 168 607 248.5 469.5 c 128,-1,22
 329 332 329 332 467 252.5 c 128,-1,23
 605 173 605 173 766 173 c 0,24,25
 887 173 887 173 998 220.5 c 128,-1,26
 1109 268 1109 268 1189.5 348 c 128,-1,27
 1270 428 1270 428 1317.5 538.5 c 128,-1,28
 1365 649 1365 649 1365 770 c 0,29,30
 1365 1014 1365 1014 1187 1192 c 0,31,32
 1009 1368 1009 1368 765 1368 c 0,33,34
 644 1368 644 1368 533.5 1320 c 128,-1,35
 423 1272 423 1272 343 1192 c 128,-1,36
 263 1112 263 1112 215.5 1001 c 128,-1,37
 168 890 168 890 168 769 c 0,20,21
435 761 m 0,38,39
 435 768 435 768 447 771 c 2,40,-1
 1051 1021 l 2,41,42
 1062 1023 1062 1023 1067.5 1017.5 c 128,-1,43
 1073 1012 1073 1012 1069 1001 c 2,44,-1
 821 397 l 2,45,46
 819 386 819 386 810 386 c 0,47,48
 799 386 799 386 794 397 c 2,49,-1
 691 627 l 2,50,51
 682 641 682 641 677 642 c 2,52,-1
 447 746 l 2,53,54
 435 751 435 751 435 761 c 0,38,39
EndSplineSet
Validated: 1
EndChar

StartChar: uniF082
Encoding: 61570 61570 66
Width: 1533
GlyphClass: 1
Flags: W
LayerCount: 2
Fore
SplineSet
0 769 m 0,0,1
 0 925 0 925 60.5 1067.5 c 128,-1,2
 121 1210 121 1210 223.5 1312 c 128,-1,3
 326 1414 326 1414 467.5 1475 c 128,-1,4
 609 1536 609 1536 765 1536 c 0,5,6
 922 1536 922 1536 1064 1475 c 128,-1,7
 1206 1414 1206 1414 1309 1311.5 c 128,-1,8
 1412 1209 1412 1209 1473 1067 c 128,-1,9
 1534 925 1534 925 1534 770 c 0,10,11
 1534 614 1534 614 1473 471.5 c 128,-1,12
 1412 329 1412 329 1309 226 c 128,-1,13
 1206 123 1206 123 1064 62.5 c 128,-1,14
 922 2 922 2 766 2 c 0,15,16
 611 2 611 2 469 62.5 c 128,-1,17
 327 123 327 123 224.5 225.5 c 128,-1,18
 122 328 122 328 61 470 c 128,-1,19
 0 612 0 612 0 769 c 0,0,1
168 769 m 0,20,21
 168 607 168 607 248.5 469.5 c 128,-1,22
 329 332 329 332 467 252.5 c 128,-1,23
 605 173 605 173 766 173 c 0,24,25
 887 173 887 173 998 220.5 c 128,-1,26
 1109 268 1109 268 1189.5 348 c 128,-1,27
 1270 428 1270 428 1317.5 538.5 c 128,-1,28
 1365 649 1365 649 1365 770 c 0,29,30
 1365 1014 1365 1014 1187 1192 c 0,31,32
 1009 1368 1009 1368 765 1368 c 0,33,34
 644 1368 644 1368 533.5 1320 c 128,-1,35
 423 1272 423 1272 343 1192 c 128,-1,36
 263 1112 263 1112 215.5 1001 c 128,-1,37
 168 890 168 890 168 769 c 0,20,21
518 998 m 2,38,39
 516 1009 516 1009 521.5 1015 c 128,-1,40
 527 1021 527 1021 537 1017 c 2,41,-1
 1139 768 l 2,42,43
 1151 766 1151 766 1151 758 c 0,44,45
 1151 749 1151 749 1139 744 c 2,46,-1
 910 640 l 2,47,48
 900 636 900 636 895 625 c 2,49,-1
 791 395 l 2,50,51
 786 384 786 384 777 384 c 0,52,53
 769 384 769 384 767 395 c 2,54,-1
 518 998 l 2,38,39
EndSplineSet
Validated: 1
EndChar

StartChar: uniF083
Encoding: 61571 61571 67
Width: 1537
GlyphClass: 1
Flags: W
LayerCount: 2
Fore
SplineSet
0 765 m 0,0,1
 0 974 0 974 103.5 1151.5 c 128,-1,2
 207 1329 207 1329 384 1432 c 128,-1,3
 561 1535 561 1535 769 1535 c 0,4,5
 925 1535 925 1535 1067 1474 c 128,-1,6
 1209 1413 1209 1413 1312 1310 c 128,-1,7
 1415 1207 1415 1207 1476 1064.5 c 128,-1,8
 1537 922 1537 922 1537 765 c 0,9,10
 1537 609 1537 609 1476 466.5 c 128,-1,11
 1415 324 1415 324 1312 221.5 c 128,-1,12
 1209 119 1209 119 1067 58.5 c 128,-1,13
 925 -2 925 -2 769 -2 c 0,14,15
 612 -2 612 -2 469.5 59 c 128,-1,16
 327 120 327 120 224 223 c 128,-1,17
 121 326 121 326 60.5 467.5 c 128,-1,18
 0 609 0 609 0 765 c 0,0,1
169 765 m 0,19,20
 169 522 169 522 346 343 c 0,21,22
 523 166 523 166 769 166 c 0,23,24
 931 166 931 166 1069 246.5 c 128,-1,25
 1207 327 1207 327 1288 465 c 128,-1,26
 1369 603 1369 603 1369 765 c 128,-1,27
 1369 927 1369 927 1288 1065.5 c 128,-1,28
 1207 1204 1207 1204 1069 1284.5 c 128,-1,29
 931 1365 931 1365 769 1365 c 128,-1,30
 607 1365 607 1365 469 1284.5 c 128,-1,31
 331 1204 331 1204 250 1065.5 c 128,-1,32
 169 927 169 927 169 765 c 0,19,20
503 507 m 2,33,-1
 759 1107 l 2,34,35
 761 1118 761 1118 769 1118 c 128,-1,36
 777 1118 777 1118 779 1107 c 2,37,-1
 1034 507 l 2,38,39
 1038 496 1038 496 1032.5 490 c 128,-1,40
 1027 484 1027 484 1016 490 c 2,41,-1
 779 579 l 2,42,43
 769 583 769 583 759 579 c 2,44,-1
 520 490 l 2,45,46
 510 484 510 484 504 490 c 128,-1,47
 498 496 498 496 503 507 c 2,33,-1
EndSplineSet
Validated: 1
EndChar

StartChar: uniF084
Encoding: 61572 61572 68
Width: 1537
GlyphClass: 1
Flags: W
LayerCount: 2
Fore
SplineSet
0 769 m 0,0,1
 0 925 0 925 60.5 1067.5 c 128,-1,2
 121 1210 121 1210 223.5 1312 c 128,-1,3
 326 1414 326 1414 467.5 1475 c 128,-1,4
 609 1536 609 1536 765 1536 c 0,5,6
 922 1536 922 1536 1064 1475 c 128,-1,7
 1206 1414 1206 1414 1309 1311.5 c 128,-1,8
 1412 1209 1412 1209 1473 1067 c 128,-1,9
 1534 925 1534 925 1534 770 c 0,10,11
 1534 614 1534 614 1473 471.5 c 128,-1,12
 1412 329 1412 329 1309 226 c 128,-1,13
 1206 123 1206 123 1064 62.5 c 128,-1,14
 922 2 922 2 766 2 c 0,15,16
 611 2 611 2 469 62.5 c 128,-1,17
 327 123 327 123 224.5 225.5 c 128,-1,18
 122 328 122 328 61 470 c 128,-1,19
 0 612 0 612 0 769 c 0,0,1
168 769 m 0,20,21
 168 607 168 607 248.5 469.5 c 128,-1,22
 329 332 329 332 467 252.5 c 128,-1,23
 605 173 605 173 766 173 c 0,24,25
 887 173 887 173 998 220.5 c 128,-1,26
 1109 268 1109 268 1189.5 348 c 128,-1,27
 1270 428 1270 428 1317.5 538.5 c 128,-1,28
 1365 649 1365 649 1365 770 c 0,29,30
 1365 1014 1365 1014 1187 1192 c 0,31,32
 1009 1368 1009 1368 765 1368 c 0,33,34
 644 1368 644 1368 533.5 1320 c 128,-1,35
 423 1272 423 1272 343 1192 c 128,-1,36
 263 1112 263 1112 215.5 1001 c 128,-1,37
 168 890 168 890 168 769 c 0,20,21
375 777 m 0,38,39
 375 787 375 787 385 791 c 2,40,-1
 616 895 l 2,41,42
 626 900 626 900 631 910 c 2,43,-1
 734 1139 l 2,44,45
 743 1151 743 1151 750 1151 c 0,46,47
 758 1151 758 1151 761 1139 c 2,48,-1
 1009 534 l 2,49,50
 1011 523 1011 523 1007 519 c 128,-1,51
 1003 515 1003 515 991 517 c 2,52,-1
 385 765 l 2,53,54
 375 768 375 768 375 777 c 0,38,39
EndSplineSet
Validated: 1
EndChar

StartChar: uniF085
Encoding: 61573 61573 69
Width: 1533
GlyphClass: 1
Flags: W
LayerCount: 2
Fore
SplineSet
0 769 m 0,0,1
 0 925 0 925 60.5 1067.5 c 128,-1,2
 121 1210 121 1210 223.5 1312 c 128,-1,3
 326 1414 326 1414 467.5 1475 c 128,-1,4
 609 1536 609 1536 765 1536 c 0,5,6
 922 1536 922 1536 1064 1475 c 128,-1,7
 1206 1414 1206 1414 1309 1311.5 c 128,-1,8
 1412 1209 1412 1209 1473 1067 c 128,-1,9
 1534 925 1534 925 1534 770 c 0,10,11
 1534 614 1534 614 1473 471.5 c 128,-1,12
 1412 329 1412 329 1309 226 c 128,-1,13
 1206 123 1206 123 1064 62.5 c 128,-1,14
 922 2 922 2 766 2 c 0,15,16
 611 2 611 2 469 62.5 c 128,-1,17
 327 123 327 123 224.5 225.5 c 128,-1,18
 122 328 122 328 61 470 c 128,-1,19
 0 612 0 612 0 769 c 0,0,1
168 769 m 0,20,21
 168 607 168 607 248.5 469.5 c 128,-1,22
 329 332 329 332 467 252.5 c 128,-1,23
 605 173 605 173 766 173 c 0,24,25
 887 173 887 173 998 220.5 c 128,-1,26
 1109 268 1109 268 1189.5 348 c 128,-1,27
 1270 428 1270 428 1317.5 538.5 c 128,-1,28
 1365 649 1365 649 1365 770 c 0,29,30
 1365 1014 1365 1014 1187 1192 c 0,31,32
 1009 1368 1009 1368 765 1368 c 0,33,34
 644 1368 644 1368 533.5 1320 c 128,-1,35
 423 1272 423 1272 343 1192 c 128,-1,36
 263 1112 263 1112 215.5 1001 c 128,-1,37
 168 890 168 890 168 769 c 0,20,21
525 536 m 2,38,-1
 775 1141 l 2,39,40
 776 1151 776 1151 785 1151 c 0,41,42
 795 1151 795 1151 799 1141 c 2,43,-1
 903 910 l 2,44,45
 905 901 905 901 919 896 c 2,46,-1
 1149 792 l 2,47,48
 1160 788 1160 788 1160 778 c 0,49,50
 1160 769 1160 769 1149 766 c 2,51,-1
 544 518 l 2,52,53
 534 514 534 514 529 519 c 128,-1,54
 524 524 524 524 525 536 c 2,38,-1
EndSplineSet
Validated: 1
EndChar

StartChar: uniF086
Encoding: 61574 61574 70
Width: 1538
GlyphClass: 1
Flags: W
LayerCount: 2
Fore
SplineSet
0 766 m 0,0,1
 0 922 0 922 61.5 1064.5 c 128,-1,2
 123 1207 123 1207 226 1310 c 128,-1,3
 329 1413 329 1413 471 1473.5 c 128,-1,4
 613 1534 613 1534 769 1534 c 128,-1,5
 925 1534 925 1534 1067.5 1473.5 c 128,-1,6
 1210 1413 1210 1413 1313 1310 c 128,-1,7
 1416 1207 1416 1207 1477 1065 c 128,-1,8
 1538 923 1538 923 1538 766 c 128,-1,9
 1538 609 1538 609 1477 467 c 128,-1,10
 1416 325 1416 325 1313 222.5 c 128,-1,11
 1210 120 1210 120 1067.5 59.5 c 128,-1,12
 925 -1 925 -1 769 -1 c 128,-1,13
 613 -1 613 -1 470.5 60 c 128,-1,14
 328 121 328 121 225 224 c 128,-1,15
 122 327 122 327 61 469 c 128,-1,16
 0 611 0 611 0 766 c 0,0,1
170 766 m 0,17,18
 170 521 170 521 347 344 c 0,19,20
 523 168 523 168 769 168 c 0,21,22
 932 168 932 168 1070.5 248.5 c 128,-1,23
 1209 329 1209 329 1289.5 466.5 c 128,-1,24
 1370 604 1370 604 1370 766 c 0,25,26
 1370 887 1370 887 1322.5 998 c 128,-1,27
 1275 1109 1275 1109 1194 1189.5 c 128,-1,28
 1113 1270 1113 1270 1002 1317.5 c 128,-1,29
 891 1365 891 1365 769 1365 c 0,30,31
 648 1365 648 1365 537.5 1317.5 c 128,-1,32
 427 1270 427 1270 346.5 1189.5 c 128,-1,33
 266 1109 266 1109 218 998 c 128,-1,34
 170 887 170 887 170 766 c 0,17,18
504 1025 m 2,35,36
 499 1036 499 1036 505 1041.5 c 128,-1,37
 511 1047 511 1047 521 1042 c 2,38,-1
 759 953 l 2,39,40
 769 949 769 949 782 953 c 2,41,-1
 1017 1042 l 2,42,43
 1027 1047 1027 1047 1033 1041.5 c 128,-1,44
 1039 1036 1039 1036 1035 1025 c 2,45,-1
 782 426 l 2,46,47
 779 416 779 416 769 416 c 0,48,49
 762 416 762 416 759 426 c 2,50,-1
 504 1025 l 2,35,36
EndSplineSet
Validated: 1
EndChar

StartChar: uniF087
Encoding: 61575 61575 71
Width: 1541
GlyphClass: 1
Flags: W
LayerCount: 2
Fore
SplineSet
0 769 m 0,0,1
 0 926 0 926 61.5 1069 c 128,-1,2
 123 1212 123 1212 226.5 1315.5 c 128,-1,3
 330 1419 330 1419 472.5 1480 c 128,-1,4
 615 1541 615 1541 771 1541 c 128,-1,5
 927 1541 927 1541 1070 1480 c 128,-1,6
 1213 1419 1213 1419 1316 1315.5 c 128,-1,7
 1419 1212 1419 1212 1480.5 1069 c 128,-1,8
 1542 926 1542 926 1542 769 c 128,-1,9
 1542 612 1542 612 1480.5 469 c 128,-1,10
 1419 326 1419 326 1315.5 223.5 c 128,-1,11
 1212 121 1212 121 1069.5 60 c 128,-1,12
 927 -1 927 -1 771 -1 c 0,13,14
 614 -1 614 -1 471 60 c 128,-1,15
 328 121 328 121 225 224.5 c 128,-1,16
 122 328 122 328 61 470.5 c 128,-1,17
 0 613 0 613 0 769 c 0,0,1
170 769 m 0,18,19
 170 524 170 524 349 345 c 0,20,21
 526 168 526 168 771 168 c 0,22,23
 934 168 934 168 1073 249 c 128,-1,24
 1212 330 1212 330 1293 468.5 c 128,-1,25
 1374 607 1374 607 1374 769 c 128,-1,26
 1374 931 1374 931 1293 1069.5 c 128,-1,27
 1212 1208 1212 1208 1073 1289 c 128,-1,28
 934 1370 934 1370 771 1370 c 0,29,30
 609 1370 609 1370 470.5 1289 c 128,-1,31
 332 1208 332 1208 251 1069.5 c 128,-1,32
 170 931 170 931 170 769 c 0,18,19
418 769 m 128,-1,34
 418 778 418 778 430 779 c 2,35,-1
 1031 1037 l 2,36,37
 1042 1042 1042 1042 1047.5 1035.5 c 128,-1,38
 1053 1029 1053 1029 1048 1019 c 2,39,-1
 959 779 l 2,40,41
 952 769 952 769 959 759 c 2,42,-1
 1048 521 l 2,43,44
 1053 511 1053 511 1047.5 505 c 128,-1,45
 1042 499 1042 499 1031 504 c 2,46,-1
 430 759 l 2,47,33
 418 760 418 760 418 769 c 128,-1,34
EndSplineSet
Validated: 1
EndChar

StartChar: uniF090
Encoding: 61584 61584 72
Width: 1732
GlyphClass: 1
Flags: W
LayerCount: 2
Fore
SplineSet
-72 725 m 0,0,1
 -72 757 -72 757 -50 779 c 0,2,3
 -27 801 -27 801 3 801 c 2,4,-1
 184 801 l 2,5,6
 214 801 214 801 234.5 778.5 c 128,-1,7
 255 756 255 756 255 724.5 c 128,-1,8
 255 693 255 693 234.5 671 c 128,-1,9
 214 649 214 649 184 649 c 2,10,-1
 3 649 l 2,11,12
 -27 649 -27 649 -49.5 671.5 c 128,-1,13
 -72 694 -72 694 -72 725 c 0,0,1
180 113 m 256,14,15
 180 143 180 143 201 166 c 2,16,-1
 331 292 l 2,17,18
 351 313 351 313 383 313 c 256,19,20
 415 313 415 313 436 293 c 128,-1,21
 457 273 457 273 457 243 c 0,22,23
 457 210 457 210 435 186 c 2,24,-1
 309 60 l 1,25,26
 256 18 256 18 201 60 c 1,27,28
 180 83 180 83 180 113 c 256,14,15
180 1336 m 0,29,30
 180 1366 180 1366 201 1390 c 1,31,32
 227 1411 227 1411 257 1411 c 0,33,34
 286 1411 286 1411 309 1390 c 2,35,-1
 435 1260 l 2,36,37
 457 1240 457 1240 457 1207 c 0,38,39
 457 1176 457 1176 436 1155 c 128,-1,40
 415 1134 415 1134 383 1134 c 256,41,42
 351 1134 351 1134 331 1155 c 2,43,-1
 201 1281 l 2,44,45
 180 1303 180 1303 180 1336 c 0,29,30
405 725 m 0,46,47
 405 848 405 848 467.5 954.5 c 128,-1,48
 530 1061 530 1061 636 1123 c 128,-1,49
 742 1185 742 1185 866 1185 c 0,50,51
 958 1185 958 1185 1043.5 1148 c 128,-1,52
 1129 1111 1129 1111 1190.5 1049.5 c 128,-1,53
 1252 988 1252 988 1288.5 902.5 c 128,-1,54
 1325 817 1325 817 1325 725 c 0,55,56
 1325 600 1325 600 1263.5 494 c 128,-1,57
 1202 388 1202 388 1096 326.5 c 128,-1,58
 990 265 990 265 865.5 265 c 128,-1,59
 741 265 741 265 635.5 326.5 c 128,-1,60
 530 388 530 388 467.5 494 c 128,-1,61
 405 600 405 600 405 725 c 0,46,47
555 725 m 0,62,63
 555 595 555 595 645.5 503.5 c 128,-1,64
 736 412 736 412 865.5 412 c 128,-1,65
 995 412 995 412 1086.5 503.5 c 128,-1,66
 1178 595 1178 595 1178 725 c 0,67,68
 1178 852 1178 852 1086.5 942.5 c 128,-1,69
 995 1033 995 1033 866 1033 c 256,70,71
 737 1033 737 1033 646 942.5 c 128,-1,72
 555 852 555 852 555 725 c 0,62,63
790 38 m 2,73,74
 790 70 790 70 812 91.5 c 128,-1,75
 834 113 834 113 866 113 c 256,76,77
 898 113 898 113 919.5 91.5 c 128,-1,78
 941 70 941 70 941 38 c 2,79,-1
 941 -137 l 2,80,81
 941 -170 941 -170 919 -192 c 128,-1,82
 897 -214 897 -214 865.5 -214 c 128,-1,83
 834 -214 834 -214 812 -192 c 128,-1,84
 790 -170 790 -170 790 -137 c 2,85,-1
 790 38 l 2,73,74
790 1407 m 2,86,-1
 790 1587 l 2,87,88
 790 1618 790 1618 812.5 1640.5 c 128,-1,89
 835 1663 835 1663 865.5 1663 c 128,-1,90
 896 1663 896 1663 918.5 1640.5 c 128,-1,91
 941 1618 941 1618 941 1587 c 2,92,-1
 941 1407 l 2,93,94
 941 1376 941 1376 919 1356 c 128,-1,95
 897 1336 897 1336 865.5 1336 c 128,-1,96
 834 1336 834 1336 812 1356 c 128,-1,97
 790 1376 790 1376 790 1407 c 2,86,-1
1278 243 m 0,98,99
 1278 273 1278 273 1298 292 c 0,100,101
 1317 313 1317 313 1347 313 c 0,102,103
 1380 313 1380 313 1400 292 c 2,104,-1
 1529 166 l 2,105,106
 1551 143 1551 143 1551 112.5 c 128,-1,107
 1551 82 1551 82 1529 60 c 0,108,109
 1476 19 1476 19 1423 60 c 1,110,-1
 1298 186 l 2,111,112
 1278 209 1278 209 1278 243 c 0,98,99
1278 1207 m 0,113,114
 1278 1240 1278 1240 1298 1260 c 2,115,-1
 1423 1390 l 2,116,117
 1447 1411 1447 1411 1476 1411 c 0,118,119
 1507 1411 1507 1411 1529 1388.5 c 128,-1,120
 1551 1366 1551 1366 1551 1336 c 0,121,122
 1551 1303 1551 1303 1529 1281 c 2,123,-1
 1400 1155 l 2,124,125
 1376 1134 1376 1134 1347 1134 c 0,126,127
 1317 1134 1317 1134 1297.5 1155 c 128,-1,128
 1278 1176 1278 1176 1278 1207 c 0,113,114
1477 724.5 m 128,-1,130
 1477 756 1477 756 1499 779 c 0,131,132
 1520 801 1520 801 1549 801 c 2,133,-1
 1728 801 l 2,134,135
 1759 801 1759 801 1781.5 778 c 128,-1,136
 1804 755 1804 755 1804 724.5 c 128,-1,137
 1804 694 1804 694 1781.5 671.5 c 128,-1,138
 1759 649 1759 649 1728 649 c 2,139,-1
 1549 649 l 2,140,141
 1519 649 1519 649 1498 671 c 128,-1,129
 1477 693 1477 693 1477 724.5 c 128,-1,130
EndSplineSet
Validated: 33
EndChar

StartChar: uniF091
Encoding: 61585 61585 73
Width: 1537
GlyphClass: 1
Flags: W
LayerCount: 2
Fore
SplineSet
768 0 m 1,0,1
 977 0 977 0 1154 103 c 128,-1,2
 1331 206 1331 206 1434 383 c 128,-1,3
 1537 560 1537 560 1537 769 c 128,-1,4
 1537 978 1537 978 1434 1154.5 c 128,-1,5
 1331 1331 1331 1331 1154 1434 c 128,-1,6
 977 1537 977 1537 768 1537 c 1,7,8
 939 1240 939 1240 939 769 c 0,9,10
 939 530 939 530 903.5 339 c 128,-1,11
 868 148 868 148 768 0 c 1,0,1
EndSplineSet
Validated: 9
EndChar

StartChar: uniF092
Encoding: 61586 61586 74
Width: 1537
GlyphClass: 1
Flags: W
LayerCount: 2
Fore
SplineSet
0 769 m 128,-1,1
 0 560 0 560 103 383 c 128,-1,2
 206 206 206 206 383 103 c 128,-1,3
 560 0 560 0 769 0 c 128,-1,4
 978 0 978 0 1154.5 103 c 128,-1,5
 1331 206 1331 206 1434 383 c 128,-1,6
 1537 560 1537 560 1537 769 c 128,-1,7
 1537 978 1537 978 1434 1154.5 c 128,-1,8
 1331 1331 1331 1331 1154.5 1434 c 128,-1,9
 978 1537 978 1537 769 1537 c 128,-1,10
 560 1537 560 1537 383 1434 c 128,-1,11
 206 1331 206 1331 103 1154.5 c 128,-1,0
 0 978 0 978 0 769 c 128,-1,1
EndSplineSet
Validated: 9
EndChar

StartChar: uniF0B0
Encoding: 61616 61616 75
Width: 2048
GlyphClass: 1
Flags: W
LayerCount: 2
Fore
SplineSet
1118 -101 m 1,0,-1
 1121 -104 l 1,1,-1
 1118 -101 l 1,0,-1
1069 -108 m 1,2,-1
 1073 -111 l 1,3,-1
 1069 -108 l 1,2,-1
1314 -39 m 1,4,-1
 1317 -42 l 1,5,-1
 1314 -39 l 1,4,-1
718 -46 m 1,6,-1
 721 -49 l 1,7,-1
 718 -46 l 1,6,-1
777 -72 m 1,8,-1
 780 -75 l 1,9,-1
 777 -72 l 1,8,-1
694 -33 m 1,10,-1
 697 -36 l 1,11,-1
 694 -33 l 1,10,-1
1379 0 m 1,12,-1
 1383 -4 l 1,13,-1
 1379 0 l 1,12,-1
1414 26 m 1,14,-1
 1417 22 l 1,15,-1
 1414 26 l 1,14,-1
635 6 m 1,16,-1
 639 3 l 1,17,-1
 635 6 l 1,16,-1
608 29 m 1,18,-1
 611 26 l 1,19,-1
 608 29 l 1,18,-1
508 146 m 1,20,-1
 511 143 l 1,21,-1
 508 146 l 1,20,-1
1521 146 m 1,22,-1
 1524 143 l 1,23,-1
 1521 146 l 1,22,-1
580 55 m 1,24,-1
 584 52 l 1,25,-1
 580 55 l 1,24,-1
1535 169 m 1,26,-1
 1538 166 l 1,27,-1
 1535 169 l 1,26,-1
494 169 m 1,28,-1
 498 166 l 1,29,-1
 494 169 l 1,28,-1
439 292 m 1,30,-1
 442 289 l 1,31,-1
 439 292 l 1,30,-1
1576 253 m 1,32,-1
 1579 250 l 1,33,-1
 1576 253 l 1,32,-1
422 351 m 1,34,-1
 425 348 l 1,35,-1
 422 351 l 1,34,-1
425 338 m 1,36,-1
 429 334 l 1,37,-1
 425 338 l 1,36,-1
408 416 m 1,38,-1
 411 412 l 1,39,-1
 408 416 l 1,38,-1
1628 783 m 1,40,-1
 1631 780 l 1,41,-1
 1628 783 l 1,40,-1
401 809 m 1,42,-1
 405 806 l 1,43,-1
 401 809 l 1,42,-1
611 806 m 1,44,-1
 615 802 l 1,45,-1
 611 806 l 1,44,-1
591 832 m 1,46,-1
 594 828 l 1,47,-1
 591 832 l 1,46,-1
1624 812 m 1,48,-1
 1628 809 l 1,49,-1
 1624 812 l 1,48,-1
584 842 m 1,50,-1
 587 838 l 1,51,-1
 584 842 l 1,50,-1
535 932 m 1,52,-1
 539 929 l 1,53,-1
 535 932 l 1,52,-1
1421 929 m 1,54,-1
 1424 926 l 1,55,-1
 1421 929 l 1,54,-1
1197 920 m 1,56,-1
 1200 916 l 1,57,-1
 1197 920 l 1,56,-1
542 916 m 1,58,-1
 546 913 l 1,59,-1
 542 916 l 1,58,-1
1204 906 m 1,60,-1
 1207 903 l 1,61,-1
 1204 906 l 1,60,-1
1400 897 m 1,62,-1
 1404 894 l 1,63,-1
 1400 897 l 1,62,-1
697 887 m 1,64,-1
 701 884 l 1,65,-1
 697 887 l 1,64,-1
1228 871 m 1,66,-1
 1231 868 l 1,67,-1
 1228 871 l 1,66,-1
1255 845 m 1,68,-1
 1259 842 l 1,69,-1
 1255 845 l 1,68,-1
418 936 m 1,70,-1
 422 932 l 1,71,-1
 418 936 l 1,70,-1
1603 939 m 1,72,-1
 1607 936 l 1,73,-1
 1603 939 l 1,72,-1
1600 955 m 1,74,-1
 1603 952 l 1,75,-1
 1600 955 l 1,74,-1
1597 972 m 1,76,-1
 1600 968 l 1,77,-1
 1597 972 l 1,76,-1
715 988 m 1,78,-1
 718 984 l 1,79,-1
 715 988 l 1,78,-1
721 1017 m 1,80,-1
 725 1014 l 1,81,-1
 721 1017 l 1,80,-1
1159 1017 m 1,82,-1
 1162 1014 l 1,83,-1
 1159 1017 l 1,82,-1
801 1218 m 1,84,-1
 804 1215 l 1,85,-1
 801 1218 l 1,84,-1
739 1076 m 1,86,-1
 742 1072 l 1,87,-1
 739 1076 l 1,86,-1
1100 1277 m 1,88,-1
 1104 1274 l 1,89,-1
 1100 1277 l 1,88,-1
904 1362 m 1,90,-1
 908 1358 l 1,91,-1
 904 1362 l 1,90,-1
873 1326 m 1,92,-1
 877 1322 l 1,93,-1
 873 1326 l 1,92,-1
863 1313 m 1,94,-1
 866 1310 l 1,95,-1
 863 1313 l 1,94,-1
1097 1300 m 1,96,-1
 1100 1296 l 1,97,-1
 1097 1300 l 1,96,-1
973 1426 m 1,98,-1
 976 1423 l 1,99,-1
 973 1426 l 1,98,-1
994 1443 m 1,100,-1
 997 1440 l 1,101,-1
 994 1443 l 1,100,-1
1059 1443 m 1,102,-1
 1063 1440 l 1,103,-1
 1059 1443 l 1,102,-1
690 744 m 1,104,105
 690 1093 690 1093 870 1319 c 0,106,107
 928 1392 928 1392 987 1435 c 0,108,109
 1032 1469 1032 1469 1069 1435 c 0,110,111
 1082 1423 1082 1423 1088 1381 c 0,112,113
 1101 1280 1101 1280 1102 1274 c 0,114,115
 1159 1017 1159 1017 1173 981 c 0,116,117
 1209 880 1209 880 1259 843 c 0,118,119
 1312 805 1312 805 1369 858 c 0,120,121
 1426 912 1426 912 1459 1010 c 0,122,123
 1460 1015 1460 1015 1464 1029.5 c 128,-1,124
 1468 1044 1468 1044 1470.5 1051 c 128,-1,125
 1473 1058 1473 1058 1480 1067 c 128,-1,126
 1487 1076 1487 1076 1497 1081 c 0,127,128
 1506 1085 1506 1085 1521 1085 c 0,129,130
 1545 1086 1545 1086 1560 1072.5 c 128,-1,131
 1575 1059 1575 1059 1579 1047 c 128,-1,132
 1583 1035 1583 1035 1590 1007 c 0,133,134
 1630 847 1630 847 1638 689 c 0,135,136
 1656 300 1656 300 1487 94 c 0,137,138
 1332 -94 1332 -94 1049.5 -112.5 c 128,-1,139
 767 -131 767 -131 591 42 c 0,140,141
 363 270 363 270 397 741 c 0,142,143
 405 849 405 849 417 920 c 0,144,145
 427 975 427 975 463 981 c 0,146,147
 480 983 480 983 492.5 980.5 c 128,-1,148
 505 978 505 978 514 968 c 128,-1,149
 523 958 523 958 527.5 951 c 128,-1,150
 532 944 532 944 539.5 926.5 c 128,-1,151
 547 909 547 909 550 903 c 0,152,153
 614 778 614 778 690 744 c 1,104,105
EndSplineSet
Validated: 37
EndChar

StartChar: uniF0B1
Encoding: 61617 61617 76
Width: 1920
GlyphClass: 1
Flags: W
LayerCount: 2
Fore
SplineSet
1433 1287 m 2,0,1
 1443 1277 1443 1277 1443 1264 c 128,-1,2
 1443 1251 1443 1251 1433 1241 c 2,3,-1
 807 615 l 2,4,5
 797 605 797 605 784 605 c 128,-1,6
 771 605 771 605 761 615 c 2,7,-1
 679 697 l 2,8,9
 669 707 669 707 669 720 c 128,-1,10
 669 733 669 733 679 743 c 2,11,-1
 723 787 l 1,12,13
 651 878 651 878 641.5 994 c 128,-1,14
 632 1110 632 1110 688 1209 c 1,15,16
 614 1280 614 1280 512 1280 c 0,17,18
 406 1280 406 1280 331 1205 c 128,-1,19
 256 1130 256 1130 256 1024 c 2,20,-1
 256 -256 l 1,21,-1
 0 -256 l 1,22,-1
 0 1024 l 2,23,24
 0 1128 0 1128 40.5 1222.5 c 128,-1,25
 81 1317 81 1317 150 1386 c 128,-1,26
 219 1455 219 1455 313.5 1495.5 c 128,-1,27
 408 1536 408 1536 512 1536 c 0,28,29
 618 1536 618 1536 713 1495 c 128,-1,30
 808 1454 808 1454 879 1380 c 1,31,32
 973 1419 973 1419 1076 1404.5 c 128,-1,33
 1179 1390 1179 1390 1261 1325 c 1,34,-1
 1305 1369 l 2,35,36
 1315 1379 1315 1379 1328 1379 c 128,-1,37
 1341 1379 1341 1379 1351 1369 c 2,38,-1
 1433 1287 l 2,0,1
1344 1024 m 128,-1,40
 1370 1024 1370 1024 1389 1005 c 128,-1,41
 1408 986 1408 986 1408 960 c 128,-1,42
 1408 934 1408 934 1389 915 c 128,-1,43
 1370 896 1370 896 1344 896 c 128,-1,44
 1318 896 1318 896 1299 915 c 128,-1,45
 1280 934 1280 934 1280 960 c 128,-1,46
 1280 986 1280 986 1299 1005 c 128,-1,39
 1318 1024 1318 1024 1344 1024 c 128,-1,40
1600 896 m 128,-1,48
 1574 896 1574 896 1555 915 c 128,-1,49
 1536 934 1536 934 1536 960 c 128,-1,50
 1536 986 1536 986 1555 1005 c 128,-1,51
 1574 1024 1574 1024 1600 1024 c 128,-1,52
 1626 1024 1626 1024 1645 1005 c 128,-1,53
 1664 986 1664 986 1664 960 c 128,-1,54
 1664 934 1664 934 1645 915 c 128,-1,47
 1626 896 1626 896 1600 896 c 128,-1,48
1856 1024 m 128,-1,56
 1882 1024 1882 1024 1901 1005 c 128,-1,57
 1920 986 1920 986 1920 960 c 128,-1,58
 1920 934 1920 934 1901 915 c 128,-1,59
 1882 896 1882 896 1856 896 c 128,-1,60
 1830 896 1830 896 1811 915 c 128,-1,61
 1792 934 1792 934 1792 960 c 128,-1,62
 1792 986 1792 986 1811 1005 c 128,-1,55
 1830 1024 1830 1024 1856 1024 c 128,-1,56
1216 896 m 128,-1,64
 1242 896 1242 896 1261 877 c 128,-1,65
 1280 858 1280 858 1280 832 c 128,-1,66
 1280 806 1280 806 1261 787 c 128,-1,67
 1242 768 1242 768 1216 768 c 128,-1,68
 1190 768 1190 768 1171 787 c 128,-1,69
 1152 806 1152 806 1152 832 c 128,-1,70
 1152 858 1152 858 1171 877 c 128,-1,63
 1190 896 1190 896 1216 896 c 128,-1,64
1408 832 m 128,-1,72
 1408 858 1408 858 1427 877 c 128,-1,73
 1446 896 1446 896 1472 896 c 128,-1,74
 1498 896 1498 896 1517 877 c 128,-1,75
 1536 858 1536 858 1536 832 c 128,-1,76
 1536 806 1536 806 1517 787 c 128,-1,77
 1498 768 1498 768 1472 768 c 128,-1,78
 1446 768 1446 768 1427 787 c 128,-1,71
 1408 806 1408 806 1408 832 c 128,-1,72
1728 896 m 128,-1,80
 1754 896 1754 896 1773 877 c 128,-1,81
 1792 858 1792 858 1792 832 c 128,-1,82
 1792 806 1792 806 1773 787 c 128,-1,83
 1754 768 1754 768 1728 768 c 128,-1,84
 1702 768 1702 768 1683 787 c 128,-1,85
 1664 806 1664 806 1664 832 c 128,-1,86
 1664 858 1664 858 1683 877 c 128,-1,79
 1702 896 1702 896 1728 896 c 128,-1,80
1088 768 m 128,-1,88
 1114 768 1114 768 1133 749 c 128,-1,89
 1152 730 1152 730 1152 704 c 128,-1,90
 1152 678 1152 678 1133 659 c 128,-1,91
 1114 640 1114 640 1088 640 c 128,-1,92
 1062 640 1062 640 1043 659 c 128,-1,93
 1024 678 1024 678 1024 704 c 128,-1,94
 1024 730 1024 730 1043 749 c 128,-1,87
 1062 768 1062 768 1088 768 c 128,-1,88
1344 640 m 128,-1,96
 1318 640 1318 640 1299 659 c 128,-1,97
 1280 678 1280 678 1280 704 c 128,-1,98
 1280 730 1280 730 1299 749 c 128,-1,99
 1318 768 1318 768 1344 768 c 128,-1,100
 1370 768 1370 768 1389 749 c 128,-1,101
 1408 730 1408 730 1408 704 c 128,-1,102
 1408 678 1408 678 1389 659 c 128,-1,95
 1370 640 1370 640 1344 640 c 128,-1,96
1600 768 m 128,-1,104
 1626 768 1626 768 1645 749 c 128,-1,105
 1664 730 1664 730 1664 704 c 128,-1,106
 1664 678 1664 678 1645 659 c 128,-1,107
 1626 640 1626 640 1600 640 c 128,-1,108
 1574 640 1574 640 1555 659 c 128,-1,109
 1536 678 1536 678 1536 704 c 128,-1,110
 1536 730 1536 730 1555 749 c 128,-1,103
 1574 768 1574 768 1600 768 c 128,-1,104
1216 512 m 128,-1,112
 1190 512 1190 512 1171 531 c 128,-1,113
 1152 550 1152 550 1152 576 c 128,-1,114
 1152 602 1152 602 1171 621 c 128,-1,115
 1190 640 1190 640 1216 640 c 128,-1,116
 1242 640 1242 640 1261 621 c 128,-1,117
 1280 602 1280 602 1280 576 c 128,-1,118
 1280 550 1280 550 1261 531 c 128,-1,111
 1242 512 1242 512 1216 512 c 128,-1,112
1472 640 m 128,-1,120
 1498 640 1498 640 1517 621 c 128,-1,121
 1536 602 1536 602 1536 576 c 128,-1,122
 1536 550 1536 550 1517 531 c 128,-1,123
 1498 512 1498 512 1472 512 c 128,-1,124
 1446 512 1446 512 1427 531 c 128,-1,125
 1408 550 1408 550 1408 576 c 128,-1,126
 1408 602 1408 602 1427 621 c 128,-1,119
 1446 640 1446 640 1472 640 c 128,-1,120
1088 512 m 128,-1,128
 1114 512 1114 512 1133 493 c 128,-1,129
 1152 474 1152 474 1152 448 c 128,-1,130
 1152 422 1152 422 1133 403 c 128,-1,131
 1114 384 1114 384 1088 384 c 128,-1,132
 1062 384 1062 384 1043 403 c 128,-1,133
 1024 422 1024 422 1024 448 c 128,-1,134
 1024 474 1024 474 1043 493 c 128,-1,127
 1062 512 1062 512 1088 512 c 128,-1,128
1344 512 m 128,-1,136
 1370 512 1370 512 1389 493 c 128,-1,137
 1408 474 1408 474 1408 448 c 128,-1,138
 1408 422 1408 422 1389 403 c 128,-1,139
 1370 384 1370 384 1344 384 c 128,-1,140
 1318 384 1318 384 1299 403 c 128,-1,141
 1280 422 1280 422 1280 448 c 128,-1,142
 1280 474 1280 474 1299 493 c 128,-1,135
 1318 512 1318 512 1344 512 c 128,-1,136
1216 384 m 128,-1,144
 1242 384 1242 384 1261 365 c 128,-1,145
 1280 346 1280 346 1280 320 c 128,-1,146
 1280 294 1280 294 1261 275 c 128,-1,147
 1242 256 1242 256 1216 256 c 128,-1,148
 1190 256 1190 256 1171 275 c 128,-1,149
 1152 294 1152 294 1152 320 c 128,-1,150
 1152 346 1152 346 1171 365 c 128,-1,143
 1190 384 1190 384 1216 384 c 128,-1,144
1088 256 m 128,-1,152
 1114 256 1114 256 1133 237 c 128,-1,153
 1152 218 1152 218 1152 192 c 128,-1,154
 1152 166 1152 166 1133 147 c 128,-1,155
 1114 128 1114 128 1088 128 c 128,-1,156
 1062 128 1062 128 1043 147 c 128,-1,157
 1024 166 1024 166 1024 192 c 128,-1,158
 1024 218 1024 218 1043 237 c 128,-1,151
 1062 256 1062 256 1088 256 c 128,-1,152
EndSplineSet
Validated: 33
EndChar

StartChar: uniF0B2
Encoding: 61618 61618 77
Width: 1536
GlyphClass: 1
Flags: W
LayerCount: 2
Fore
SplineSet
1024 230 m 2,0,-1
 1024 390 l 2,1,2
 1024 404 1024 404 1015 413 c 128,-1,3
 1006 422 1006 422 992 422 c 2,4,-1
 896 422 l 1,5,-1
 896 934 l 2,6,7
 896 948 896 948 887 957 c 128,-1,8
 878 966 878 966 864 966 c 2,9,-1
 544 966 l 2,10,11
 530 966 530 966 521 957 c 128,-1,12
 512 948 512 948 512 934 c 2,13,-1
 512 774 l 2,14,15
 512 760 512 760 521 751 c 128,-1,16
 530 742 530 742 544 742 c 2,17,-1
 640 742 l 1,18,-1
 640 422 l 1,19,-1
 544 422 l 2,20,21
 530 422 530 422 521 413 c 128,-1,22
 512 404 512 404 512 390 c 2,23,-1
 512 230 l 2,24,25
 512 216 512 216 521 207 c 128,-1,26
 530 198 530 198 544 198 c 2,27,-1
 992 198 l 2,28,29
 1006 198 1006 198 1015 207 c 128,-1,30
 1024 216 1024 216 1024 230 c 2,0,-1
896 1126 m 2,31,-1
 896 1286 l 2,32,33
 896 1300 896 1300 887 1309 c 128,-1,34
 878 1318 878 1318 864 1318 c 2,35,-1
 672 1318 l 2,36,37
 658 1318 658 1318 649 1309 c 128,-1,38
 640 1300 640 1300 640 1286 c 2,39,-1
 640 1126 l 2,40,41
 640 1112 640 1112 649 1103 c 128,-1,42
 658 1094 658 1094 672 1094 c 2,43,-1
 864 1094 l 2,44,45
 878 1094 878 1094 887 1103 c 128,-1,46
 896 1112 896 1112 896 1126 c 2,31,-1
1536 710 m 128,-1,48
 1536 501 1536 501 1433 324.5 c 128,-1,49
 1330 148 1330 148 1153.5 45 c 128,-1,50
 977 -58 977 -58 768 -58 c 128,-1,51
 559 -58 559 -58 382.5 45 c 128,-1,52
 206 148 206 148 103 324.5 c 128,-1,53
 0 501 0 501 0 710 c 128,-1,54
 0 919 0 919 103 1095.5 c 128,-1,55
 206 1272 206 1272 382.5 1375 c 128,-1,56
 559 1478 559 1478 768 1478 c 128,-1,57
 977 1478 977 1478 1153.5 1375 c 128,-1,58
 1330 1272 1330 1272 1433 1095.5 c 128,-1,47
 1536 919 1536 919 1536 710 c 128,-1,48
EndSplineSet
Validated: 1
EndChar

StartChar: uniF0B3
Encoding: 61619 61619 78
Width: 1537
GlyphClass: 1
Flags: W
LayerCount: 2
Fore
SplineSet
0 769 m 128,-1,1
 0 925 0 925 61 1067 c 128,-1,2
 122 1209 122 1209 225 1312 c 128,-1,3
 328 1415 328 1415 470 1476 c 128,-1,4
 612 1537 612 1537 768 1537 c 128,-1,5
 924 1537 924 1537 1066.5 1476 c 128,-1,6
 1209 1415 1209 1415 1312 1312 c 128,-1,7
 1415 1209 1415 1209 1476 1067 c 128,-1,8
 1537 925 1537 925 1537 769 c 128,-1,9
 1537 613 1537 613 1476 470.5 c 128,-1,10
 1415 328 1415 328 1312 225 c 128,-1,11
 1209 122 1209 122 1066.5 61 c 128,-1,12
 924 0 924 0 768 0 c 128,-1,13
 612 0 612 0 470 61 c 128,-1,14
 328 122 328 122 225 225 c 128,-1,15
 122 328 122 328 61 470.5 c 128,-1,0
 0 613 0 613 0 769 c 128,-1,1
779 1455 m 1,16,17
 966 1125 966 1125 966 769 c 0,18,19
 966 343 966 343 785 82 c 1,20,21
 922 85 922 85 1046 141 c 128,-1,22
 1170 197 1170 197 1259.5 288.5 c 128,-1,23
 1349 380 1349 380 1402 505.5 c 128,-1,24
 1455 631 1455 631 1455 769 c 0,25,26
 1455 953 1455 953 1364.5 1110 c 128,-1,27
 1274 1267 1274 1267 1118.5 1359.5 c 128,-1,28
 963 1452 963 1452 779 1455 c 1,16,17
EndSplineSet
Validated: 1
EndChar

StartChar: uniF0B4
Encoding: 61620 61620 79
Width: 1636
GlyphClass: 1
Flags: W
LayerCount: 2
Fore
SplineSet
0 562 m 0,0,1
 0 598 0 598 25 621.5 c 128,-1,2
 50 645 50 645 93 645 c 2,3,-1
 702 645 l 2,4,5
 745 645 745 645 770 621.5 c 128,-1,6
 795 598 795 598 795 562 c 0,7,8
 795 518 795 518 770.5 493.5 c 128,-1,9
 746 469 746 469 702 469 c 2,10,-1
 93 469 l 2,11,12
 50 469 50 469 25 493.5 c 128,-1,13
 0 518 0 518 0 562 c 0,0,1
0 1193 m 0,14,15
 0 1229 0 1229 25 1252 c 128,-1,16
 50 1275 50 1275 93 1275 c 2,17,-1
 409 1275 l 2,18,19
 452 1275 452 1275 477.5 1252 c 128,-1,20
 503 1229 503 1229 503 1193 c 0,21,22
 503 1150 503 1150 477.5 1124.5 c 128,-1,23
 452 1099 452 1099 409 1099 c 2,24,-1
 93 1099 l 2,25,26
 50 1099 50 1099 25 1124 c 128,-1,27
 0 1149 0 1149 0 1193 c 0,14,15
105 247 m 0,28,29
 105 282 105 282 134.5 311.5 c 128,-1,30
 164 341 164 341 199 341 c 0,31,32
 240 341 240 341 265.5 312.5 c 128,-1,33
 291 284 291 284 291 247 c 0,34,35
 291 203 291 203 266.5 178 c 128,-1,36
 242 153 242 153 199 153 c 0,37,38
 162 153 162 153 133.5 179 c 128,-1,39
 105 205 105 205 105 247 c 0,28,29
257 879 m 0,40,41
 257 916 257 916 280.5 944.5 c 128,-1,42
 304 973 304 973 338 973 c 0,43,44
 380 973 380 973 406 944.5 c 128,-1,45
 432 916 432 916 432 879 c 0,46,47
 432 835 432 835 407 810 c 128,-1,48
 382 785 382 785 338 785 c 0,49,50
 302 785 302 785 279.5 810.5 c 128,-1,51
 257 836 257 836 257 879 c 0,40,41
362 247 m 0,52,53
 362 284 362 284 388 312.5 c 128,-1,54
 414 341 414 341 456 341 c 2,55,-1
 865 341 l 1,56,-1
 959 247 l 1,57,58
 959 205 959 205 930.5 179 c 128,-1,59
 902 153 902 153 865 153 c 2,60,-1
 456 153 l 2,61,62
 412 153 412 153 387 178.5 c 128,-1,63
 362 204 362 204 362 247 c 0,52,53
503 879 m 0,64,65
 503 914 503 914 532.5 943.5 c 128,-1,66
 562 973 562 973 597 973 c 2,67,-1
 1006 973 l 2,68,69
 1048 973 1048 973 1073.5 944.5 c 128,-1,70
 1099 916 1099 916 1099 879 c 0,71,72
 1099 835 1099 835 1074 810 c 128,-1,73
 1049 785 1049 785 1006 785 c 2,74,-1
 597 785 l 2,75,76
 560 785 560 785 531.5 811 c 128,-1,77
 503 837 503 837 503 879 c 0,64,65
584 1193 m 0,78,79
 584 1229 584 1229 609.5 1252 c 128,-1,80
 635 1275 635 1275 678 1275 c 2,81,-1
 1287 1275 l 2,82,83
 1323 1275 1323 1275 1352 1251 c 128,-1,84
 1381 1227 1381 1227 1381 1193 c 0,85,86
 1381 1151 1381 1151 1352.5 1125 c 128,-1,87
 1324 1099 1324 1099 1287 1099 c 2,88,-1
 678 1099 l 2,89,90
 634 1099 634 1099 609 1124.5 c 128,-1,91
 584 1150 584 1150 584 1193 c 0,78,79
865 562 m 0,92,93
 865 596 865 596 894 620.5 c 128,-1,94
 923 645 923 645 959 645 c 128,-1,95
 995 645 995 645 1024 620.5 c 128,-1,96
 1053 596 1053 596 1053 562 c 0,97,98
 1053 520 1053 520 1024.5 494.5 c 128,-1,99
 996 469 996 469 959 469 c 128,-1,100
 922 469 922 469 893.5 494.5 c 128,-1,101
 865 520 865 520 865 562 c 0,92,93
1029 247 m 0,102,103
 1029 284 1029 284 1054.5 312.5 c 128,-1,104
 1080 341 1080 341 1122 341 c 2,105,-1
 1321 341 l 2,106,107
 1363 341 1363 341 1388.5 313 c 128,-1,108
 1414 285 1414 285 1414 247 c 0,109,110
 1414 203 1414 203 1389.5 178 c 128,-1,111
 1365 153 1365 153 1321 153 c 2,112,-1
 1122 153 l 2,113,114
 1079 153 1079 153 1054 178 c 128,-1,115
 1029 203 1029 203 1029 247 c 0,102,103
1122 562 m 0,116,117
 1122 596 1122 596 1151 620.5 c 128,-1,118
 1180 645 1180 645 1216 645 c 2,119,-1
 1543 645 l 2,120,121
 1578 645 1578 645 1601 621 c 128,-1,122
 1624 597 1624 597 1624 562 c 0,123,124
 1624 519 1624 519 1601.5 494 c 128,-1,125
 1579 469 1579 469 1543 469 c 2,126,-1
 1216 469 l 2,127,128
 1179 469 1179 469 1150.5 494.5 c 128,-1,129
 1122 520 1122 520 1122 562 c 0,116,117
1169 879 m 0,130,131
 1169 914 1169 914 1198.5 943.5 c 128,-1,132
 1228 973 1228 973 1263 973 c 2,133,-1
 1472 973 l 2,134,135
 1506 973 1506 973 1530 944 c 128,-1,136
 1554 915 1554 915 1554 879 c 0,137,138
 1554 836 1554 836 1531 810.5 c 128,-1,139
 1508 785 1508 785 1472 785 c 2,140,-1
 1263 785 l 2,141,142
 1226 785 1226 785 1197.5 811 c 128,-1,143
 1169 837 1169 837 1169 879 c 0,130,131
1461 1193 m 0,144,145
 1461 1228 1461 1228 1484.5 1251.5 c 128,-1,146
 1508 1275 1508 1275 1543 1275 c 0,147,148
 1586 1275 1586 1275 1611.5 1252 c 128,-1,149
 1637 1229 1637 1229 1637 1193 c 0,150,151
 1637 1150 1637 1150 1611.5 1124.5 c 128,-1,152
 1586 1099 1586 1099 1543 1099 c 0,153,154
 1507 1099 1507 1099 1484 1124.5 c 128,-1,155
 1461 1150 1461 1150 1461 1193 c 0,144,145
EndSplineSet
Validated: 1
EndChar

StartChar: uniF0B5
Encoding: 61621 61621 80
Width: 2048
GlyphClass: 2
Flags: W
LayerCount: 2
Fore
SplineSet
1118 -101 m 1,0,-1
 1121 -104 l 1,1,-1
 1118 -101 l 1,0,-1
1069 -108 m 1,2,-1
 1073 -111 l 1,3,-1
 1069 -108 l 1,2,-1
1314 -39 m 1,4,-1
 1317 -42 l 1,5,-1
 1314 -39 l 1,4,-1
718 -46 m 1,6,-1
 721 -49 l 1,7,-1
 718 -46 l 1,6,-1
777 -72 m 1,8,-1
 780 -75 l 1,9,-1
 777 -72 l 1,8,-1
694 -33 m 1,10,-1
 697 -36 l 1,11,-1
 694 -33 l 1,10,-1
1379 0 m 1,12,-1
 1383 -4 l 1,13,-1
 1379 0 l 1,12,-1
1414 26 m 1,14,-1
 1417 22 l 1,15,-1
 1414 26 l 1,14,-1
635 6 m 1,16,-1
 639 3 l 1,17,-1
 635 6 l 1,16,-1
608 29 m 1,18,-1
 611 26 l 1,19,-1
 608 29 l 1,18,-1
508 146 m 1,20,-1
 511 143 l 1,21,-1
 508 146 l 1,20,-1
1521 146 m 1,22,-1
 1524 143 l 1,23,-1
 1521 146 l 1,22,-1
580 55 m 1,24,-1
 584 52 l 1,25,-1
 580 55 l 1,24,-1
1535 169 m 1,26,-1
 1538 166 l 1,27,-1
 1535 169 l 1,26,-1
494 169 m 1,28,-1
 498 166 l 1,29,-1
 494 169 l 1,28,-1
439 292 m 1,30,-1
 442 289 l 1,31,-1
 439 292 l 1,30,-1
1576 253 m 1,32,-1
 1579 250 l 1,33,-1
 1576 253 l 1,32,-1
422 351 m 1,34,-1
 425 348 l 1,35,-1
 422 351 l 1,34,-1
425 338 m 1,36,-1
 429 334 l 1,37,-1
 425 338 l 1,36,-1
408 416 m 1,38,-1
 411 412 l 1,39,-1
 408 416 l 1,38,-1
1628 783 m 1,40,-1
 1631 780 l 1,41,-1
 1628 783 l 1,40,-1
401 809 m 1,42,-1
 405 806 l 1,43,-1
 401 809 l 1,42,-1
611 806 m 1,44,-1
 615 802 l 1,45,-1
 611 806 l 1,44,-1
591 832 m 1,46,-1
 594 828 l 1,47,-1
 591 832 l 1,46,-1
1624 812 m 1,48,-1
 1628 809 l 1,49,-1
 1624 812 l 1,48,-1
584 842 m 1,50,-1
 587 838 l 1,51,-1
 584 842 l 1,50,-1
535 932 m 1,52,-1
 539 929 l 1,53,-1
 535 932 l 1,52,-1
1421 929 m 1,54,-1
 1424 926 l 1,55,-1
 1421 929 l 1,54,-1
1197 920 m 1,56,-1
 1200 916 l 1,57,-1
 1197 920 l 1,56,-1
542 916 m 1,58,-1
 546 913 l 1,59,-1
 542 916 l 1,58,-1
1204 906 m 1,60,-1
 1207 903 l 1,61,-1
 1204 906 l 1,60,-1
1400 897 m 1,62,-1
 1404 894 l 1,63,-1
 1400 897 l 1,62,-1
697 887 m 1,64,-1
 701 884 l 1,65,-1
 697 887 l 1,64,-1
1228 871 m 1,66,-1
 1231 868 l 1,67,-1
 1228 871 l 1,66,-1
1255 845 m 1,68,-1
 1259 842 l 1,69,-1
 1255 845 l 1,68,-1
418 936 m 1,70,-1
 422 932 l 1,71,-1
 418 936 l 1,70,-1
1603 939 m 1,72,-1
 1607 936 l 1,73,-1
 1603 939 l 1,72,-1
1600 955 m 1,74,-1
 1603 952 l 1,75,-1
 1600 955 l 1,74,-1
1597 972 m 1,76,-1
 1600 968 l 1,77,-1
 1597 972 l 1,76,-1
715 988 m 1,78,-1
 718 984 l 1,79,-1
 715 988 l 1,78,-1
721 1017 m 1,80,-1
 725 1014 l 1,81,-1
 721 1017 l 1,80,-1
1159 1017 m 1,82,-1
 1162 1014 l 1,83,-1
 1159 1017 l 1,82,-1
801 1218 m 1,84,-1
 804 1215 l 1,85,-1
 801 1218 l 1,84,-1
739 1076 m 1,86,-1
 742 1072 l 1,87,-1
 739 1076 l 1,86,-1
1100 1277 m 1,88,-1
 1104 1274 l 1,89,-1
 1100 1277 l 1,88,-1
904 1362 m 1,90,-1
 908 1358 l 1,91,-1
 904 1362 l 1,90,-1
873 1326 m 1,92,-1
 877 1322 l 1,93,-1
 873 1326 l 1,92,-1
863 1313 m 1,94,-1
 866 1310 l 1,95,-1
 863 1313 l 1,94,-1
1097 1300 m 1,96,-1
 1100 1296 l 1,97,-1
 1097 1300 l 1,96,-1
973 1426 m 1,98,-1
 976 1423 l 1,99,-1
 973 1426 l 1,98,-1
994 1443 m 1,100,-1
 997 1440 l 1,101,-1
 994 1443 l 1,100,-1
1059 1443 m 1,102,-1
 1063 1440 l 1,103,-1
 1059 1443 l 1,102,-1
690 744 m 1,104,105
 690 1093 690 1093 870 1319 c 0,106,107
 928 1392 928 1392 987 1435 c 0,108,109
 1032 1469 1032 1469 1069 1435 c 0,110,111
 1082 1423 1082 1423 1088 1381 c 0,112,113
 1101 1280 1101 1280 1102 1274 c 0,114,115
 1159 1017 1159 1017 1173 981 c 0,116,117
 1209 880 1209 880 1259 843 c 0,118,119
 1312 805 1312 805 1369 858 c 0,120,121
 1426 912 1426 912 1459 1010 c 0,122,123
 1460 1015 1460 1015 1464 1029.5 c 128,-1,124
 1468 1044 1468 1044 1470.5 1051 c 128,-1,125
 1473 1058 1473 1058 1480 1067 c 128,-1,126
 1487 1076 1487 1076 1497 1081 c 0,127,128
 1506 1085 1506 1085 1521 1085 c 0,129,130
 1545 1086 1545 1086 1560 1072.5 c 128,-1,131
 1575 1059 1575 1059 1579 1047 c 128,-1,132
 1583 1035 1583 1035 1590 1007 c 0,133,134
 1630 847 1630 847 1638 689 c 0,135,136
 1656 300 1656 300 1487 94 c 0,137,138
 1332 -94 1332 -94 1049.5 -112.5 c 128,-1,139
 767 -131 767 -131 591 42 c 0,140,141
 363 270 363 270 397 741 c 0,142,143
 405 849 405 849 417 920 c 0,144,145
 427 975 427 975 463 981 c 0,146,147
 480 983 480 983 492.5 980.5 c 128,-1,148
 505 978 505 978 514 968 c 128,-1,149
 523 958 523 958 527.5 951 c 128,-1,150
 532 944 532 944 539.5 926.5 c 128,-1,151
 547 909 547 909 550 903 c 0,152,153
 614 778 614 778 690 744 c 1,104,105
EndSplineSet
Validated: 37
EndChar

StartChar: uniF0C0
Encoding: 61632 61632 81
Width: 2048
GlyphClass: 2
Flags: W
LayerCount: 2
Fore
SplineSet
68 1755 m 1,0,1
 1024 1755 1024 1755 1981 1755 c 1,2,3
 2040 1745 2040 1745 2048 1686 c 1,4,5
 2048 731 2048 731 2048 -225 c 1,6,7
 2039 -285 2039 -285 1979 -293 c 1,8,9
 1024 -293 1024 -293 68 -293 c 1,10,11
 8 -284 8 -284 0 -224 c 1,12,13
 0 731 0 731 0 1687 c 1,14,15
 8 1746 8 1746 68 1755 c 1,0,1
1903 1606 m 2,16,17
 1903 1610 1903 1610 1899 1610 c 2,18,-1
 149 1610 l 2,19,20
 145 1610 145 1610 145 1606 c 2,21,-1
 145 -144 l 2,22,23
 145 -148 145 -148 149 -148 c 2,24,-1
 1899 -148 l 2,25,26
 1903 -148 1903 -148 1903 -144 c 2,27,-1
 1903 1606 l 2,16,17
EndSplineSet
Validated: 1
EndChar

StartChar: uniF0C1
Encoding: 61633 61633 82
Width: 2048
GlyphClass: 2
Flags: W
LayerCount: 2
Fore
SplineSet
68 1755 m 1,0,1
 1024 1755 1024 1755 1981 1755 c 1,2,3
 2040 1745 2040 1745 2048 1686 c 1,4,5
 2048 731 2048 731 2048 -225 c 1,6,7
 2039 -285 2039 -285 1979 -293 c 1,8,9
 1024 -293 1024 -293 68 -293 c 1,10,11
 8 -284 8 -284 0 -224 c 1,12,13
 0 731 0 731 0 1687 c 1,14,15
 8 1746 8 1746 68 1755 c 1,0,1
1903 1606 m 2,16,17
 1903 1610 1903 1610 1899 1610 c 2,18,-1
 149 1610 l 2,19,20
 145 1610 145 1610 145 1606 c 2,21,-1
 145 -144 l 2,22,23
 145 -148 145 -148 149 -148 c 2,24,-1
 1899 -148 l 2,25,26
 1903 -148 1903 -148 1903 -144 c 2,27,-1
 1903 1606 l 2,16,17
311 1443 m 2,28,29
 311 1444 311 1444 312 1444 c 2,30,-1
 1736 1444 l 2,31,32
 1737 1444 1737 1444 1737 1443 c 2,33,-1
 1737 1161 l 2,34,35
 1737 1160 1737 1160 1736 1160 c 2,36,-1
 312 1160 l 2,37,38
 311 1160 311 1160 311 1161 c 2,39,-1
 311 1443 l 2,28,29
EndSplineSet
Validated: 1
EndChar

StartChar: uniF0C2
Encoding: 61634 61634 83
Width: 2048
GlyphClass: 2
Flags: W
LayerCount: 2
Fore
SplineSet
68 1755 m 1,0,1
 1024 1755 1024 1755 1981 1755 c 1,2,3
 2040 1745 2040 1745 2048 1686 c 1,4,5
 2048 731 2048 731 2048 -225 c 1,6,7
 2039 -285 2039 -285 1979 -293 c 1,8,9
 1024 -293 1024 -293 68 -293 c 1,10,11
 8 -284 8 -284 0 -224 c 1,12,13
 0 731 0 731 0 1687 c 1,14,15
 8 1746 8 1746 68 1755 c 1,0,1
1903 1606 m 2,16,17
 1903 1610 1903 1610 1899 1610 c 2,18,-1
 149 1610 l 2,19,20
 145 1610 145 1610 145 1606 c 2,21,-1
 145 -144 l 2,22,23
 145 -148 145 -148 149 -148 c 2,24,-1
 1899 -148 l 2,25,26
 1903 -148 1903 -148 1903 -144 c 2,27,-1
 1903 1606 l 2,16,17
311 1443 m 2,28,29
 311 1445 311 1445 312 1445 c 2,30,-1
 1736 1445 l 2,31,32
 1737 1445 1737 1445 1737 1443 c 2,33,-1
 1737 876 l 2,34,35
 1737 874 1737 874 1736 874 c 2,36,-1
 312 874 l 2,37,38
 311 874 311 874 311 876 c 2,39,-1
 311 1443 l 2,28,29
EndSplineSet
Validated: 1
EndChar

StartChar: uniF0C3
Encoding: 61635 61635 84
Width: 2048
GlyphClass: 2
Flags: W
LayerCount: 2
Fore
SplineSet
68 1755 m 1,0,1
 1024 1755 1024 1755 1981 1755 c 1,2,3
 2040 1745 2040 1745 2048 1686 c 1,4,5
 2048 731 2048 731 2048 -225 c 1,6,7
 2039 -285 2039 -285 1979 -293 c 1,8,9
 1024 -293 1024 -293 68 -293 c 1,10,11
 8 -284 8 -284 0 -224 c 1,12,13
 0 731 0 731 0 1687 c 1,14,15
 8 1746 8 1746 68 1755 c 1,0,1
1903 1606 m 2,16,17
 1903 1610 1903 1610 1899 1610 c 2,18,-1
 149 1610 l 2,19,20
 145 1610 145 1610 145 1606 c 2,21,-1
 145 -144 l 2,22,23
 145 -148 145 -148 149 -148 c 2,24,-1
 1899 -148 l 2,25,26
 1903 -148 1903 -148 1903 -144 c 2,27,-1
 1903 1606 l 2,16,17
311 1442 m 2,28,29
 311 1444 311 1444 313 1444 c 2,30,-1
 1735 1444 l 2,31,32
 1737 1444 1737 1444 1737 1442 c 2,33,-1
 1737 591 l 2,34,35
 1737 589 1737 589 1735 589 c 2,36,-1
 313 589 l 2,37,38
 311 589 311 589 311 591 c 2,39,-1
 311 1442 l 2,28,29
EndSplineSet
Validated: 1
EndChar

StartChar: uniF0C4
Encoding: 61636 61636 85
Width: 2048
GlyphClass: 2
Flags: W
LayerCount: 2
Fore
SplineSet
68 1755 m 1,0,1
 1024 1755 1024 1755 1981 1755 c 1,2,3
 2040 1745 2040 1745 2048 1686 c 1,4,5
 2048 731 2048 731 2048 -225 c 1,6,7
 2039 -285 2039 -285 1979 -293 c 1,8,9
 1024 -293 1024 -293 68 -293 c 1,10,11
 8 -284 8 -284 0 -224 c 1,12,13
 0 731 0 731 0 1687 c 1,14,15
 8 1746 8 1746 68 1755 c 1,0,1
1903 1606 m 2,16,17
 1903 1610 1903 1610 1899 1610 c 2,18,-1
 149 1610 l 2,19,20
 145 1610 145 1610 145 1606 c 2,21,-1
 145 -144 l 2,22,23
 145 -148 145 -148 149 -148 c 2,24,-1
 1899 -148 l 2,25,26
 1903 -148 1903 -148 1903 -144 c 2,27,-1
 1903 1606 l 2,16,17
311 1441 m 2,28,29
 311 1444 311 1444 311 1444.5 c 128,-1,30
 311 1445 311 1445 314 1445 c 2,31,-1
 1734 1445 l 2,32,33
 1737 1445 1737 1445 1737 1444.5 c 128,-1,34
 1737 1444 1737 1444 1737 1441 c 2,35,-1
 1737 306 l 2,36,37
 1737 304 1737 304 1737 303.5 c 128,-1,38
 1737 303 1737 303 1734 303 c 2,39,-1
 314 303 l 2,40,41
 311 303 311 303 311 303.5 c 128,-1,42
 311 304 311 304 311 306 c 2,43,-1
 311 1441 l 2,28,29
EndSplineSet
Validated: 1
EndChar

StartChar: uniF0C5
Encoding: 61637 61637 86
Width: 2048
GlyphClass: 2
Flags: W
LayerCount: 2
Fore
SplineSet
68 1755 m 1,0,1
 1024 1755 1024 1755 1981 1755 c 1,2,3
 2040 1745 2040 1745 2048 1686 c 1,4,5
 2048 731 2048 731 2048 -225 c 1,6,7
 2039 -285 2039 -285 1979 -293 c 1,8,9
 1024 -293 1024 -293 68 -293 c 1,10,11
 8 -284 8 -284 0 -224 c 1,12,13
 0 731 0 731 0 1687 c 1,14,15
 8 1746 8 1746 68 1755 c 1,0,1
1903 1606 m 2,16,17
 1903 1610 1903 1610 1899 1610 c 2,18,-1
 149 1610 l 2,19,20
 145 1610 145 1610 145 1606 c 2,21,-1
 145 -144 l 2,22,23
 145 -148 145 -148 149 -148 c 2,24,-1
 1899 -148 l 2,25,26
 1903 -148 1903 -148 1903 -144 c 2,27,-1
 1903 1606 l 2,16,17
311 1443 m 2,28,29
 311 1444 311 1444 312 1444 c 2,30,-1
 1736 1444 l 2,31,32
 1737 1444 1737 1444 1737 1443 c 2,33,-1
 1737 19 l 2,34,35
 1737 18 1737 18 1736 18 c 2,36,-1
 312 18 l 2,37,38
 311 18 311 18 311 19 c 2,39,-1
 311 1443 l 2,28,29
EndSplineSet
Validated: 1
EndChar

StartChar: uniF0D0
Encoding: 61648 61648 87
Width: 2048
GlyphClass: 1
Flags: W
LayerCount: 2
Fore
SplineSet
1065 1670 m 1,0,-1
 1792 765 l 1,1,-1
 1601 482 l 1,2,-1
 491 822 l 1,3,-1
 427 1155 l 1,4,-1
 427 -293 l 1,5,-1
 256 -293 l 1,6,-1
 256 1755 l 1,7,-1
 427 1755 l 1,8,-1
 427 1547 l 1,9,-1
 1065 1670 l 1,0,-1
454 1465 m 1,10,-1
 558 922 l 1,11,-1
 997 1570 l 1,12,-1
 454 1465 l 1,10,-1
797 817 m 1,13,-1
 968 765 l 1,14,-1
 1295 1248 l 1,15,-1
 1183 1387 l 1,16,-1
 797 817 l 1,13,-1
1395 635 m 1,17,-1
 1574 900 l 1,18,-1
 1462 1039 l 1,19,-1
 1224 687 l 1,20,-1
 1395 635 l 1,17,-1
EndSplineSet
Validated: 1
EndChar

StartChar: uniF0D1
Encoding: 61649 61649 88
Width: 2048
GlyphClass: 1
Flags: W
LayerCount: 2
Fore
SplineSet
768 1755 m 1,0,-1
 1877 1414 l 1,1,-1
 1877 1072 l 1,2,-1
 768 731 l 1,3,-1
 341 1158 l 1,4,-1
 341 -293 l 1,5,-1
 171 -293 l 1,6,-1
 171 1499 l 1,7,-1
 341 1499 l 1,8,-1
 341 1328 l 1,9,-1
 768 1755 l 1,0,-1
768 852 m 1,10,-1
 768 1634 l 1,11,-1
 377 1243 l 1,12,-1
 768 852 l 1,10,-1
1195 952 m 1,13,-1
 1195 1534 l 1,14,-1
 1024 1587 l 1,15,-1
 1024 899 l 1,16,-1
 1195 952 l 1,13,-1
1621 1083 m 1,17,-1
 1621 1403 l 1,18,-1
 1451 1456 l 1,19,-1
 1451 1030 l 1,20,-1
 1621 1083 l 1,17,-1
EndSplineSet
Validated: 1
EndChar

StartChar: uniF0D2
Encoding: 61650 61650 89
Width: 2048
GlyphClass: 1
Flags: W
LayerCount: 2
Fore
SplineSet
597 731 m 1,0,-1
 171 1158 l 1,1,-1
 171 -293 l 1,2,-1
 0 -293 l 1,3,-1
 0 1499 l 1,4,-1
 171 1499 l 1,5,-1
 171 1328 l 1,6,-1
 597 1755 l 1,7,-1
 1707 1414 l 1,8,-1
 1707 1072 l 1,9,-1
 597 731 l 1,0,-1
1280 1456 m 1,10,-1
 1280 1030 l 1,11,-1
 1451 1083 l 1,12,-1
 1451 1403 l 1,13,-1
 1280 1456 l 1,10,-1
853 1587 m 1,14,-1
 853 899 l 1,15,-1
 1024 952 l 1,16,-1
 1024 1534 l 1,17,-1
 853 1587 l 1,14,-1
597 1634 m 1,18,-1
 206 1243 l 1,19,-1
 597 852 l 1,20,-1
 597 1634 l 1,18,-1
2048 603 m 128,-1,22
 2048 479 2048 479 1960.5 391.5 c 128,-1,23
 1873 304 1873 304 1749 304 c 2,24,-1
 427 304 l 1,25,-1
 427 475 l 1,26,-1
 1749 475 l 2,27,28
 1802 475 1802 475 1839.5 512.5 c 128,-1,29
 1877 550 1877 550 1877 603 c 128,-1,30
 1877 656 1877 656 1839.5 693.5 c 128,-1,31
 1802 731 1802 731 1749 731 c 0,32,33
 1700 731 1700 731 1664 698 c 128,-1,34
 1628 665 1628 665 1623 616 c 1,35,-1
 1462 678 l 1,36,37
 1487 776 1487 776 1567 839 c 128,-1,38
 1647 902 1647 902 1749 902 c 0,39,40
 1873 902 1873 902 1960.5 814.5 c 128,-1,21
 2048 727 2048 727 2048 603 c 128,-1,22
1536 -37 m 128,-1,42
 1536 -143 1536 -143 1461 -218 c 128,-1,43
 1386 -293 1386 -293 1280 -293 c 0,44,45
 1207 -293 1207 -293 1146.5 -255 c 128,-1,46
 1086 -217 1086 -217 1054 -154 c 1,47,-1
 1203 -72 l 1,48,49
 1213 -95 1213 -95 1234 -108.5 c 128,-1,50
 1255 -122 1255 -122 1280 -122 c 0,51,52
 1315 -122 1315 -122 1340 -97 c 128,-1,53
 1365 -72 1365 -72 1365 -37 c 128,-1,54
 1365 -2 1365 -2 1340 23 c 128,-1,55
 1315 48 1315 48 1280 48 c 2,56,-1
 427 48 l 1,57,-1
 427 219 l 1,58,-1
 1280 219 l 2,59,60
 1386 219 1386 219 1461 144 c 128,-1,41
 1536 69 1536 69 1536 -37 c 128,-1,42
EndSplineSet
Validated: 1
EndChar

StartChar: uniF0D3
Encoding: 61651 61651 90
Width: 2048
GlyphClass: 1
Flags: W
LayerCount: 2
Fore
SplineSet
597 1755 m 1,0,-1
 1707 1414 l 1,1,-1
 1707 1072 l 1,2,-1
 597 731 l 1,3,-1
 171 1158 l 1,4,-1
 171 -293 l 1,5,-1
 0 -293 l 1,6,-1
 0 1499 l 1,7,-1
 171 1499 l 1,8,-1
 171 1328 l 1,9,-1
 597 1755 l 1,0,-1
597 852 m 1,10,-1
 597 1634 l 1,11,-1
 206 1243 l 1,12,-1
 597 852 l 1,10,-1
1024 952 m 1,13,-1
 1024 1534 l 1,14,-1
 853 1587 l 1,15,-1
 853 899 l 1,16,-1
 1024 952 l 1,13,-1
1451 1083 m 1,17,-1
 1451 1403 l 1,18,-1
 1280 1456 l 1,19,-1
 1280 1030 l 1,20,-1
 1451 1083 l 1,17,-1
1408 816 m 1,21,-1
 2048 -293 l 1,22,-1
 768 -293 l 1,23,-1
 1408 816 l 1,21,-1
1753 -122 m 1,24,-1
 1408 475 l 1,25,-1
 1063 -122 l 1,26,-1
 1753 -122 l 1,24,-1
1365 304 m 1,27,-1
 1451 304 l 1,28,-1
 1451 48 l 1,29,-1
 1365 48 l 1,30,-1
 1365 304 l 1,27,-1
1355 -35 m 128,-1,32
 1355 -14 1355 -14 1370 1 c 128,-1,33
 1385 16 1385 16 1406 16 c 128,-1,34
 1427 16 1427 16 1442 1 c 128,-1,35
 1457 -14 1457 -14 1457 -35 c 128,-1,36
 1457 -56 1457 -56 1442 -71 c 128,-1,37
 1427 -86 1427 -86 1406 -86 c 128,-1,38
 1385 -86 1385 -86 1370 -71 c 128,-1,31
 1355 -56 1355 -56 1355 -35 c 128,-1,32
EndSplineSet
Validated: 1
EndChar

StartChar: uniF0F0
Encoding: 61680 61680 91
Width: 1024
GlyphClass: 1
Flags: W
LayerCount: 2
Fore
SplineSet
627 160 m 128,-1,1
 627 147 627 147 617 137 c 2,2,-1
 567 87 l 2,3,4
 557 77 557 77 544 77 c 128,-1,5
 531 77 531 77 521 87 c 2,6,-1
 55 553 l 2,7,8
 45 563 45 563 45 576 c 128,-1,9
 45 589 45 589 55 599 c 2,10,-1
 521 1065 l 2,11,12
 531 1075 531 1075 544 1075 c 128,-1,13
 557 1075 557 1075 567 1065 c 2,14,-1
 617 1015 l 2,15,16
 627 1005 627 1005 627 992 c 128,-1,17
 627 979 627 979 617 969 c 2,18,-1
 224 576 l 1,19,-1
 617 183 l 2,20,0
 627 173 627 173 627 160 c 128,-1,1
1011 160 m 128,-1,22
 1011 147 1011 147 1001 137 c 2,23,-1
 951 87 l 2,24,25
 941 77 941 77 928 77 c 128,-1,26
 915 77 915 77 905 87 c 2,27,-1
 439 553 l 2,28,29
 429 563 429 563 429 576 c 128,-1,30
 429 589 429 589 439 599 c 2,31,-1
 905 1065 l 2,32,33
 915 1075 915 1075 928 1075 c 128,-1,34
 941 1075 941 1075 951 1065 c 2,35,-1
 1001 1015 l 2,36,37
 1011 1005 1011 1005 1011 992 c 128,-1,38
 1011 979 1011 979 1001 969 c 2,39,-1
 608 576 l 1,40,-1
 1001 183 l 2,41,21
 1011 173 1011 173 1011 160 c 128,-1,22
EndSplineSet
Validated: 1
EndChar

StartChar: uniF0F1
Encoding: 61681 61681 92
Width: 1024
GlyphClass: 1
Flags: W
LayerCount: 2
Fore
SplineSet
595 576 m 128,-1,1
 595 563 595 563 585 553 c 2,2,-1
 119 87 l 2,3,4
 109 77 109 77 96 77 c 128,-1,5
 83 77 83 77 73 87 c 2,6,-1
 23 137 l 2,7,8
 13 147 13 147 13 160 c 128,-1,9
 13 173 13 173 23 183 c 2,10,-1
 416 576 l 1,11,-1
 23 969 l 2,12,13
 13 979 13 979 13 992 c 128,-1,14
 13 1005 13 1005 23 1015 c 2,15,-1
 73 1065 l 2,16,17
 83 1075 83 1075 96 1075 c 128,-1,18
 109 1075 109 1075 119 1065 c 2,19,-1
 585 599 l 2,20,0
 595 589 595 589 595 576 c 128,-1,1
979 576 m 128,-1,22
 979 563 979 563 969 553 c 2,23,-1
 503 87 l 2,24,25
 493 77 493 77 480 77 c 128,-1,26
 467 77 467 77 457 87 c 2,27,-1
 407 137 l 2,28,29
 397 147 397 147 397 160 c 128,-1,30
 397 173 397 173 407 183 c 2,31,-1
 800 576 l 1,32,-1
 407 969 l 2,33,34
 397 979 397 979 397 992 c 128,-1,35
 397 1005 397 1005 407 1015 c 2,36,-1
 457 1065 l 2,37,38
 467 1075 467 1075 480 1075 c 128,-1,39
 493 1075 493 1075 503 1065 c 2,40,-1
 969 599 l 2,41,21
 979 589 979 589 979 576 c 128,-1,22
EndSplineSet
Validated: 1
EndChar

StartChar: uniF0F2
Encoding: 61682 61682 93
Width: 1536
GlyphClass: 1
Flags: W
LayerCount: 2
Fore
SplineSet
1468 1156 m 2,0,1
 1496 1128 1496 1128 1516 1080 c 128,-1,2
 1536 1032 1536 1032 1536 992 c 2,3,-1
 1536 -160 l 2,4,5
 1536 -200 1536 -200 1508 -228 c 128,-1,6
 1480 -256 1480 -256 1440 -256 c 2,7,-1
 96 -256 l 2,8,9
 56 -256 56 -256 28 -228 c 128,-1,10
 0 -200 0 -200 0 -160 c 2,11,-1
 0 1440 l 2,12,13
 0 1480 0 1480 28 1508 c 128,-1,14
 56 1536 56 1536 96 1536 c 2,15,-1
 992 1536 l 2,16,17
 1032 1536 1032 1536 1080 1516 c 128,-1,18
 1128 1496 1128 1496 1156 1468 c 2,19,-1
 1468 1156 l 2,0,1
1024 1400 m 1,20,-1
 1024 1024 l 1,21,-1
 1400 1024 l 1,22,23
 1390 1053 1390 1053 1378 1065 c 2,24,-1
 1065 1378 l 2,25,26
 1053 1390 1053 1390 1024 1400 c 1,20,-1
1408 -128 m 1,27,-1
 1408 896 l 1,28,-1
 992 896 l 2,29,30
 952 896 952 896 924 924 c 128,-1,31
 896 952 896 952 896 992 c 2,32,-1
 896 1408 l 1,33,-1
 128 1408 l 1,34,-1
 128 -128 l 1,35,-1
 1408 -128 l 1,27,-1
384 736 m 2,36,37
 384 750 384 750 393 759 c 128,-1,38
 402 768 402 768 416 768 c 2,39,-1
 1120 768 l 2,40,41
 1134 768 1134 768 1143 759 c 128,-1,42
 1152 750 1152 750 1152 736 c 2,43,-1
 1152 672 l 2,44,45
 1152 658 1152 658 1143 649 c 128,-1,46
 1134 640 1134 640 1120 640 c 2,47,-1
 416 640 l 2,48,49
 402 640 402 640 393 649 c 128,-1,50
 384 658 384 658 384 672 c 2,51,-1
 384 736 l 2,36,37
1120 512 m 2,52,53
 1134 512 1134 512 1143 503 c 128,-1,54
 1152 494 1152 494 1152 480 c 2,55,-1
 1152 416 l 2,56,57
 1152 402 1152 402 1143 393 c 128,-1,58
 1134 384 1134 384 1120 384 c 2,59,-1
 416 384 l 2,60,61
 402 384 402 384 393 393 c 128,-1,62
 384 402 384 402 384 416 c 2,63,-1
 384 480 l 2,64,65
 384 494 384 494 393 503 c 128,-1,66
 402 512 402 512 416 512 c 2,67,-1
 1120 512 l 2,52,53
1120 256 m 2,68,69
 1134 256 1134 256 1143 247 c 128,-1,70
 1152 238 1152 238 1152 224 c 2,71,-1
 1152 160 l 2,72,73
 1152 146 1152 146 1143 137 c 128,-1,74
 1134 128 1134 128 1120 128 c 2,75,-1
 416 128 l 2,76,77
 402 128 402 128 393 137 c 128,-1,78
 384 146 384 146 384 160 c 2,79,-1
 384 224 l 2,80,81
 384 238 384 238 393 247 c 128,-1,82
 402 256 402 256 416 256 c 2,83,-1
 1120 256 l 2,68,69
EndSplineSet
Validated: 1
EndChar

StartChar: uniF0F3
Encoding: 61683 61683 94
Width: 1408
GlyphClass: 1
Flags: W
LayerCount: 2
Fore
SplineSet
1298 214 m 128,-1,1
 1298 174 1298 174 1270 146 c 2,2,-1
 1134 10 l 2,3,4
 1106 -18 1106 -18 1066 -18 c 128,-1,5
 1026 -18 1026 -18 998 10 c 2,6,-1
 704 304 l 1,7,-1
 410 10 l 2,8,9
 382 -18 382 -18 342 -18 c 128,-1,10
 302 -18 302 -18 274 10 c 2,11,-1
 138 146 l 2,12,13
 110 174 110 174 110 214 c 128,-1,14
 110 254 110 254 138 282 c 2,15,-1
 432 576 l 1,16,-1
 138 870 l 2,17,18
 110 898 110 898 110 938 c 128,-1,19
 110 978 110 978 138 1006 c 2,20,-1
 274 1142 l 2,21,22
 302 1170 302 1170 342 1170 c 128,-1,23
 382 1170 382 1170 410 1142 c 2,24,-1
 704 848 l 1,25,-1
 998 1142 l 2,26,27
 1026 1170 1026 1170 1066 1170 c 128,-1,28
 1106 1170 1106 1170 1134 1142 c 2,29,-1
 1270 1006 l 2,30,31
 1298 978 1298 978 1298 938 c 128,-1,32
 1298 898 1298 898 1270 870 c 2,33,-1
 976 576 l 1,34,-1
 1270 282 l 2,35,0
 1298 254 1298 254 1298 214 c 128,-1,1
EndSplineSet
Validated: 1
EndChar

StartChar: uniF0FD
Encoding: 61693 61693 95
Width: 2048
GlyphClass: 2
Flags: W
LayerCount: 2
Fore
SplineSet
626 24 m 0,0,1
 449 197 449 197 433 446 c 0,2,3
 428 532 428 532 453 620 c 0,4,5
 478 709 478 709 509 784 c 0,6,7
 561 908 561 908 622 1027 c 0,8,9
 760 1293 760 1293 943 1581 c 0,10,11
 969 1621 969 1621 1007 1640 c 0,12,13
 1045 1658 1045 1658 1089 1652 c 0,14,15
 1156 1643 1156 1643 1196 1581 c 0,16,17
 1386 1285 1386 1285 1539 981 c 0,18,19
 1568 925 1568 925 1587 882 c 0,20,21
 1634 779 1634 779 1668 682 c 0,22,23
 1684 636 1684 636 1696 576 c 0,24,25
 1710 509 1710 509 1707 455 c 0,26,27
 1698 301 1698 301 1622 168 c 0,28,29
 1515 -19 1515 -19 1320 -105 c 0,30,31
 1169 -172 1169 -172 1000 -153 c 0,32,33
 782 -129 782 -129 626 24 c 0,0,1
711 107 m 0,34,35
 849 -25 849 -25 1035 -37 c 0,36,37
 1089 -41 1089 -41 1145 -32 c 0,38,39
 1357 0 1357 0 1487 173 c 0,40,41
 1559 270 1559 270 1581 391 c 0,42,43
 1591 448 1591 448 1587 501 c 0,44,45
 1583 556 1583 556 1565 613 c 0,46,47
 1520 752 1520 752 1465 868 c 0,48,49
 1411 980 1411 980 1351 1089 c 0,50,51
 1233 1305 1233 1305 1100 1513 c 0,52,53
 1091 1528 1091 1528 1082 1533 c 0,54,55
 1064 1544 1064 1544 1051 1531 c 0,56,57
 1049 1529 1049 1529 1032 1503 c 0,58,59
 845 1211 845 1211 691 900 c 0,60,61
 623 762 623 762 586 650 c 0,62,63
 557 565 557 565 552 517 c 0,64,65
 547 468 547 468 555 415 c 0,66,67
 580 232 580 232 711 107 c 0,34,35
EndSplineSet
Validated: 33
EndChar

StartChar: uniF0FE
Encoding: 61694 61694 96
Width: 2539
GlyphClass: 1
Flags: W
LayerCount: 2
Fore
SplineSet
0 521 m 0,0,1
 0 482 0 482 30 455 c 1,2,3
 56 425 56 425 97 425 c 2,4,-1
 1664 425 l 2,5,6
 1710 425 1710 425 1742 393 c 128,-1,7
 1774 361 1774 361 1774 314 c 0,8,9
 1774 268 1774 268 1742.5 237.5 c 128,-1,10
 1711 207 1711 207 1664 207 c 128,-1,11
 1617 207 1617 207 1586 238 c 0,12,13
 1560 266 1560 266 1522 266 c 0,14,15
 1482 266 1482 266 1453.5 238.5 c 128,-1,16
 1425 211 1425 211 1425 173 c 0,17,18
 1425 133 1425 133 1455 106 c 0,19,20
 1545 18 1545 18 1664 18 c 0,21,22
 1789 18 1789 18 1878 104 c 128,-1,23
 1967 190 1967 190 1967 314 c 128,-1,24
 1967 438 1967 438 1877.5 527.5 c 128,-1,25
 1788 617 1788 617 1664 617 c 2,26,-1
 97 617 l 2,27,28
 57 617 57 617 28.5 589 c 128,-1,29
 0 561 0 561 0 521 c 0,0,1
0 871 m 0,30,31
 0 834 0 834 30 806 c 0,32,33
 58 778 58 778 97 778 c 2,34,-1
 2235 778 l 2,35,36
 2360 778 2360 778 2449.5 865 c 128,-1,37
 2539 952 2539 952 2539 1075 c 0,38,39
 2539 1199 2539 1199 2449.5 1287 c 128,-1,40
 2360 1375 2360 1375 2235 1375 c 0,41,42
 2112 1375 2112 1375 2027 1290 c 0,43,44
 1998 1264 1998 1264 1998 1219 c 0,45,46
 1998 1178 1998 1178 2025.5 1152 c 128,-1,47
 2053 1126 2053 1126 2093 1126 c 0,48,49
 2132 1126 2132 1126 2160 1152 c 0,50,51
 2190 1185 2190 1185 2235 1185 c 0,52,53
 2281 1185 2281 1185 2312.5 1153 c 128,-1,54
 2344 1121 2344 1121 2344 1075 c 128,-1,55
 2344 1029 2344 1029 2312.5 998 c 128,-1,56
 2281 967 2281 967 2235 967 c 2,57,-1
 97 967 l 2,58,59
 57 967 57 967 28.5 939 c 128,-1,60
 0 911 0 911 0 871 c 0,30,31
EndSplineSet
Validated: 9
EndChar

StartChar: uniF0FF
Encoding: 61695 61695 97
Width: 1514
GlyphClass: 1
Flags: W
LayerCount: 2
Fore
SplineSet
-10 497 m 0,0,1
 -10 638 -10 638 67 820.5 c 128,-1,2
 144 1003 144 1003 265 1174 c 1,3,4
 515 1504 515 1504 698 1672 c 1,5,-1
 778 1749 l 1,6,7
 818 1707 818 1707 866 1672 c 1,8,9
 932 1605 932 1605 1067 1449.5 c 128,-1,10
 1202 1294 1202 1294 1298 1167 c 1,11,12
 1412 1005 1412 1005 1491 820.5 c 128,-1,13
 1570 636 1570 636 1570 497 c 0,14,15
 1570 337 1570 337 1508 191.5 c 128,-1,16
 1446 46 1446 46 1340.5 -60 c 128,-1,17
 1235 -166 1235 -166 1088 -228.5 c 128,-1,18
 941 -291 941 -291 778 -291 c 0,19,20
 618 -291 618 -291 472.5 -230.5 c 128,-1,21
 327 -170 327 -170 221 -65.5 c 128,-1,22
 115 39 115 39 52.5 185.5 c 128,-1,23
 -10 332 -10 332 -10 497 c 0,0,1
231 810 m 0,24,25
 231 677 231 677 287 598 c 128,-1,26
 343 519 343 519 457 519 c 0,27,28
 572 519 572 519 628.5 597.5 c 128,-1,29
 685 676 685 676 686 810 c 0,30,31
 685 944 685 944 628.5 1023 c 128,-1,32
 572 1102 572 1102 457 1102 c 0,33,34
 343 1102 343 1102 287 1023 c 128,-1,35
 231 944 231 944 231 810 c 0,24,25
399 810 m 128,-1,37
 399 834 399 834 399.5 847 c 128,-1,38
 400 860 400 860 401.5 882 c 128,-1,39
 403 904 403 904 406.5 916.5 c 128,-1,40
 410 929 410 929 416 942.5 c 128,-1,41
 422 956 422 956 432.5 962 c 128,-1,42
 443 968 443 968 457 968 c 0,43,44
 479 968 479 968 492 955 c 128,-1,45
 505 942 505 942 510.5 914 c 128,-1,46
 516 886 516 886 517 866 c 128,-1,47
 518 846 518 846 518 810 c 128,-1,48
 518 774 518 774 517 754.5 c 128,-1,49
 516 735 516 735 510.5 707 c 128,-1,50
 505 679 505 679 492 666 c 128,-1,51
 479 653 479 653 457 653 c 0,52,53
 443 653 443 653 432.5 659 c 128,-1,54
 422 665 422 665 416 678.5 c 128,-1,55
 410 692 410 692 406.5 704.5 c 128,-1,56
 403 717 403 717 401.5 739 c 128,-1,57
 400 761 400 761 399.5 773.5 c 128,-1,36
 399 786 399 786 399 810 c 128,-1,37
461 -17 m 1,58,-1
 602 -17 l 1,59,-1
 1134 1129 l 1,60,-1
 990 1129 l 1,61,-1
 461 -17 l 1,58,-1
920 302 m 0,62,63
 922 168 922 168 978.5 89 c 128,-1,64
 1035 10 1035 10 1149 10 c 0,65,66
 1264 10 1264 10 1319.5 88.5 c 128,-1,67
 1375 167 1375 167 1376 302 c 0,68,69
 1375 436 1375 436 1319.5 514.5 c 128,-1,70
 1264 593 1264 593 1149 593 c 0,71,72
 1035 593 1035 593 978.5 514.5 c 128,-1,73
 922 436 922 436 920 302 c 0,62,63
1088 302 m 128,-1,75
 1088 338 1088 338 1089 357.5 c 128,-1,76
 1090 377 1090 377 1095.5 405 c 128,-1,77
 1101 433 1101 433 1114 446 c 128,-1,78
 1127 459 1127 459 1149 459 c 0,79,80
 1164 459 1164 459 1174.5 453 c 128,-1,81
 1185 447 1185 447 1191.5 433 c 128,-1,82
 1198 419 1198 419 1202 407.5 c 128,-1,83
 1206 396 1206 396 1207 373 c 128,-1,84
 1208 350 1208 350 1208.5 338.5 c 128,-1,85
 1209 327 1209 327 1209 302 c 0,86,87
 1209 276 1209 276 1208.5 264.5 c 128,-1,88
 1208 253 1208 253 1207 230 c 128,-1,89
 1206 207 1206 207 1202 195.5 c 128,-1,90
 1198 184 1198 184 1191.5 170 c 128,-1,91
 1185 156 1185 156 1174.5 150 c 128,-1,92
 1164 144 1164 144 1149 144 c 0,93,94
 1127 144 1127 144 1114 157 c 128,-1,95
 1101 170 1101 170 1095.5 198 c 128,-1,96
 1090 226 1090 226 1089 246 c 128,-1,74
 1088 266 1088 266 1088 302 c 128,-1,75
EndSplineSet
Validated: 1
EndChar

StartChar: uniF100
Encoding: 61696 61696 98
Width: 1024
GlyphClass: 1
Flags: W
LayerCount: 2
Fore
SplineSet
640 192 m 0,0,1
 640 112 640 112 584 56 c 128,-1,2
 528 0 528 0 448 0 c 128,-1,3
 368 0 368 0 312 56 c 128,-1,4
 256 112 256 112 256 192 c 0,5,6
 256 271 256 271 312 327.5 c 128,-1,7
 368 384 368 384 448 384 c 128,-1,8
 528 384 528 384 584 327.5 c 128,-1,9
 640 271 640 271 640 192 c 0,0,1
768 192 m 0,10,11
 768 269 768 269 734 336 c 128,-1,12
 700 403 700 403 640 448 c 1,13,-1
 640 1216 l 2,14,15
 640 1296 640 1296 584 1352 c 128,-1,16
 528 1408 528 1408 448 1408 c 128,-1,17
 368 1408 368 1408 312 1352 c 128,-1,18
 256 1296 256 1296 256 1216 c 2,19,-1
 256 448 l 1,20,21
 196 403 196 403 162 336 c 128,-1,22
 128 269 128 269 128 192 c 0,23,24
 128 59 128 59 221.5 -34.5 c 128,-1,25
 315 -128 315 -128 448 -128 c 128,-1,26
 581 -128 581 -128 674.5 -34.5 c 128,-1,27
 768 59 768 59 768 192 c 0,10,11
896 192 m 0,28,29
 896 7 896 7 764.5 -124.5 c 128,-1,30
 633 -256 633 -256 448 -256 c 128,-1,31
 263 -256 263 -256 131.5 -124.5 c 128,-1,32
 0 7 0 7 0 192 c 0,33,34
 0 374 0 374 128 505 c 1,35,-1
 128 1216 l 2,36,37
 128 1349 128 1349 221.5 1442.5 c 128,-1,38
 315 1536 315 1536 448 1536 c 128,-1,39
 581 1536 581 1536 674.5 1442.5 c 128,-1,40
 768 1349 768 1349 768 1216 c 2,41,-1
 768 505 l 1,42,43
 896 374 896 374 896 192 c 0,28,29
1024 768 m 1,44,-1
 1024 640 l 1,45,-1
 832 640 l 1,46,-1
 832 768 l 1,47,-1
 1024 768 l 1,44,-1
1024 1024 m 1,48,-1
 1024 896 l 1,49,-1
 832 896 l 1,50,-1
 832 1024 l 1,51,-1
 1024 1024 l 1,48,-1
1024 1280 m 1,52,-1
 1024 1152 l 1,53,-1
 832 1152 l 1,54,-1
 832 1280 l 1,55,-1
 1024 1280 l 1,52,-1
EndSplineSet
Validated: 1
EndChar

StartChar: uniF101
Encoding: 61697 61697 99
Width: 1024
GlyphClass: 1
Flags: W
LayerCount: 2
Fore
SplineSet
640 192 m 0,0,1
 640 112 640 112 584 56 c 128,-1,2
 528 0 528 0 448 0 c 128,-1,3
 368 0 368 0 312 56 c 128,-1,4
 256 112 256 112 256 192 c 0,5,6
 256 252 256 252 291 302 c 128,-1,7
 326 352 326 352 384 373 c 1,8,-1
 384 512 l 1,9,-1
 512 512 l 1,10,-1
 512 373 l 1,11,12
 570 352 570 352 605 302 c 128,-1,13
 640 252 640 252 640 192 c 0,0,1
768 192 m 0,14,15
 768 269 768 269 734 336 c 128,-1,16
 700 403 700 403 640 448 c 1,17,-1
 640 1216 l 2,18,19
 640 1296 640 1296 584 1352 c 128,-1,20
 528 1408 528 1408 448 1408 c 128,-1,21
 368 1408 368 1408 312 1352 c 128,-1,22
 256 1296 256 1296 256 1216 c 2,23,-1
 256 448 l 1,24,25
 196 403 196 403 162 336 c 128,-1,26
 128 269 128 269 128 192 c 0,27,28
 128 59 128 59 221.5 -34.5 c 128,-1,29
 315 -128 315 -128 448 -128 c 128,-1,30
 581 -128 581 -128 674.5 -34.5 c 128,-1,31
 768 59 768 59 768 192 c 0,14,15
896 192 m 0,32,33
 896 7 896 7 764.5 -124.5 c 128,-1,34
 633 -256 633 -256 448 -256 c 128,-1,35
 263 -256 263 -256 131.5 -124.5 c 128,-1,36
 0 7 0 7 0 192 c 0,37,38
 0 374 0 374 128 505 c 1,39,-1
 128 1216 l 2,40,41
 128 1349 128 1349 221.5 1442.5 c 128,-1,42
 315 1536 315 1536 448 1536 c 128,-1,43
 581 1536 581 1536 674.5 1442.5 c 128,-1,44
 768 1349 768 1349 768 1216 c 2,45,-1
 768 505 l 1,46,47
 896 374 896 374 896 192 c 0,32,33
1024 768 m 1,48,-1
 1024 640 l 1,49,-1
 832 640 l 1,50,-1
 832 768 l 1,51,-1
 1024 768 l 1,48,-1
1024 1024 m 1,52,-1
 1024 896 l 1,53,-1
 832 896 l 1,54,-1
 832 1024 l 1,55,-1
 1024 1024 l 1,52,-1
1024 1280 m 1,56,-1
 1024 1152 l 1,57,-1
 832 1152 l 1,58,-1
 832 1280 l 1,59,-1
 1024 1280 l 1,56,-1
EndSplineSet
Validated: 1
EndChar

StartChar: uniF102
Encoding: 61698 61698 100
Width: 1024
GlyphClass: 1
Flags: W
LayerCount: 2
Fore
SplineSet
640 192 m 0,0,1
 640 112 640 112 584 56 c 128,-1,2
 528 0 528 0 448 0 c 128,-1,3
 368 0 368 0 312 56 c 128,-1,4
 256 112 256 112 256 192 c 0,5,6
 256 252 256 252 291 302 c 128,-1,7
 326 352 326 352 384 373 c 1,8,-1
 384 768 l 1,9,-1
 512 768 l 1,10,-1
 512 373 l 1,11,12
 570 352 570 352 605 302 c 128,-1,13
 640 252 640 252 640 192 c 0,0,1
768 192 m 0,14,15
 768 269 768 269 734 336 c 128,-1,16
 700 403 700 403 640 448 c 1,17,-1
 640 1216 l 2,18,19
 640 1296 640 1296 584 1352 c 128,-1,20
 528 1408 528 1408 448 1408 c 128,-1,21
 368 1408 368 1408 312 1352 c 128,-1,22
 256 1296 256 1296 256 1216 c 2,23,-1
 256 448 l 1,24,25
 196 403 196 403 162 336 c 128,-1,26
 128 269 128 269 128 192 c 0,27,28
 128 59 128 59 221.5 -34.5 c 128,-1,29
 315 -128 315 -128 448 -128 c 128,-1,30
 581 -128 581 -128 674.5 -34.5 c 128,-1,31
 768 59 768 59 768 192 c 0,14,15
896 192 m 0,32,33
 896 7 896 7 764.5 -124.5 c 128,-1,34
 633 -256 633 -256 448 -256 c 128,-1,35
 263 -256 263 -256 131.5 -124.5 c 128,-1,36
 0 7 0 7 0 192 c 0,37,38
 0 374 0 374 128 505 c 1,39,-1
 128 1216 l 2,40,41
 128 1349 128 1349 221.5 1442.5 c 128,-1,42
 315 1536 315 1536 448 1536 c 128,-1,43
 581 1536 581 1536 674.5 1442.5 c 128,-1,44
 768 1349 768 1349 768 1216 c 2,45,-1
 768 505 l 1,46,47
 896 374 896 374 896 192 c 0,32,33
1024 768 m 1,48,-1
 1024 640 l 1,49,-1
 832 640 l 1,50,-1
 832 768 l 1,51,-1
 1024 768 l 1,48,-1
1024 1024 m 1,52,-1
 1024 896 l 1,53,-1
 832 896 l 1,54,-1
 832 1024 l 1,55,-1
 1024 1024 l 1,52,-1
1024 1280 m 1,56,-1
 1024 1152 l 1,57,-1
 832 1152 l 1,58,-1
 832 1280 l 1,59,-1
 1024 1280 l 1,56,-1
EndSplineSet
Validated: 1
EndChar

StartChar: uniF103
Encoding: 61699 61699 101
Width: 1024
GlyphClass: 1
Flags: W
LayerCount: 2
Fore
SplineSet
640 192 m 0,0,1
 640 112 640 112 584 56 c 128,-1,2
 528 0 528 0 448 0 c 128,-1,3
 368 0 368 0 312 56 c 128,-1,4
 256 112 256 112 256 192 c 0,5,6
 256 252 256 252 291 302 c 128,-1,7
 326 352 326 352 384 373 c 1,8,-1
 384 1024 l 1,9,-1
 512 1024 l 1,10,-1
 512 373 l 1,11,12
 570 352 570 352 605 302 c 128,-1,13
 640 252 640 252 640 192 c 0,0,1
768 192 m 0,14,15
 768 269 768 269 734 336 c 128,-1,16
 700 403 700 403 640 448 c 1,17,-1
 640 1216 l 2,18,19
 640 1296 640 1296 584 1352 c 128,-1,20
 528 1408 528 1408 448 1408 c 128,-1,21
 368 1408 368 1408 312 1352 c 128,-1,22
 256 1296 256 1296 256 1216 c 2,23,-1
 256 448 l 1,24,25
 196 403 196 403 162 336 c 128,-1,26
 128 269 128 269 128 192 c 0,27,28
 128 59 128 59 221.5 -34.5 c 128,-1,29
 315 -128 315 -128 448 -128 c 128,-1,30
 581 -128 581 -128 674.5 -34.5 c 128,-1,31
 768 59 768 59 768 192 c 0,14,15
896 192 m 0,32,33
 896 7 896 7 764.5 -124.5 c 128,-1,34
 633 -256 633 -256 448 -256 c 128,-1,35
 263 -256 263 -256 131.5 -124.5 c 128,-1,36
 0 7 0 7 0 192 c 0,37,38
 0 374 0 374 128 505 c 1,39,-1
 128 1216 l 2,40,41
 128 1349 128 1349 221.5 1442.5 c 128,-1,42
 315 1536 315 1536 448 1536 c 128,-1,43
 581 1536 581 1536 674.5 1442.5 c 128,-1,44
 768 1349 768 1349 768 1216 c 2,45,-1
 768 505 l 1,46,47
 896 374 896 374 896 192 c 0,32,33
1024 768 m 1,48,-1
 1024 640 l 1,49,-1
 832 640 l 1,50,-1
 832 768 l 1,51,-1
 1024 768 l 1,48,-1
1024 1024 m 1,52,-1
 1024 896 l 1,53,-1
 832 896 l 1,54,-1
 832 1024 l 1,55,-1
 1024 1024 l 1,52,-1
1024 1280 m 1,56,-1
 1024 1152 l 1,57,-1
 832 1152 l 1,58,-1
 832 1280 l 1,59,-1
 1024 1280 l 1,56,-1
EndSplineSet
Validated: 1
EndChar

StartChar: uniF104
Encoding: 61700 61700 102
Width: 1024
GlyphClass: 1
Flags: W
LayerCount: 2
Fore
SplineSet
640 192 m 0,0,1
 640 112 640 112 584 56 c 128,-1,2
 528 0 528 0 448 0 c 128,-1,3
 368 0 368 0 312 56 c 128,-1,4
 256 112 256 112 256 192 c 0,5,6
 256 252 256 252 291 302 c 128,-1,7
 326 352 326 352 384 373 c 1,8,-1
 384 1280 l 1,9,-1
 512 1280 l 1,10,-1
 512 373 l 1,11,12
 570 352 570 352 605 302 c 128,-1,13
 640 252 640 252 640 192 c 0,0,1
768 192 m 0,14,15
 768 269 768 269 734 336 c 128,-1,16
 700 403 700 403 640 448 c 1,17,-1
 640 1216 l 2,18,19
 640 1296 640 1296 584 1352 c 128,-1,20
 528 1408 528 1408 448 1408 c 128,-1,21
 368 1408 368 1408 312 1352 c 128,-1,22
 256 1296 256 1296 256 1216 c 2,23,-1
 256 448 l 1,24,25
 196 403 196 403 162 336 c 128,-1,26
 128 269 128 269 128 192 c 0,27,28
 128 59 128 59 221.5 -34.5 c 128,-1,29
 315 -128 315 -128 448 -128 c 128,-1,30
 581 -128 581 -128 674.5 -34.5 c 128,-1,31
 768 59 768 59 768 192 c 0,14,15
896 192 m 0,32,33
 896 7 896 7 764.5 -124.5 c 128,-1,34
 633 -256 633 -256 448 -256 c 128,-1,35
 263 -256 263 -256 131.5 -124.5 c 128,-1,36
 0 7 0 7 0 192 c 0,37,38
 0 374 0 374 128 505 c 1,39,-1
 128 1216 l 2,40,41
 128 1349 128 1349 221.5 1442.5 c 128,-1,42
 315 1536 315 1536 448 1536 c 128,-1,43
 581 1536 581 1536 674.5 1442.5 c 128,-1,44
 768 1349 768 1349 768 1216 c 2,45,-1
 768 505 l 1,46,47
 896 374 896 374 896 192 c 0,32,33
1024 768 m 1,48,-1
 1024 640 l 1,49,-1
 832 640 l 1,50,-1
 832 768 l 1,51,-1
 1024 768 l 1,48,-1
1024 1024 m 1,52,-1
 1024 896 l 1,53,-1
 832 896 l 1,54,-1
 832 1024 l 1,55,-1
 1024 1024 l 1,52,-1
1024 1280 m 1,56,-1
 1024 1152 l 1,57,-1
 832 1152 l 1,58,-1
 832 1280 l 1,59,-1
 1024 1280 l 1,56,-1
EndSplineSet
Validated: 1
EndChar

StartChar: uniF105
Encoding: 61701 61701 103
Width: 1664
GlyphClass: 1
Flags: W
LayerCount: 2
Fore
SplineSet
1467 464 m 2,0,-1
 1322 435 l 1,1,-1
 1483 340 l 2,2,3
 1503 329 1503 329 1508.5 306 c 128,-1,4
 1514 283 1514 283 1503 263 c 0,5,6
 1491 243 1491 243 1469.5 237 c 128,-1,7
 1448 231 1448 231 1428 243 c 2,8,-1
 1267 337 l 1,9,-1
 1315 195 l 2,10,11
 1326 161 1326 161 1304.5 138.5 c 128,-1,12
 1283 116 1283 116 1252 120 c 128,-1,13
 1221 124 1221 124 1210 157 c 2,14,-1
 1122 424 l 1,15,-1
 887 562 l 1,16,-1
 887 284 l 1,17,-1
 1067 73 l 2,18,19
 1081 57 1081 57 1082 38.5 c 128,-1,20
 1083 20 1083 20 1072.5 6 c 128,-1,21
 1062 -8 1062 -8 1048 -16.5 c 128,-1,22
 1034 -25 1034 -25 1016 -21.5 c 128,-1,23
 998 -18 998 -18 984 -2 c 2,24,-1
 887 112 l 1,25,-1
 887 -78 l 2,26,27
 887 -101 887 -101 870.5 -118 c 128,-1,28
 854 -135 854 -135 832 -135 c 128,-1,29
 810 -135 810 -135 793.5 -118 c 128,-1,30
 777 -101 777 -101 777 -78 c 2,31,-1
 777 112 l 1,32,-1
 680 -2 l 2,33,34
 666 -18 666 -18 648 -21.5 c 128,-1,35
 630 -25 630 -25 616 -16.5 c 128,-1,36
 602 -8 602 -8 591.5 6 c 128,-1,37
 581 20 581 20 582 38.5 c 128,-1,38
 583 57 583 57 597 73 c 2,39,-1
 777 284 l 1,40,-1
 777 562 l 1,41,-1
 542 424 l 1,42,-1
 454 157 l 2,43,44
 443 124 443 124 412 120 c 128,-1,45
 381 116 381 116 359.5 138.5 c 128,-1,46
 338 161 338 161 349 195 c 2,47,-1
 397 337 l 1,48,-1
 236 243 l 2,49,50
 216 231 216 231 194.5 237 c 128,-1,51
 173 243 173 243 161 263 c 0,52,53
 150 283 150 283 155.5 306 c 128,-1,54
 161 329 161 329 181 340 c 2,55,-1
 342 435 l 1,56,-1
 197 464 l 2,57,58
 172 470 172 470 161 490.5 c 128,-1,59
 150 511 150 511 153.5 531.5 c 128,-1,60
 157 552 157 552 175.5 567 c 128,-1,61
 194 582 194 582 219 576 c 2,62,-1
 487 521 l 1,63,-1
 721 661 l 1,64,-1
 487 800 l 1,65,-1
 219 745 l 2,66,67
 215 744 215 744 207 744 c 0,68,69
 184 744 184 744 169.5 760 c 128,-1,70
 155 776 155 776 153 795.5 c 128,-1,71
 151 815 151 815 162.5 833.5 c 128,-1,72
 174 852 174 852 197 857 c 2,73,-1
 342 886 l 1,74,-1
 181 981 l 2,75,76
 161 992 161 992 155.5 1015 c 128,-1,77
 150 1038 150 1038 161 1058.5 c 128,-1,78
 172 1079 172 1079 194.5 1085 c 128,-1,79
 217 1091 217 1091 236 1079 c 2,80,-1
 397 984 l 1,81,-1
 349 1126 l 2,82,83
 338 1160 338 1160 359.5 1182.5 c 128,-1,84
 381 1205 381 1205 412 1201 c 128,-1,85
 443 1197 443 1197 454 1164 c 2,86,-1
 542 898 l 1,87,-1
 777 759 l 1,88,-1
 777 1037 l 1,89,-1
 597 1248 l 2,90,91
 583 1264 583 1264 582 1282.5 c 128,-1,92
 581 1301 581 1301 591.5 1315 c 128,-1,93
 602 1329 602 1329 616 1337.5 c 128,-1,94
 630 1346 630 1346 648 1342.5 c 128,-1,95
 666 1339 666 1339 680 1323 c 2,96,-1
 777 1209 l 1,97,-1
 777 1399 l 2,98,99
 777 1422 777 1422 793.5 1439 c 128,-1,100
 810 1456 810 1456 832 1456 c 128,-1,101
 854 1456 854 1456 870.5 1439 c 128,-1,102
 887 1422 887 1422 887 1399 c 2,103,-1
 887 1209 l 1,104,-1
 984 1323 l 2,105,106
 998 1339 998 1339 1016 1342.5 c 128,-1,107
 1034 1346 1034 1346 1048 1337.5 c 128,-1,108
 1062 1329 1062 1329 1072.5 1315 c 128,-1,109
 1083 1301 1083 1301 1082 1282.5 c 128,-1,110
 1081 1264 1081 1264 1067 1248 c 2,111,-1
 887 1037 l 1,112,-1
 887 759 l 1,113,-1
 1122 898 l 1,114,-1
 1210 1164 l 2,115,116
 1221 1197 1221 1197 1252 1201 c 128,-1,117
 1283 1205 1283 1205 1304.5 1182.5 c 128,-1,118
 1326 1160 1326 1160 1315 1126 c 2,119,-1
 1267 984 l 1,120,-1
 1428 1079 l 2,121,122
 1448 1090 1448 1090 1469.5 1084.5 c 128,-1,123
 1491 1079 1491 1079 1503 1058 c 0,124,125
 1514 1038 1514 1038 1508.5 1015 c 128,-1,126
 1503 992 1503 992 1483 981 c 2,127,-1
 1322 886 l 1,128,-1
 1467 857 l 2,129,130
 1490 852 1490 852 1501.5 833.5 c 128,-1,131
 1513 815 1513 815 1511 795.5 c 128,-1,132
 1509 776 1509 776 1494.5 760 c 128,-1,133
 1480 744 1480 744 1457 744 c 0,134,135
 1449 744 1449 744 1445 745 c 2,136,-1
 1177 800 l 1,137,-1
 943 661 l 1,138,-1
 1177 521 l 1,139,-1
 1445 576 l 2,140,141
 1470 582 1470 582 1488.5 567 c 128,-1,142
 1507 552 1507 552 1510.5 531.5 c 128,-1,143
 1514 511 1514 511 1503 490.5 c 128,-1,144
 1492 470 1492 470 1467 464 c 2,0,-1
EndSplineSet
Validated: 1
EndChar

StartChar: uniF106
Encoding: 61702 61702 104
Width: 2048
GlyphClass: 2
Flags: W
LayerCount: 2
Fore
SplineSet
1290 -88 m 0,0,1
 1250 -125 1250 -125 1204 -150 c 0,2,3
 1044 -239 1044 -239 865 -205 c 0,4,5
 825 -198 825 -198 788 -184 c 0,6,7
 677 -143 677 -143 600 -60 c 0,8,9
 501 48 501 48 483 191 c 0,10,11
 479 229 479 229 481 267 c 0,12,13
 493 455 493 455 639 584 c 0,14,15
 640 585 640 585 640 587 c 0,16,17
 640 935 640 935 640 1281 c 0,18,19
 640 1334 640 1334 643 1357 c 0,20,21
 657 1450 657 1450 724 1519 c 0,22,23
 807 1605 807 1605 927 1617 c 0,24,25
 967 1621 967 1621 1007 1615 c 0,26,27
 1126 1599 1126 1599 1204 1510 c 0,28,29
 1280 1425 1280 1425 1280 1308 c 0,30,31
 1280 951 1280 951 1280 589 c 0,32,33
 1280 585 1280 585 1283 583 c 0,34,35
 1317 553 1317 553 1344 518 c 0,36,37
 1446 386 1446 386 1439 223 c 0,38,39
 1437 185 1437 185 1429 148 c 0,40,41
 1398 11 1398 11 1290 -88 c 0,0,1
983 1495 m 0,42,43
 890 1506 890 1506 821 1437 c 0,44,45
 768 1385 768 1385 768 1314 c 0,46,47
 768 936 768 936 767 558 c 0,48,49
 767 527 767 527 742 508 c 0,50,51
 651 437 651 437 621 332 c 0,52,53
 610 296 610 296 609 257 c 0,54,55
 603 114 603 114 707 10 c 0,56,57
 784 -67 784 -67 895 -87 c 0,58,59
 935 -94 935 -94 975 -92 c 0,60,61
 1077 -88 1077 -88 1161 -32 c 0,62,63
 1270 41 1270 41 1301 163 c 0,64,65
 1311 201 1311 201 1312 239 c 0,66,67
 1313 280 1313 280 1303 320 c 0,68,69
 1274 434 1274 434 1177 508 c 0,70,71
 1152 528 1152 528 1152 562 c 0,72,73
 1152 935 1152 935 1153 1307 c 0,74,75
 1153 1343 1153 1343 1142 1372 c 0,76,77
 1118 1437 1118 1437 1058 1470 c 0,78,79
 1024 1489 1024 1489 983 1495 c 0,42,43
1027 448 m 0,80,81
 1139 411 1139 411 1173 308 c 0,82,83
 1185 272 1185 272 1183 233 c 0,84,85
 1178 127 1178 127 1082 65 c 0,86,87
 1042 38 1042 38 988 32 c 0,88,89
 890 22 890 22 819 78 c 0,90,91
 750 133 750 133 738 217 c 0,92,93
 729 283 729 283 763 343 c 0,94,95
 806 420 806 420 894 448 c 0,96,97
 896 449 896 449 896 451 c 0,98,99
 896 880 896 880 896 1307 c 0,100,101
 896 1338 896 1338 916 1358 c 0,102,103
 933 1374 933 1374 956 1374 c 0,104,105
 977 1375 977 1375 996 1364 c 0,106,107
 1024 1347 1024 1347 1024 1310 c 0,108,109
 1024 883 1024 883 1024 451 c 0,110,111
 1024 449 1024 449 1027 448 c 0,80,81
1056 243.5 m 128,-1,113
 1056 281 1056 281 1028 308 c 128,-1,114
 1000 335 1000 335 960 335 c 128,-1,115
 920 335 920 335 892 308 c 128,-1,116
 864 281 864 281 864 243.5 c 128,-1,117
 864 206 864 206 892 179 c 128,-1,118
 920 152 920 152 960 152 c 128,-1,119
 1000 152 1000 152 1028 179 c 128,-1,112
 1056 206 1056 206 1056 243.5 c 128,-1,113
1431 1117 m 0,120,121
 1502 1181 1502 1181 1600 1174 c 0,122,123
 1673 1169 1673 1169 1729 1122 c 0,124,125
 1754 1102 1754 1102 1761 1098 c 0,126,127
 1810 1071 1810 1071 1860 1100 c 0,128,129
 1863 1101 1863 1101 1880 1115 c 0,130,131
 1899 1131 1899 1131 1924 1130 c 0,132,133
 1953 1129 1953 1129 1970 1110 c 0,134,135
 1986 1092 1986 1092 1986 1069 c 0,136,137
 1986 1041 1986 1041 1962 1021 c 0,138,139
 1886 956 1886 956 1790 964 c 0,140,141
 1749 968 1749 968 1714 984 c 256,142,143
 1679 1000 1679 1000 1649 1027 c 0,144,145
 1627 1048 1627 1048 1594 1051 c 0,146,147
 1549 1056 1549 1056 1516 1026 c 0,148,149
 1498 1010 1498 1010 1475 1008 c 0,150,151
 1453 1006 1453 1006 1434 1018 c 0,152,153
 1413 1031 1413 1031 1407 1057 c 0,154,155
 1403 1075 1403 1075 1410 1091 c 0,156,157
 1415 1103 1415 1103 1431 1117 c 0,120,121
1675 701 m 0,158,159
 1664 708 1664 708 1656 716 c 0,160,161
 1642 727 1642 727 1637 731 c 0,162,163
 1584 763 1584 763 1531 732 c 0,164,165
 1530 731 1530 731 1510 716 c 0,166,167
 1497 705 1497 705 1482 703 c 0,168,169
 1450 698 1450 698 1429 716 c 0,170,171
 1409 733 1409 733 1406 758 c 0,172,173
 1403 786 1403 786 1427 808 c 0,174,175
 1469 847 1469 847 1524 861 c 0,176,177
 1562 871 1562 871 1603 868 c 0,178,179
 1674 862 1674 862 1729 817 c 0,180,181
 1755 796 1755 796 1761 792 c 0,182,183
 1811 765 1811 765 1862 795 c 1,184,185
 1862 795 1862 795 1882 810 c 0,186,187
 1908 830 1908 830 1938 822 c 0,188,189
 1966 814 1966 814 1979 790 c 0,190,191
 1992 768 1992 768 1982 744 c 0,192,193
 1976 726 1976 726 1955 709 c 0,194,195
 1899 663 1899 663 1826 658 c 0,196,197
 1742 653 1742 653 1675 701 c 0,158,159
EndSplineSet
Validated: 33
EndChar

StartChar: uniF11A
Encoding: 61722 61722 105
Width: 2048
GlyphClass: 2
Flags: W
LayerCount: 2
Fore
SplineSet
1636 666 m 0,0,1
 964 666 964 666 290 666 c 0,2,3
 247 666 247 666 234 671 c 0,4,5
 203 683 203 683 195 719 c 0,6,7
 190 745 190 745 208 769 c 0,8,9
 220 785 220 785 239 791 c 0,10,11
 250 794 250 794 276 794 c 0,12,13
 955 794 955 794 1635 794 c 0,14,15
 1640 794 1640 794 1636 798 c 0,16,17
 1409 1025 1409 1025 1181 1253 c 0,18,19
 1163 1271 1163 1271 1158 1284 c 0,20,21
 1147 1314 1147 1314 1166 1343 c 0,22,23
 1179 1364 1179 1364 1207 1369 c 0,24,25
 1241 1376 1241 1376 1267 1350 c 0,26,27
 1545 1070 1545 1070 1824 791 c 1,28,29
 1824 791 1824 791 1836 780 c 0,30,31
 1849 768 1849 768 1854 754 c 0,32,33
 1864 729 1864 729 1855 707 c 0,34,35
 1850 695 1850 695 1828 672 c 0,36,37
 1379 226 1379 226 1269 114 c 0,38,39
 1239 84 1239 84 1205 92 c 0,40,41
 1174 100 1174 100 1160 129 c 0,42,43
 1149 152 1149 152 1160 179 c 0,44,45
 1165 191 1165 191 1182 208 c 0,46,47
 1409 435 1409 435 1637 663 c 0,48,49
 1640 666 1640 666 1636 666 c 0,0,1
EndSplineSet
Validated: 33
EndChar

StartChar: uniF11B
Encoding: 61723 61723 106
Width: 2048
GlyphClass: 2
Flags: W
LayerCount: 2
Fore
SplineSet
1503 1124 m 0,0,1
 1028 649 1028 649 551 172 c 0,2,3
 521 142 521 142 508 136 c 0,4,5
 478 123 478 123 447 143 c 0,6,7
 425 157 425 157 420 187 c 0,8,9
 417 207 417 207 427 225 c 0,10,11
 432 234 432 234 451 253 c 0,12,13
 931 733 931 733 1412 1214 c 0,14,15
 1416 1218 1416 1218 1410 1218 c 0,16,17
 1089 1217 1089 1217 766 1218 c 0,18,19
 741 1218 741 1218 728 1223 c 0,20,21
 699 1236 699 1236 692 1270 c 0,22,23
 687 1294 687 1294 703 1318 c 0,24,25
 722 1346 722 1346 759 1346 c 0,26,27
 1153 1345 1153 1345 1547 1345 c 0,28,29
 1548 1345 1548 1345 1564 1346 c 0,30,31
 1581 1347 1581 1347 1595 1341 c 0,32,33
 1620 1330 1620 1330 1629 1308 c 0,34,35
 1634 1295 1634 1295 1634 1264 c 0,36,37
 1633 631 1633 631 1634 475 c 0,38,39
 1634 432 1634 432 1604 413 c 0,40,41
 1577 396 1577 396 1546 407 c 0,42,43
 1522 416 1522 416 1511 442 c 0,44,45
 1506 455 1506 455 1506 479 c 0,46,47
 1506 800 1506 800 1506 1123 c 0,48,49
 1506 1127 1506 1127 1503 1124 c 0,0,1
EndSplineSet
Validated: 33
EndChar

StartChar: uniF11C
Encoding: 61724 61724 107
Width: 2048
GlyphClass: 2
Flags: W
LayerCount: 2
Fore
SplineSet
637 1206 m 0,0,1
 1112 731 1112 731 1589 254 c 0,2,3
 1619 224 1619 224 1625 211 c 0,4,5
 1638 181 1638 181 1618 150 c 0,6,7
 1604 128 1604 128 1574 123 c 0,8,9
 1554 120 1554 120 1536 130 c 0,10,11
 1527 135 1527 135 1508 154 c 0,12,13
 1028 634 1028 634 547 1115 c 0,14,15
 543 1119 543 1119 543 1113 c 0,16,17
 544 792 544 792 543 469 c 0,18,19
 543 444 543 444 537 431 c 0,20,21
 525 402 525 402 491 395 c 0,22,23
 466 390 466 390 443 406 c 0,24,25
 414 425 414 425 414 462 c 0,26,27
 415 856 415 856 415 1250 c 0,28,29
 415 1251 415 1251 415 1267 c 0,30,31
 414 1284 414 1284 420 1298 c 0,32,33
 431 1323 431 1323 453 1332 c 0,34,35
 465 1337 465 1337 497 1337 c 0,36,37
 1130 1336 1130 1336 1286 1337 c 0,38,39
 1329 1337 1329 1337 1347 1307 c 0,40,41
 1364 1280 1364 1280 1354 1249 c 0,42,43
 1345 1225 1345 1225 1318 1214 c 0,44,45
 1305 1209 1305 1209 1282 1209 c 0,46,47
 961 1209 961 1209 638 1209 c 0,48,49
 634 1209 634 1209 637 1206 c 0,0,1
EndSplineSet
Validated: 33
EndChar

StartChar: uniF11D
Encoding: 61725 61725 108
Width: 2048
GlyphClass: 2
Flags: W
LayerCount: 2
Fore
SplineSet
1090 1342 m 0,0,1
 1089 669 1089 669 1090 -5 c 0,2,3
 1090 -47 1090 -47 1085 -61 c 0,4,5
 1073 -91 1073 -91 1037 -99 c 0,6,7
 1011 -105 1011 -105 987 -87 c 0,8,9
 971 -75 971 -75 965 -55 c 0,10,11
 962 -45 962 -45 962 -19 c 0,12,13
 962 660 962 660 962 1340 c 0,14,15
 962 1346 962 1346 958 1342 c 0,16,17
 731 1114 731 1114 503 887 c 0,18,19
 484 869 484 869 471 864 c 0,20,21
 442 852 442 852 413 871 c 0,22,23
 392 885 392 885 387 913 c 0,24,25
 380 946 380 946 406 972 c 0,26,27
 686 1250 686 1250 964 1529 c 0,28,29
 965 1529 965 1529 976 1541 c 0,30,31
 987 1554 987 1554 1002 1560 c 0,32,33
 1026 1569 1026 1569 1049 1560 c 0,34,35
 1061 1555 1061 1555 1083 1533 c 0,36,37
 1530 1085 1530 1085 1641 975 c 0,38,39
 1672 944 1672 944 1664 911 c 0,40,41
 1656 879 1656 879 1627 865 c 0,42,43
 1604 854 1604 854 1577 865 c 0,44,45
 1564 871 1564 871 1548 887 c 0,46,47
 1321 1114 1321 1114 1092 1343 c 0,48,49
 1090 1345 1090 1345 1090 1342 c 0,0,1
EndSplineSet
Validated: 33
EndChar

StartChar: uniF11E
Encoding: 61726 61726 109
Width: 2048
GlyphClass: 2
Flags: W
LayerCount: 2
Fore
SplineSet
1410 248 m 0,0,1
 934 723 934 723 458 1200 c 0,2,3
 428 1230 428 1230 422 1243 c 0,4,5
 408 1273 408 1273 428 1304 c 0,6,7
 443 1326 443 1326 472 1330 c 0,8,9
 492 1334 492 1334 510 1324 c 0,10,11
 520 1319 520 1319 538 1300 c 0,12,13
 1018 820 1018 820 1499 339 c 0,14,15
 1503 335 1503 335 1503 341 c 0,16,17
 1502 662 1502 662 1503 985 c 0,18,19
 1503 1010 1503 1010 1509 1023 c 0,20,21
 1522 1052 1522 1052 1556 1059 c 0,22,23
 1580 1064 1580 1064 1604 1048 c 0,24,25
 1632 1029 1632 1029 1632 992 c 0,26,27
 1631 598 1631 598 1631 204 c 0,28,29
 1631 203 1631 203 1632 187 c 0,30,31
 1632 170 1632 170 1626 156 c 0,32,33
 1616 131 1616 131 1593 122 c 0,34,35
 1581 117 1581 117 1549 117 c 0,36,37
 917 118 917 118 760 117 c 0,38,39
 717 117 717 117 699 146 c 0,40,41
 682 174 682 174 693 204 c 0,42,43
 702 229 702 229 728 240 c 0,44,45
 741 245 741 245 765 245 c 0,46,47
 1085 245 1085 245 1408 245 c 0,48,49
 1412 245 1412 245 1410 248 c 0,0,1
EndSplineSet
Validated: 33
EndChar

StartChar: uniF11F
Encoding: 61727 61727 110
Width: 2048
GlyphClass: 2
Flags: W
LayerCount: 2
Fore
SplineSet
546 348 m 0,0,1
 1021 823 1021 823 1498 1299 c 0,2,3
 1528 1329 1528 1329 1541 1335 c 0,4,5
 1571 1349 1571 1349 1602 1329 c 0,6,7
 1624 1315 1624 1315 1628 1285 c 0,8,9
 1632 1265 1632 1265 1622 1247 c 0,10,11
 1617 1237 1617 1237 1598 1219 c 0,12,13
 1118 739 1118 739 637 258 c 0,14,15
 633 254 633 254 639 254 c 0,16,17
 960 255 960 255 1283 254 c 0,18,19
 1308 254 1308 254 1321 248 c 0,20,21
 1350 235 1350 235 1357 201 c 0,22,23
 1362 177 1362 177 1346 153 c 0,24,25
 1327 125 1327 125 1290 125 c 0,26,27
 896 126 896 126 502 126 c 0,28,29
 501 126 501 126 485 125 c 0,30,31
 468 125 468 125 454 131 c 0,32,33
 429 142 429 142 420 164 c 0,34,35
 415 176 415 176 415 208 c 0,36,37
 416 840 416 840 415 997 c 0,38,39
 415 1040 415 1040 444 1058 c 0,40,41
 472 1075 472 1075 503 1064 c 0,42,43
 527 1055 527 1055 538 1029 c 0,44,45
 543 1016 543 1016 543 992 c 0,46,47
 543 672 543 672 543 349 c 0,48,49
 543 345 543 345 546 348 c 0,0,1
EndSplineSet
Validated: 33
EndChar

StartChar: uniF120
Encoding: 61728 61728 111
Width: 2048
GlyphClass: 2
Flags: W
LayerCount: 2
Fore
SplineSet
960 127 m 0,0,1
 960 799 960 799 960 1473 c 0,2,3
 960 1515 960 1515 965 1529 c 0,4,5
 976 1559 976 1559 1013 1567 c 0,6,7
 1038 1573 1038 1573 1063 1555 c 0,8,9
 1079 1543 1079 1543 1085 1524 c 0,10,11
 1088 1513 1088 1513 1088 1487 c 0,12,13
 1088 808 1088 808 1088 128 c 0,14,15
 1088 122 1088 122 1092 126 c 0,16,17
 1318 354 1318 354 1547 581 c 0,18,19
 1565 599 1565 599 1578 605 c 0,20,21
 1608 616 1608 616 1637 597 c 0,22,23
 1657 583 1657 583 1663 555 c 0,24,25
 1669 522 1669 522 1643 496 c 0,26,27
 1364 218 1364 218 1085 -61 c 1,28,29
 1085 -61 1085 -61 1074 -73 c 0,30,31
 1062 -86 1062 -86 1048 -92 c 0,32,33
 1023 -101 1023 -101 1001 -92 c 0,34,35
 988 -87 988 -87 966 -65 c 0,36,37
 519 383 519 383 408 493 c 0,38,39
 378 524 378 524 386 558 c 0,40,41
 393 589 393 589 422 603 c 0,42,43
 446 614 446 614 472 603 c 0,44,45
 485 598 485 598 502 581 c 0,46,47
 728 354 728 354 957 125 c 0,48,49
 960 123 960 123 960 127 c 0,0,1
EndSplineSet
Validated: 33
EndChar

StartChar: uniF121
Encoding: 61729 61729 112
Width: 2048
GlyphClass: 2
Flags: W
LayerCount: 2
Fore
SplineSet
415 795 m 0,0,1
 1087 795 1087 795 1761 795 c 0,2,3
 1803 795 1803 795 1817 790 c 0,4,5
 1847 779 1847 779 1855 742 c 0,6,7
 1861 717 1861 717 1843 692 c 0,8,9
 1831 676 1831 676 1812 670 c 0,10,11
 1801 667 1801 667 1775 667 c 0,12,13
 1096 667 1096 667 416 667 c 0,14,15
 410 667 410 667 414 663 c 0,16,17
 642 436 642 436 870 208 c 0,18,19
 888 190 888 190 893 177 c 0,20,21
 904 147 904 147 885 118 c 0,22,23
 871 98 871 98 843 92 c 0,24,25
 810 85 810 85 784 112 c 0,26,27
 506 391 506 391 227 670 c 1,28,29
 227 670 227 670 215 681 c 0,30,31
 202 693 202 693 196 707 c 0,32,33
 187 732 187 732 196 754 c 0,34,35
 201 767 201 767 223 789 c 0,36,37
 671 1236 671 1236 782 1347 c 0,38,39
 812 1377 812 1377 846 1369 c 0,40,41
 877 1362 877 1362 891 1333 c 0,42,43
 902 1309 902 1309 891 1283 c 0,44,45
 886 1270 886 1270 869 1253 c 0,46,47
 642 1026 642 1026 414 798 c 0,48,49
 411 795 411 795 415 795 c 0,0,1
EndSplineSet
Validated: 33
EndChar

StartChar: uniF0F4
Encoding: 61684 61684 113
Width: 2048
LayerCount: 2
Fore
SplineSet
1621.33300781 1243 m 128,-1,1
 1621.33300781 1278.32250977 1621.33300781 1278.32250977 1596.32775879 1303.32775879 c 128,-1,2
 1571.32250977 1328.33300781 1571.32250977 1328.33300781 1536 1328.33300781 c 128,-1,3
 1500.67675781 1328.33300781 1500.67675781 1328.33300781 1475.671875 1303.328125 c 2,4,-1
 451.671875 279.328125 l 2,5,6
 426.666992188 254.323242188 426.666992188 254.323242188 426.666992188 219 c 128,-1,7
 426.666992188 183.677490234 426.666992188 183.677490234 451.672241211 158.672241211 c 128,-1,8
 476.677490234 133.666992188 476.677490234 133.666992188 512 133.666992188 c 128,-1,9
 547.323242188 133.666992188 547.323242188 133.666992188 572.328125 158.671875 c 2,10,-1
 1596.328125 1182.671875 l 2,11,0
 1621.33300781 1207.67675781 1621.33300781 1207.67675781 1621.33300781 1243 c 128,-1,1
512 1328.33300781 m 128,-1,13
 476.677490234 1328.33300781 476.677490234 1328.33300781 451.672241211 1303.32775879 c 128,-1,14
 426.666992188 1278.32250977 426.666992188 1278.32250977 426.666992188 1243 c 128,-1,15
 426.666992188 1207.67675781 426.666992188 1207.67675781 451.671875 1182.671875 c 2,16,-1
 1475.671875 158.671875 l 2,17,18
 1500.67675781 133.666992188 1500.67675781 133.666992188 1536 133.666992188 c 128,-1,19
 1571.32250977 133.666992188 1571.32250977 133.666992188 1596.32775879 158.672241211 c 128,-1,20
 1621.33300781 183.677490234 1621.33300781 183.677490234 1621.33300781 219 c 128,-1,21
 1621.33300781 254.323242188 1621.33300781 254.323242188 1596.328125 279.328125 c 2,22,-1
 572.328125 1303.328125 l 2,23,12
 547.323242188 1328.33300781 547.323242188 1328.33300781 512 1328.33300781 c 128,-1,13
EndSplineSet
Validated: 524293
EndChar

StartChar: uniF038
Encoding: 61496 61496 114
Width: 2048
LayerCount: 2
Fore
SplineSet
1280 -165 m 1,0,-1
 768 -165 l 1,1,-1
 768 219 l 1,2,-1
 1280 219 l 1,3,-1
 1280 -165 l 1,0,-1
1216 475 m 1,4,-1
 832 475 l 1,5,-1
 768 1627 l 1,6,-1
 1280 1627 l 1,7,-1
 1216 475 l 1,4,-1
EndSplineSet
Validated: 1
EndChar

StartChar: uniF039
Encoding: 61497 61497 115
Width: 2048
LayerCount: 2
Fore
SplineSet
1024 1243 m 0,0,1
 1106.28278641 1243 1106.28278641 1243 1187.44779161 1226.19943322 c 128,-1,2
 1268.61279681 1209.39886644 1268.61279681 1209.39886644 1337.9633896 1181.99990511 c 128,-1,3
 1407.3139824 1154.60094378 1407.3139824 1154.60094378 1477.57953929 1112.86524955 c 128,-1,4
 1547.84509617 1071.12955531 1547.84509617 1071.12955531 1604.54290969 1028.3345671 c 128,-1,5
 1661.24072321 985.539578894 1661.24072321 985.539578894 1721.13865121 930.400007198 c 128,-1,6
 1781.03657921 875.260435502 1781.03657921 875.260435502 1825.61343288 828.600670417 c 128,-1,7
 1870.19028655 781.940905331 1870.19028655 781.940905331 1920 725.400390625 c 1,8,9
 1913.45444257 718.906564 1913.45444257 718.906564 1900.07545506 705.603978997 c 0,10,11
 1854.21087772 660.001317505 1854.21087772 660.001317505 1828.99705185 635.376795492 c 128,-1,12
 1803.78322597 610.75227348 1803.78322597 610.75227348 1753.43325878 564.100410855 c 128,-1,13
 1703.08329158 517.44854823 1703.08329158 517.44854823 1668.60411044 489.611983049 c 128,-1,14
 1634.1249293 461.775417868 1634.1249293 461.775417868 1579.7486998 420.941634589 c 128,-1,15
 1525.3724703 380.107851309 1525.3724703 380.107851309 1481.41912423 355.180325801 c 128,-1,16
 1437.46577815 330.252800293 1437.46577815 330.252800293 1378.85447669 301.358179202 c 128,-1,17
 1320.24317523 272.46355811 1320.24317523 272.46355811 1266.60685456 256.566155117 c 128,-1,18
 1212.97053389 240.668752124 1212.97053389 240.668752124 1149.9153508 229.834376062 c 128,-1,19
 1086.8601677 219 1086.8601677 219 1024 219 c 0,20,21
 930 219 930 219 846 234.5 c 128,-1,22
 762 250 762 250 681.5 289.5 c 128,-1,23
 601 329 601 329 543.5 362 c 128,-1,24
 486 395 486 395 405.5 466 c 128,-1,25
 325 537 325 537 284 576.5 c 128,-1,26
 243 616 243 616 153.965534219 704.890226165 c 0,27,28
 137 722 137 722 128 731 c 1,29,30
 255 859 255 859 356 946 c 128,-1,31
 457 1033 457 1033 568.5 1104 c 128,-1,32
 680 1175 680 1175 792 1209 c 128,-1,33
 904 1243 904 1243 1024 1243 c 0,0,1
1024 365.799804688 m 128,-1,35
 1121.20071085 365.799804688 1121.20071085 365.799804688 1203.76681183 414.684018357 c 128,-1,36
 1286.3329128 463.568232027 1286.3329128 463.568232027 1334.36665171 547.716046747 c 128,-1,37
 1382.40039062 631.863861467 1382.40039062 631.863861467 1382.40039062 731 c 128,-1,38
 1382.40039062 829.958621172 1382.40039062 829.958621172 1334.37456803 914.106435892 c 128,-1,39
 1286.34874544 998.254250612 1286.34874544 998.254250612 1203.75889551 1047.22722296 c 128,-1,40
 1121.16904557 1096.20019531 1121.16904557 1096.20019531 1024 1096.20019531 c 128,-1,41
 926.79928915 1096.20019531 926.79928915 1096.20019531 844.233188173 1047.31598164 c 128,-1,42
 761.667087196 998.431767973 761.667087196 998.431767973 713.633348285 914.283953253 c 128,-1,43
 665.599609375 830.136138533 665.599609375 830.136138533 665.599609375 731 c 128,-1,44
 665.599609375 632.041378828 665.599609375 632.041378828 713.625431966 547.893564108 c 128,-1,45
 761.651254557 463.745749388 761.651254557 463.745749388 844.241104492 414.772777038 c 128,-1,34
 926.830954427 365.799804688 926.830954427 365.799804688 1024 365.799804688 c 128,-1,35
1024 859 m 0,46,47
 1024 805.869297414 1024 805.869297414 1061.51557995 768.434648707 c 128,-1,48
 1099.0311599 731 1099.0311599 731 1152.40039062 731 c 0,49,50
 1196.2961799 731 1196.2961799 731 1231.59960938 758.599609375 c 1,51,52
 1233.20019531 740.212390434 1233.20019531 740.212390434 1233.20019531 731 c 0,53,54
 1233.20019531 642.834228558 1233.20019531 642.834228558 1171.81683096 580.317016623 c 128,-1,55
 1110.4334666 517.799804688 1110.4334666 517.799804688 1024 517.799804688 c 128,-1,56
 937.566533401 517.799804688 937.566533401 517.799804688 876.183169044 580.317016623 c 128,-1,57
 814.799804688 642.834228558 814.799804688 642.834228558 814.799804688 731 c 128,-1,58
 814.799804688 819.165771442 814.799804688 819.165771442 876.183169044 881.682983377 c 128,-1,59
 937.566533401 944.200195312 937.566533401 944.200195312 1024 944.200195312 c 0,60,61
 1039.40344127 944.200195312 1039.40344127 944.200195312 1054.40039062 941.799804688 c 1,62,63
 1024 905.580515275 1024 905.580515275 1024 859 c 0,46,47
EndSplineSet
EndChar
